<svg width="2074" height="598" viewBox="0 0 2074 598" fill="none" xmlns="http://www.w3.org/2000/svg">
	<mask id="mask0_243_798" style="mask-type:alpha" maskUnits="userSpaceOnUse" x="0" y="68" width="2074" height="394">
	<rect x="0.458984" y="68.822" width="2073.36" height="392.662" fill="#FAFF00"/>
	</mask>
	<g mask="url(#mask0_243_798)">
	<path d="M880.953 397.524C884.75 389.555 890.11 382.816 896.747 377.008C901.36 372.972 906.829 371.953 912.583 372.402C922.393 373.162 930.484 377.422 936.605 385.228C937.841 386.804 938.588 388.611 939.268 390.486C940.837 394.813 942.535 399.093 944.227 403.373C945.178 405.791 944.764 407.897 943.052 409.82C939.044 414.317 933.731 416.736 928.412 419.202C919.9 423.162 911.428 427.211 905.253 434.691C903.697 436.573 901.781 438.094 899.703 439.385C895.158 442.191 890.45 441.899 886.286 439.025C879.173 434.113 872.311 428.835 865.457 423.563C855.538 415.927 845.287 408.651 835.966 400.336C822.712 388.516 812.04 374.616 805.654 357.721C801.163 345.839 797.719 333.665 794.601 321.389C792.461 312.945 790.328 304.474 788.84 295.907C788.018 291.193 787.407 286.383 786.836 281.6C785.009 266.424 791.116 253.767 798.684 241.485C802.006 236.098 806.096 231.383 811.557 228.007C815.09 225.819 818.908 225.085 822.977 225.962C836.965 228.978 847.386 237.246 856.109 248.183C861.578 255.045 864.662 263.047 867.767 271.057C870.26 277.477 873.405 283.563 876.883 289.481C883.561 300.839 890.402 312.096 897.04 323.475C899.662 327.966 900.674 333.067 901.72 338.101C901.938 339.148 901.727 340.282 903.222 340.438" stroke="#131313" stroke-width="2" stroke-miterlimit="10" stroke-linecap="round" stroke-linejoin="round"/>
	<path d="M840.246 208.095C836.191 210.608 831.537 211.43 827.067 212.789C810.953 217.701 797.685 226.478 789.322 241.492C784.445 250.262 781.259 259.637 779.18 269.548C776.442 282.626 773.901 295.744 771.116 308.808C767.21 327.103 763.032 345.35 757.57 363.244C753.962 375.071 749.581 386.62 744.302 397.877C738.1 411.09 732.529 424.63 727.325 438.271C724.717 445.098 722.278 452.089 720.79 459.31C719.941 461.362 719.098 461.369 717.522 461.362C707.033 461.341 696.537 461.342 686.048 461.348C683.018 461.348 679.989 461.199 676.979 460.893L674.323 460.621C672.631 460.452 670.926 460.363 669.228 460.363C487.754 460.56 411.654 459.922 229.188 460.669C170.914 460.907 112.619 460.696 54.3379 460.717C43.7741 460.723 33.6858 459.079 22.7823 459.881C15.5541 460.418 7.9182 460.207 0.458984 460.329" stroke="#131313" stroke-width="2" stroke-miterlimit="10" stroke-linecap="round" stroke-linejoin="round"/>
	<path d="M954.906 336.335C959.295 337.687 963.568 339.202 966.781 342.768C971.238 347.728 973.724 353.543 975.042 360.037C975.803 363.774 976.469 367.327 975.742 371.213C975.47 372.687 976.245 374.603 976.224 376.45C976.102 386.056 974.037 395.309 971.788 404.562C970.946 408.013 969.967 411.444 969.954 415.092C969.913 423.828 973.649 430.078 981.401 434.161C986.401 436.797 991.571 438.284 997.236 438.237C1014.12 438.081 1031.01 437.687 1047.9 437.517C1056.78 437.429 1065.68 437.395 1074.55 436.98C1086.37 436.423 1098.18 436.688 1109.99 436.43C1123.27 436.145 1136.57 436.348 1149.82 435.703C1157.83 435.316 1165.84 435.628 1173.85 435.092C1180.95 434.616 1188.1 435.193 1195.22 434.711C1196.29 434.636 1197.37 434.609 1198.73 434.548C1198.73 430.812 1198.76 427.198 1198.72 423.583C1198.7 422.333 1198.14 421.45 1196.69 421.532C1196.1 421.559 1195.52 421.539 1194.93 421.539C1134.3 421.539 1073.67 421.545 1013.04 421.525C1008.93 421.525 1004.77 422.007 1000.74 420.662" stroke="#131313" stroke-width="2" stroke-miterlimit="10" stroke-linecap="round" stroke-linejoin="round"/>
	<path d="M983.173 141.05C985.394 147.884 985.123 154.658 983.227 161.56C981.23 168.815 978.356 175.452 972.989 180.935C971.488 182.47 970.72 184.678 970.184 186.994C968.9 192.524 969.341 198.163 968.56 203.713C968.071 207.198 966.488 208.774 962.962 208.672C961.984 208.645 960.979 208.604 960.041 208.367C957.949 207.83 956.726 208.19 955.517 210.371C954.063 212.986 950.809 213.958 948.594 215.982C946.753 217.66 944.98 219.46 942.167 219.562C940.972 219.603 940.85 220.989 940.435 221.872C940.102 222.585 940.082 223.441 939.81 224.195C938.37 228.21 935.007 229.569 931.026 228.034C925.041 225.724 920.782 221.281 917.684 216.077C913.547 209.114 910.102 201.736 906.631 194.379C903.18 187.056 904.321 179.95 906.841 173.007C909.002 167.042 912.188 161.451 914.926 155.69" stroke="#131313" stroke-width="2" stroke-miterlimit="10" stroke-linecap="round" stroke-linejoin="round"/>
	<path d="M849.615 257.578C851.864 262.164 854.282 266.675 856.307 271.362C858.664 276.824 861.375 282.103 863.909 287.476C866.028 291.974 866.837 296.926 867.774 301.797C869.67 311.607 872.869 320.887 880.138 328.088C883.168 331.09 884.826 334.739 886.463 338.421C888.535 343.101 890.614 347.653 894.377 351.328C896.483 353.387 898.623 355.628 898.019 359.195C897.76 360.71 899.296 360.9 900.58 360.948C903.555 361.07 906.49 360.812 909.364 360.051C916.612 358.128 923.745 355.873 930.464 352.463C931.144 352.116 931.701 352.109 931.388 350.968C930.41 347.381 932.19 344.474 934.615 342.259C938.759 338.468 943.908 336.722 949.5 336.376C950.165 336.335 950.865 336.736 951.551 336.926" stroke="#131313" stroke-width="2" stroke-miterlimit="10" stroke-linecap="round" stroke-linejoin="round"/>
	<path d="M976.727 365.024C984.824 351.912 995.803 341.247 1006.32 330.194C1009.99 326.328 1013.96 322.986 1019.14 320.982C1023.44 319.317 1027.37 316.648 1032.08 316.145C1039.73 315.33 1047.44 313.502 1054.92 317.014C1059.42 319.127 1063.91 321.301 1068.4 323.448" stroke="#131313" stroke-width="2" stroke-miterlimit="10" stroke-linecap="round" stroke-linejoin="round"/>
	<path d="M842.297 208.095C845.918 212.137 849.26 216.342 851.713 221.247C853.628 225.072 854.009 229.236 854.838 233.285C856.801 242.918 862.079 250.71 868.064 258.163C869.797 260.316 871.169 262.85 874.511 262.864C878.594 262.877 881.828 260.962 884.742 258.428C886.719 256.709 888.472 254.746 890.333 252.891C891.638 251.587 892.548 249.99 892.63 248.203C892.779 244.915 894.192 241.858 894.192 238.543C894.192 237.477 894.511 236.172 896.196 236.492" stroke="#131313" stroke-width="2" stroke-miterlimit="10" stroke-linecap="round" stroke-linejoin="round"/>
	<path d="M1030.91 367.075C1032.26 367.374 1033.74 365.853 1035.01 367.368C1035.09 368.978 1034.01 369.956 1032.95 370.866C1028.72 374.507 1028.52 375.465 1031.24 380.316C1032.63 379.935 1033.24 379.147 1033.63 377.632C1034.32 374.949 1035.43 374.528 1037.99 375.282C1036.41 378.638 1034.49 381.892 1034.7 385.805C1034.72 386.09 1034.59 386.437 1034.42 386.675C1031.88 390.262 1033.89 393.366 1035.65 396.308C1036.94 398.461 1038.02 400.594 1038.57 403.06C1038.9 404.521 1038.8 405.499 1037.68 406.62C1035.52 408.781 1035.33 411.43 1036.48 414.195C1037.62 416.939 1040.04 417.456 1042.63 417.714C1048.86 418.339 1050.29 413.93 1049.02 409.229C1048.47 407.177 1047.4 405.261 1047.32 403.067" stroke="#131313" stroke-width="2" stroke-miterlimit="10" stroke-linecap="round" stroke-linejoin="round"/>
	<path d="M854.302 107.674C854.213 106.607 855.022 106.349 855.769 106.227C866.143 104.495 873.119 98.034 878.921 89.8275C883.31 83.6183 887.827 77.5925 895.28 74.5286C899.444 72.8167 903.568 72.674 907.902 73.102C914.757 73.7813 920.191 77.4294 925.436 81.3764C928.017 83.3194 930.205 85.7922 929.573 89.5218" stroke="#131313" stroke-width="2" stroke-miterlimit="10" stroke-linecap="round" stroke-linejoin="round"/>
	<path d="M1017.73 288.611C1019.19 285.697 1022.31 285.065 1024.8 283.699C1030.85 280.384 1036.79 276.872 1043.47 274.718C1046.4 273.767 1048.5 274.351 1050.84 275.717C1054.72 277.993 1058.18 280.975 1062.82 281.953C1065.75 282.572 1068.7 282.993 1071.62 283.625C1078.23 285.044 1077.87 288.543 1076.24 292.972C1074.63 297.347 1074.64 301.641 1076.1 305.853C1077.02 308.502 1078.05 311.124 1078.93 313.794C1079.07 314.236 1078.95 314.766 1078.95 315.255C1076.92 316.715 1075.18 315.411 1073.35 314.501C1073.98 312.15 1074.83 309.684 1074.85 307.055" stroke="#131313" stroke-width="2" stroke-miterlimit="10" stroke-linecap="round" stroke-linejoin="round"/>
	<path d="M931.332 352.728C932.935 356.321 935.218 359.243 938.275 361.906C944.505 367.327 948.024 374.562 949.756 382.599C950.51 386.077 950.924 389.623 951.549 393.128C952.283 397.259 955.123 398.679 959.165 397.252C966.074 394.813 969.253 389.263 971.441 382.877C972.528 379.691 973.377 376.43 974.43 373.237C974.572 372.796 974.756 372.028 975.564 372.055" stroke="#131313" stroke-width="2" stroke-miterlimit="10" stroke-linecap="round" stroke-linejoin="round"/>
	<path d="M861.041 283.047C859.832 284.121 860.79 285.201 861.048 286.267C862.115 290.697 863.439 295.085 863.1 299.739C862.862 303 861.727 305.846 858.664 307.273C857.108 308 855.165 307.857 853.433 308.244C849.975 309.012 849.16 310.459 851.381 313.495C854.52 317.782 858.181 321.614 860.838 326.328C865.369 334.372 864.037 341.743 859.241 348.896C856.891 352.402 854.54 355.982 850.81 358.332C849.778 358.984 848.895 359.976 848.439 361.22" stroke="#131313" stroke-width="2" stroke-miterlimit="10" stroke-linecap="round" stroke-linejoin="round"/>
	<path d="M1016.86 299.739C1020.04 299.256 1022.51 297.184 1025.36 295.941C1030.86 293.543 1036.29 290.955 1042.06 289.243C1043.53 288.808 1045.17 288.951 1046.63 288.842C1047.52 290.568 1046.48 291.471 1045.84 292.409C1042.68 296.987 1038.54 300.737 1034.99 304.983C1033.75 306.457 1032.6 307.952 1031.8 309.691C1031.46 310.445 1031.14 311.301 1031.81 312.015C1032.55 312.816 1033.19 311.974 1033.84 311.729C1037.05 310.534 1040.02 308.815 1042.9 307.015C1047.68 304.012 1052.78 302.313 1058.45 302.368" stroke="#131313" stroke-width="2" stroke-miterlimit="10" stroke-linecap="round" stroke-linejoin="round"/>
	<path d="M1164.76 406.6C1165.12 408.896 1164 411.029 1164.06 413.339C1164.09 414.297 1163.46 415.798 1161.84 415.982C1157.81 416.43 1153.89 416.022 1150.45 413.862C1148.05 412.354 1147.87 409.093 1148.89 405.995C1150.19 402.055 1153.2 399.351 1155.38 396.056C1156.56 394.276 1157.77 392.544 1157.77 390.207C1157.79 387.598 1157.22 385.418 1154.79 384.005C1153.25 384.256 1152.33 385.01 1152.46 386.688C1152.63 388.733 1152.27 390.778 1152.69 392.85C1152.97 394.229 1153.21 395.927 1151.29 396.641C1149.74 397.218 1146.9 396.151 1145.99 394.901C1143.91 392.055 1144.83 388.848 1145.61 386.151C1146.5 383.06 1146 380.262 1145.74 377.32C1145.35 373.135 1144.3 368.964 1145.17 364.738C1145.45 363.387 1145.16 361.559 1147.49 361.484C1149.49 361.416 1150.29 362.605 1151.01 364.147C1152.34 366.987 1152.84 369.745 1151.96 372.959C1150.29 379.052 1149.27 385.302 1149.55 391.675C1149.62 393.285 1148.58 394.725 1148.95 396.362" stroke="#131313" stroke-width="2" stroke-miterlimit="10" stroke-linecap="round" stroke-linejoin="round"/>
	<path d="M927.521 90.3982C923.105 89.4403 918.785 89.1346 914.342 92.0014C918.003 95.1672 921.516 93.8629 924.858 92.9457C925.945 92.6468 927.569 92.4702 927.84 90.6903C927.969 89.8411 929.111 89.814 929.552 89.8683C938.275 91.0639 947.086 91.7908 955.075 96.1862C959.939 98.8628 964.104 102.368 967.861 106.268C973.907 112.538 979.233 119.413 983.194 127.266C984.437 129.732 985.32 132.293 986.04 134.909C986.787 137.599 985.748 139.257 982.861 140.751" stroke="#131313" stroke-width="2" stroke-miterlimit="10" stroke-linecap="round" stroke-linejoin="round"/>
	<path d="M819.744 189.943C824.656 185.201 827.883 179.257 831.504 173.57C835.512 167.273 837.842 160.289 840.192 153.326C842.135 147.579 845.79 143.883 851.347 141.566C856.531 139.406 861.809 137.511 867.224 136.213C869.751 135.609 872.509 135.602 875.097 134.895" stroke="#131313" stroke-width="2" stroke-miterlimit="10" stroke-linecap="round" stroke-linejoin="round"/>
	<path d="M908.486 276.607C906.041 279.807 905.64 283.774 904.784 287.463C903.378 293.502 902.365 299.644 901.992 305.88C901.639 311.654 901.618 317.408 902.087 323.156C902.488 328.054 903.493 332.904 903.69 337.802C903.792 340.316 903.439 342.87 903.806 345.411" stroke="#131313" stroke-width="2" stroke-miterlimit="10" stroke-linecap="round" stroke-linejoin="round"/>
	<path d="M931.918 351.267C934.228 351.349 935.783 349.732 937.448 348.584C941.932 345.499 946.442 342.395 950.6 338.903C953.793 336.22 957.237 333.876 960.362 331.111C963.895 327.986 967.781 325.255 971.442 322.266C975.199 319.202 978.983 316.158 982.55 312.877C986.32 309.413 989.717 305.561 993.997 302.653C999.506 298.903 1005.34 296.104 1012.16 295.934C1013.94 295.894 1015.25 296.43 1016.01 298.258C1016.69 299.875 1016.61 300.717 1014.83 301.546C1010.25 303.679 1005.97 306.376 1001.95 309.44C1001.04 310.133 999.819 310.839 999.778 312.504C1002.73 313.434 1005.25 312.599 1007.79 311.179C1011.59 309.039 1014.74 306.444 1015.39 301.79" stroke="#131313" stroke-width="2" stroke-miterlimit="10" stroke-linecap="round" stroke-linejoin="round"/>
	<path d="M938.362 130.799C938.396 127.789 936.216 125.717 935.108 123.204C932.391 117.042 930.441 110.636 928.723 104.155C928.349 102.742 929.769 101.832 931.331 102.409C933.913 103.36 936.134 104.95 938.356 106.512C945.794 111.75 952.996 117.382 960.713 122.171C964.626 124.603 968.281 127.436 972.343 129.63" stroke="#131313" stroke-width="2" stroke-miterlimit="10" stroke-linecap="round" stroke-linejoin="round"/>
	<path d="M1107.94 382.884C1106.22 384.582 1104.91 386.641 1102.7 387.925C1100.8 389.039 1101.05 390.526 1102.96 391.967C1104.89 393.427 1107.38 393.645 1109.42 394.759C1109.44 396.675 1107.95 397.028 1106.76 397.49C1104.39 398.407 1103.32 399.637 1103.72 402.517C1104.16 405.567 1103.74 408.753 1103.52 411.865C1103.33 414.514 1104.09 416.07 1106.48 416.206C1109.81 416.396 1113.18 416.45 1116.44 415.397C1118.23 414.813 1119.17 413.971 1118.53 411.858C1117.94 409.867 1117.51 407.789 1117.37 405.717C1117.24 403.76 1117.23 401.824 1118.11 399.827C1119.34 397.028 1120.03 393.944 1117.9 391.084" stroke="#131313" stroke-width="2" stroke-miterlimit="10" stroke-linecap="round" stroke-linejoin="round"/>
	<path d="M896.475 237.082C899.117 243.896 901.801 250.69 904.939 257.3C906.461 260.506 908.947 263.156 909.973 266.648C911.549 272.014 912.725 277.531 912.779 283.054C912.962 301.247 916.998 318.706 921.923 336.056C922.86 339.358 924.192 342.558 924.593 346.002" stroke="#131313" stroke-width="2" stroke-miterlimit="10" stroke-linecap="round" stroke-linejoin="round"/>
	<path d="M856.354 353.903C857.957 354.725 859.261 353.421 860.742 353.258C865.98 352.68 870.722 354.372 875.375 356.287C879.241 357.884 882.875 359.983 885.355 363.563C888.561 368.19 888.425 373.305 887.379 378.488C886.775 381.484 885.959 384.44 884.811 387.293C884.587 387.85 884.037 388.638 884.764 389.324" stroke="#131313" stroke-width="2" stroke-miterlimit="10" stroke-linecap="round" stroke-linejoin="round"/>
	<path d="M891.496 160.371C892.535 164.433 893.255 168.604 895.857 172.103C896.38 172.81 896.87 173.441 897.861 174.046C899.967 171.288 900.416 168.285 899.682 165.058C899.077 162.402 898.255 159.8 897.664 157.144C896.91 153.774 899.159 149.875 902.338 148.971C903.14 148.747 904.003 149.019 904.662 149.542C905.871 150.507 905.504 152.056 905.164 153.007C904.295 155.418 902.148 156.458 899.709 157.178C891.476 159.61 883.276 162.144 875.11 164.8C873.058 165.466 871.143 166.621 869.247 167.701C865.64 169.759 863.989 173.224 863.106 177.055C861.408 184.433 859.111 191.519 854.295 197.545" stroke="#131313" stroke-width="2" stroke-miterlimit="10" stroke-linecap="round" stroke-linejoin="round"/>
	<path d="M942.168 101.818C943.241 100.473 944.423 101.573 945.375 101.872C961.645 106.967 972.066 118.544 979.62 133.163C980.823 135.486 982.399 137.708 982.582 140.466" stroke="#131313" stroke-width="2" stroke-miterlimit="10" stroke-linecap="round" stroke-linejoin="round"/>
	<path d="M853.425 198.727C849.96 202.32 845.959 205.221 841.727 207.884C840.185 207.538 839.736 206.07 838.785 205.174C840.225 202.667 842.318 200.724 844.356 198.734C848.289 194.895 849.505 194.787 853.71 198.455C863.337 206.859 871.455 216.41 877.263 227.952C879.926 233.238 882.868 238.475 886.455 243.285C887.093 244.141 887.467 244.902 888.574 244.99" stroke="#131313" stroke-width="2" stroke-miterlimit="10" stroke-linecap="round" stroke-linejoin="round"/>
	<path d="M1011.88 292.123C1015 289.154 1019.31 289.229 1022.99 287.701C1027.88 285.669 1032.88 283.998 1037.91 282.354C1045.06 280.017 1051.75 281.131 1058.43 283.679C1059.53 284.1 1061.02 284.012 1061.68 285.418C1060.9 285.989 1060.11 286.566 1059.32 287.143" stroke="#131313" stroke-width="2" stroke-miterlimit="10" stroke-linecap="round" stroke-linejoin="round"/>
	<path d="M1137.52 382.3C1137.82 388.91 1136.83 395.221 1133.45 401.056C1132.4 402.87 1133.35 404.677 1135.48 405.431C1139.17 406.736 1142.68 405.825 1145.99 404.202C1147.46 403.482 1148.21 401.906 1148.38 400.166C1148.49 399.086 1148.76 398.02 1148.95 396.946" stroke="#131313" stroke-width="2" stroke-miterlimit="10" stroke-linecap="round" stroke-linejoin="round"/>
	<path d="M1008.07 384.351C1005.59 385.397 1002.99 384.766 1000.45 384.935C998.793 385.051 997.101 384.657 995.301 385.282C994.832 390.044 995.362 394.813 996.062 399.575C996.768 404.372 997.04 409.236 998.399 413.923" stroke="#131313" stroke-width="2" stroke-miterlimit="10" stroke-linecap="round" stroke-linejoin="round"/>
	<path d="M886.522 91.8588C886.257 92.8574 885.598 93.6387 885.096 94.5151C883.411 97.4295 881.672 100.357 879.905 103.17C877.052 107.708 873.003 111.397 868.418 114.488C864.742 116.961 860.673 118.15 856.685 119.766C851.692 121.791 847.059 120.439 842.297 119.379" stroke="#131313" stroke-width="2" stroke-miterlimit="10" stroke-linecap="round" stroke-linejoin="round"/>
	<path d="M1126.1 371.763C1125.88 372.836 1125.28 373.699 1126.01 375.031C1127.29 377.34 1127.98 379.963 1126.68 382.592C1124.28 387.435 1126.17 392.177 1127 396.94C1127.26 398.427 1127.91 399.847 1128.11 401.342C1128.36 403.217 1127.98 404.535 1125.53 404.956C1122.89 405.411 1120.19 405.309 1117.6 406.022" stroke="#131313" stroke-width="2" stroke-miterlimit="10" stroke-linecap="round" stroke-linejoin="round"/>
	<path d="M1051.12 402.795C1048.78 402.456 1046.43 403.156 1044.06 401.987C1040.64 400.302 1038.82 398.047 1038.82 394.304C1038.82 391.831 1038.77 389.406 1039.61 386.953C1040.18 385.255 1041.25 385.377 1042.32 385.567C1044.08 385.88 1046.35 388.91 1046.42 390.791C1046.48 392.354 1046.23 393.889 1047.56 395.228C1048.46 396.131 1048.35 397.422 1047.93 398.713C1047.55 399.922 1047.5 401.24 1047.31 402.503" stroke="#131313" stroke-width="2" stroke-miterlimit="10" stroke-linecap="round" stroke-linejoin="round"/>
	<path d="M1059.61 288.319C1060.66 289.277 1061.94 288.801 1063.12 288.896C1064.6 289.019 1066.03 288.91 1067.54 289.419C1071.3 290.69 1071.89 291.349 1071.03 295.051C1068.68 304.983 1059.5 309.732 1051.41 307.633C1051 307.524 1050.62 307.273 1050.23 307.082C1051.02 304.82 1053.94 305.228 1054.92 303.251" stroke="#131313" stroke-width="2" stroke-miterlimit="10" stroke-linecap="round" stroke-linejoin="round"/>
	<path d="M892.087 141.927C891.795 141.369 891.394 141.023 891.748 140.147C895.593 130.656 898.813 120.908 903.528 111.77C903.813 111.22 904.261 110.765 904.744 110.126C906.245 111.254 906.136 112.98 906.401 114.413C907.909 122.653 911.265 129.997 916.707 136.356C919.492 139.61 923.195 141.417 927.25 142.477C929.248 143 931.055 141.322 933.099 141.634" stroke="#131313" stroke-width="2" stroke-miterlimit="10" stroke-linecap="round" stroke-linejoin="round"/>
	<path d="M861.626 158.91C858.019 157.443 855.003 154.732 851.199 153.7C849.215 167.592 841.144 176.926 829.989 184.073C827.809 185.473 825.879 187.47 822.965 187.307" stroke="#131313" stroke-width="2" stroke-miterlimit="10" stroke-linecap="round" stroke-linejoin="round"/>
	<path d="M913.467 100.643C912.692 107.069 911.51 113.489 912.896 119.963C913.759 123.985 915.552 127.565 918.127 130.819C921.3 134.834 924.859 138.306 929.56 140.493C929.968 140.683 930.573 141.064 930.457 141.777" stroke="#131313" stroke-width="2" stroke-miterlimit="10" stroke-linecap="round" stroke-linejoin="round"/>
	<path d="M1167.69 394.304C1169.87 396.029 1171.05 398.223 1171.56 401.029C1172.22 404.664 1171.11 406.525 1167.4 406.559C1165.44 406.579 1163.44 406.423 1161.53 405.73C1158.95 404.793 1157.68 402.931 1158.35 400.459C1159.2 397.279 1160.23 394.025 1162.23 391.464C1163.51 389.84 1163.52 388.339 1162.92 387.021C1161.23 383.244 1160.6 379.365 1160.62 375.275C1160.65 372.463 1161.57 370.2 1163.76 368.441C1168.25 372.524 1167.85 382.911 1163.14 387.279" stroke="#131313" stroke-width="2" stroke-miterlimit="10" stroke-linecap="round" stroke-linejoin="round"/>
	<path d="M916.977 216.879C912.894 219.229 908.418 220.683 904.077 222.402C896.522 225.391 891.481 230.602 889.844 238.563C889.246 241.457 888.098 244.548 889.45 247.619" stroke="#131313" stroke-width="2" stroke-miterlimit="10" stroke-linecap="round" stroke-linejoin="round"/>
	<path d="M905.266 182.334C907.107 186.383 910.204 189.488 913.526 192.219C916.685 194.82 919.498 197.592 921.706 201.05C923.058 203.17 923.995 205.466 924.511 207.823C924.973 209.943 924.104 212.096 922.507 213.618C921.353 214.725 920.082 215.839 918.445 216.295" stroke="#131313" stroke-width="2" stroke-miterlimit="10" stroke-linecap="round" stroke-linejoin="round"/>
	<path d="M887.692 121.431C888.079 121.431 888.629 121.601 888.84 121.404C894.057 116.594 897.93 110.867 900.267 104.148C900.389 103.802 900.28 103.374 900.28 102.817C898.487 102.443 896.965 102.898 895.586 104.141C890.79 108.469 888.956 114.189 887.298 120.228C884.289 131.207 882.794 142.837 875.348 152.137C872.937 155.147 870.124 157.837 867.454 160.636C867.217 160.88 866.673 160.982 866.306 160.928C863.575 160.527 861.924 162.253 860.138 163.856C857.223 166.471 855.029 169.692 852.454 172.586C847.869 177.742 843.494 183.21 837.339 186.77C836.143 187.463 835.355 188.863 834.377 189.936" stroke="#131313" stroke-width="2" stroke-miterlimit="10" stroke-linecap="round" stroke-linejoin="round"/>
	<path d="M886.816 152.762C887.795 150.615 888.854 148.503 889.724 146.315C891.382 142.157 894.812 139.63 898.277 137.307C901.694 135.018 904.337 135.765 906.728 138.999C910.227 143.727 913.107 148.876 916.945 153.373C919.955 156.899 923.324 157.681 927.244 155.126C931.11 152.599 934.289 149.277 937.747 146.288C942.754 141.96 948.508 139.902 955.05 139.562C962.523 139.175 969.894 140.242 977.312 140.738C979.16 140.86 981.021 140.758 982.876 140.758" stroke="#131313" stroke-width="2" stroke-miterlimit="10" stroke-linecap="round" stroke-linejoin="round"/>
	<path d="M1089.19 383.176C1087.74 381.546 1086.18 380.065 1083.92 379.671C1082.28 379.378 1081.01 379.582 1080.98 381.715C1080.95 383.536 1081.12 385.431 1081.94 386.953C1084.43 391.613 1083.53 395.465 1080.17 399.331C1077.45 402.456 1077.61 405.323 1079.19 408.386C1081.47 412.823 1084.93 412.388 1090.66 411.009C1093.32 410.363 1094.42 407.605 1096.81 406.607" stroke="#131313" stroke-width="2" stroke-miterlimit="10" stroke-linecap="round" stroke-linejoin="round"/>
	<path d="M1009.83 379.956C1009.56 382.51 1008.92 385.071 1007.7 387.232C1004.77 392.429 1005.75 397.225 1010 402.116C1008.1 404.535 1008.35 407.483 1008.35 410.404C1008.35 411.946 1009.04 413.06 1010.41 413.604C1015.27 415.526 1020.17 416.015 1025.36 414.589C1028.54 413.713 1030 411.702 1030.89 408.93C1031.69 406.389 1032.1 404.073 1030.78 401.246C1029.32 398.135 1030.57 394.664 1032.37 391.661" stroke="#131313" stroke-width="2" stroke-miterlimit="10" stroke-linecap="round" stroke-linejoin="round"/>
	<path d="M1020.95 383.176C1019.84 381.906 1018.34 381.974 1016.85 381.994C1016.18 382.001 1015.62 382.001 1015.07 382.565C1014.02 383.624 1012.77 389.847 1013.65 391.063C1016.54 395.071 1015.55 399.236 1014.19 403.366C1013.08 406.722 1011.35 409.908 1011.87 413.624" stroke="#131313" stroke-width="2" stroke-miterlimit="10" stroke-linecap="round" stroke-linejoin="round"/>
	<path d="M913.465 105.33C916.04 107.654 916.841 111.071 918.621 113.897C923.587 121.757 930.53 127.035 938.635 131.132C939.599 131.621 940.747 132.13 940.992 133.441" stroke="#131313" stroke-width="2" stroke-miterlimit="10" stroke-linecap="round" stroke-linejoin="round"/>
	<path d="M1061.66 389.623C1060.01 390.472 1058.37 389.351 1056.68 389.582C1054.1 389.942 1053.53 390.92 1054.6 393.149C1055.52 395.044 1057.17 396.267 1058.78 397.15C1064.47 400.268 1065.2 405.37 1064.83 410.988C1064.78 411.675 1064.42 412.483 1063.13 412.524C1059.78 412.639 1056.53 411.647 1053.17 411.77C1051.91 411.817 1051.03 410.486 1051.11 408.937C1051.28 405.934 1050.5 402.755 1053.42 400.391C1054.34 399.643 1053.62 398.101 1053.76 396.939" stroke="#131313" stroke-width="2" stroke-miterlimit="10" stroke-linecap="round" stroke-linejoin="round"/>
	<path d="M1125.22 373.516C1121.58 374.202 1118.68 372.897 1117.62 369.997C1117.02 368.38 1117.05 366.688 1118.21 365.336C1119.57 363.76 1121.5 363.21 1123.44 363.618C1125.11 363.964 1125.55 365.452 1125.52 367.075C1125.49 368.59 1125.29 370.166 1126.39 371.464C1126.43 371.512 1126.6 371.505 1126.67 371.464C1126.79 371.396 1126.87 371.274 1126.97 371.179" stroke="#131313" stroke-width="2" stroke-miterlimit="10" stroke-linecap="round" stroke-linejoin="round"/>
	<path d="M845.227 107.083C848.691 107.905 852.285 107.355 855.784 108.204C860.091 109.257 864.255 108.102 868.372 106.798C872.428 105.507 876.171 103.72 879.255 100.69C879.343 100.602 880.179 99.8682 880.668 100.636" stroke="#131313" stroke-width="2" stroke-miterlimit="10" stroke-linecap="round" stroke-linejoin="round"/>
	<path d="M1090.66 363.563C1088.98 363.597 1087.32 363.529 1085.67 364.107C1083.79 364.766 1082.88 366.349 1083.63 368.244C1085.12 372.035 1088.61 374.392 1092.71 374.392C1094.18 374.392 1095.65 374.392 1096.9 374.392C1098.17 376.267 1096.35 377.164 1096.17 378.482C1095.82 381.036 1096.74 383.373 1097.09 385.812C1097.6 389.419 1097.79 392.959 1095.97 396.376C1095.12 397.965 1094.31 399.705 1094.46 401.62C1094.78 405.465 1097.12 407.069 1101.19 406.308" stroke="#131313" stroke-width="2" stroke-miterlimit="10" stroke-linecap="round" stroke-linejoin="round"/>
	<path d="M885.348 124.359C883.154 124.338 881.652 125.969 879.818 126.777C874.546 129.087 869.044 130.527 863.378 130.663C860.273 130.738 857.135 130.459 854.01 130.799" stroke="#131313" stroke-width="2" stroke-miterlimit="10" stroke-linecap="round" stroke-linejoin="round"/>
	<path d="M941.293 101.234C948.127 107.674 954.975 114.1 961.775 120.575C962.597 121.356 963.895 121.947 963.548 123.482" stroke="#131313" stroke-width="2" stroke-miterlimit="10" stroke-linecap="round" stroke-linejoin="round"/>
	<path d="M867.771 160.955C870.163 162.524 872.921 162.66 875.346 161.736C878.824 160.405 882.432 159.535 885.964 158.441C887.921 157.837 889.062 156.22 890.903 155.683" stroke="#131313" stroke-width="2" stroke-miterlimit="10" stroke-linecap="round" stroke-linejoin="round"/>
	<path d="M870.117 136.655C869.472 138.611 867.427 139.474 866.564 141.322C865.382 143.863 864.554 146.451 864.567 149.243C864.581 152.531 863.847 155.636 862.502 158.611" stroke="#131313" stroke-width="2" stroke-miterlimit="10" stroke-linecap="round" stroke-linejoin="round"/>
	<path d="M1127.27 370.588C1128.26 370.248 1127.75 369.161 1128.39 368.488C1131.05 365.669 1134.36 366.308 1135.8 369.99C1136.34 371.382 1135.97 371.865 1134.61 372.388C1131.41 373.618 1130.46 375.187 1131.08 377.612C1131.87 380.717 1134.29 382.191 1137.82 381.709" stroke="#131313" stroke-width="2" stroke-miterlimit="10" stroke-linecap="round" stroke-linejoin="round"/>
	<path d="M854.301 169.155C851.557 169.297 850.062 171.532 848.194 173.013C844.104 176.247 840.531 180.011 837.555 184.345C836.971 185.194 837.141 185.928 837.025 186.723" stroke="#131313" stroke-width="2" stroke-miterlimit="10" stroke-linecap="round" stroke-linejoin="round"/>
	<path d="M1073.38 314.963C1071.63 318.726 1069.2 322.15 1067.83 326.097C1066.71 329.324 1067.99 332.171 1069.61 334.847C1070.05 335.561 1071.05 335.934 1072.12 336.695C1068.72 339.413 1070.06 342.34 1070.47 345.119C1070.82 347.497 1072.96 347.571 1074.54 347.381C1078.21 346.94 1081.87 346.152 1084.34 342.789C1082.95 340.866 1084.09 337.809 1081.13 336.552C1083.65 332.721 1081.27 329.997 1078.94 327.259" stroke="#131313" stroke-width="2" stroke-miterlimit="10" stroke-linecap="round" stroke-linejoin="round"/>
	<path d="M1075.43 364.147C1076.11 364.942 1074.82 365.465 1075.14 366.199C1077.28 371.084 1076.03 375.954 1075.16 380.846C1074.98 381.885 1075.14 382.986 1075.14 384.059" stroke="#131313" stroke-width="2" stroke-miterlimit="10" stroke-linecap="round" stroke-linejoin="round"/>
	<path d="M854.01 121.431C856.904 122.538 859.859 121.73 862.794 121.811C866.258 121.906 869.261 119.916 872.76 120.113C873.881 120.174 875.097 118.503 876.265 117.626" stroke="#131313" stroke-width="2" stroke-miterlimit="10" stroke-linecap="round" stroke-linejoin="round"/>
	<path d="M1117.31 376.444C1117.1 380.099 1118.53 383.597 1118.23 387.279C1118.09 389.005 1117.94 390.54 1116.76 391.994C1114.85 394.351 1113.96 397.279 1113.26 400.173C1112.37 403.801 1113.43 405.024 1117.01 405.724" stroke="#131313" stroke-width="2" stroke-miterlimit="10" stroke-linecap="round" stroke-linejoin="round"/>
	<path d="M1163 391.084C1165.71 395.812 1165.93 400.832 1164.76 406.016" stroke="#131313" stroke-width="2" stroke-miterlimit="10" stroke-linecap="round" stroke-linejoin="round"/>
	<path d="M998.99 414.799C1000.59 417.979 999.989 421.41 1000.17 424.752C1000.36 428.366 1000.55 431.973 1000.75 435.588" stroke="#131313" stroke-width="2" stroke-miterlimit="10" stroke-linecap="round" stroke-linejoin="round"/>
	<path d="M1027.98 367.952C1027.35 364.963 1028.92 362.775 1030.29 360.513C1032.75 360.961 1032.36 362.796 1031.99 363.815C1031.31 365.724 1030.99 368.298 1027.99 368.244" stroke="#131313" stroke-width="2" stroke-miterlimit="10" stroke-linecap="round" stroke-linejoin="round"/>
	<path d="M1097.69 375.275C1099.35 373.957 1101.16 373.461 1103.26 374.093C1105.64 374.806 1106.45 375.927 1106.18 378.495C1106.02 379.956 1106.47 381.124 1107.65 382.007" stroke="#131313" stroke-width="2" stroke-miterlimit="10" stroke-linecap="round" stroke-linejoin="round"/>
	<path d="M1024.17 386.403C1023.41 392.585 1024.96 398.685 1024.76 404.847C1024.74 405.513 1024.84 406.036 1025.31 406.634C1027.01 408.746 1027.91 411.043 1026.22 413.631" stroke="#131313" stroke-width="2" stroke-miterlimit="10" stroke-linecap="round" stroke-linejoin="round"/>
	<path d="M872.752 120.554C870.096 124.984 865.578 126.981 861.325 129.325C860.993 129.508 860.721 129.644 860.748 130.065" stroke="#131313" stroke-width="2" stroke-miterlimit="10" stroke-linecap="round" stroke-linejoin="round"/>
	<path d="M908.487 273.971C907.876 276.457 910.104 278.197 910.124 280.703C910.138 282.979 911.211 285.296 911.17 287.735C911.164 288.292 911.626 288.937 912.298 289.195" stroke="#131313" stroke-width="2" stroke-miterlimit="10" stroke-linecap="round" stroke-linejoin="round"/>
	<path d="M1062.25 384.351C1066.23 383.258 1070.24 383.794 1074.26 384.025C1076.31 384.141 1077.09 385.418 1077.77 386.987" stroke="#131313" stroke-width="2" stroke-miterlimit="10" stroke-linecap="round" stroke-linejoin="round"/>
	<path d="M1016.27 361.512C1017.24 362.972 1018.16 364.48 1019.22 365.887C1019.68 366.498 1019.62 367.191 1019.44 367.646C1018.51 370.044 1018.85 373.298 1015.39 374.1C1014.43 374.324 1014.17 375.622 1013.04 375.567" stroke="#131313" stroke-width="2" stroke-miterlimit="10" stroke-linecap="round" stroke-linejoin="round"/>
	<path d="M1012.75 357.707C1012.72 358.808 1013.11 360.16 1012.14 360.893C1009.26 363.06 1009.3 365.642 1010.71 368.543" stroke="#131313" stroke-width="2" stroke-miterlimit="10" stroke-linecap="round" stroke-linejoin="round"/>
	<path d="M1073.08 314.08C1071.19 313.672 1070.5 312.463 1070.41 310.567C1070.31 308.4 1071.84 307.381 1073.11 306.206C1073.82 305.54 1074.84 307.735 1075.72 306.172" stroke="#131313" stroke-width="2" stroke-miterlimit="10" stroke-linecap="round" stroke-linejoin="round"/>
	<path d="M1010.12 369.127C1007.25 372.388 1008.64 375.893 1009.53 379.372" stroke="#131313" stroke-width="2" stroke-miterlimit="10" stroke-linecap="round" stroke-linejoin="round"/>
	<path d="M1088.9 372.639C1089.48 371.953 1090.06 371.26 1090.66 370.594C1091.72 369.419 1093.47 369.249 1094.38 369.834C1095.68 370.669 1097.75 371.743 1096.51 374.1" stroke="#131313" stroke-width="2" stroke-miterlimit="10" stroke-linecap="round" stroke-linejoin="round"/>
	<path d="M1029.15 383.475C1028.24 387.565 1026.29 391.729 1030.04 395.472C1030.08 395.52 1030.23 395.479 1030.32 395.479" stroke="#131313" stroke-width="2" stroke-miterlimit="10" stroke-linecap="round" stroke-linejoin="round"/>
	<path d="M1027.11 369.127C1026.79 369.48 1026.46 369.664 1025.94 369.745C1022.76 370.241 1022.35 370.88 1022.69 374.107C1022.76 374.725 1022.52 375.37 1022.42 376.009" stroke="#131313" stroke-width="2" stroke-miterlimit="10" stroke-linecap="round" stroke-linejoin="round"/>
	<path d="M1068.99 324.623C1069.77 325.207 1070.53 325.839 1071.34 326.362C1071.96 326.756 1072.67 327.021 1073.25 327.3C1075.07 326.675 1075.09 325.058 1075.4 323.733C1075.92 321.464 1077.04 320.241 1079.53 320.493C1080.93 320.635 1081.86 321.369 1082.11 322.578C1082.35 323.726 1082.54 325.221 1080.98 325.751C1080.1 326.05 1079.55 327.327 1078.36 326.668" stroke="#131313" stroke-width="2" stroke-miterlimit="10" stroke-linecap="round" stroke-linejoin="round"/>
	<path d="M1090.07 374.691C1091.58 377.639 1091.61 380.262 1089.66 383.291C1088.75 384.718 1087.72 386.702 1087.73 388.747" stroke="#131313" stroke-width="2" stroke-miterlimit="10" stroke-linecap="round" stroke-linejoin="round"/>
	<path d="M1015.68 358.292C1016.54 360.703 1015.78 363.108 1013.63 364.732C1012.96 365.234 1012.26 365.71 1011.58 366.199" stroke="#131313" stroke-width="2" stroke-miterlimit="10" stroke-linecap="round" stroke-linejoin="round"/>
	<path d="M1017.73 369.127C1016.97 368.604 1016.21 368.074 1015.51 367.592C1012.39 368.984 1012.03 372.435 1012.45 374.331C1013.1 377.232 1011.33 377.931 1010.12 379.372" stroke="#131313" stroke-width="2" stroke-miterlimit="10" stroke-linecap="round" stroke-linejoin="round"/>
	<path d="M1079.82 362.687C1079.06 364.575 1077.49 364.84 1075.72 364.739" stroke="#131313" stroke-width="2" stroke-miterlimit="10" stroke-linecap="round" stroke-linejoin="round"/>
	<path d="M1009.82 382.592C1011.19 382.884 1012.56 383.176 1013.93 383.468" stroke="#131313" stroke-width="2" stroke-miterlimit="10" stroke-linecap="round" stroke-linejoin="round"/>
	<path d="M1012.46 378.203C1013.33 379.555 1014.83 380.425 1015.39 382.007" stroke="#131313" stroke-width="2" stroke-miterlimit="10" stroke-linecap="round" stroke-linejoin="round"/>
	<path d="M891.794 153.054C890.442 155.269 892.052 157.348 892.086 159.494" stroke="#131313" stroke-width="2" stroke-miterlimit="10" stroke-linecap="round" stroke-linejoin="round"/>
	<path d="M895.014 232.395C895.564 233.53 895.387 234.725 895.306 235.907" stroke="#131313" stroke-width="2" stroke-miterlimit="10" stroke-linecap="round" stroke-linejoin="round"/>
	<path d="M1027.69 386.104C1026.05 387.082 1024.78 386.539 1023.57 385.248C1023.06 384.711 1022.99 383.57 1021.84 383.76" stroke="#131313" stroke-width="2" stroke-miterlimit="10" stroke-linecap="round" stroke-linejoin="round"/>
	<path d="M1059.03 384.059C1058.89 383.142 1059.41 382.551 1060.17 382.945C1061.08 383.42 1062.34 383.747 1061.76 385.554C1061.33 386.912 1061.12 388.679 1062.54 389.915" stroke="#131313" stroke-width="2" stroke-miterlimit="10" stroke-linecap="round" stroke-linejoin="round"/>
	<path d="M1198.74 434.548L1231.41 445.459C1261.03 455.35 1292.05 460.397 1323.28 460.411C1474 460.479 1551.91 459.997 1718.68 460.683C1776.95 460.921 1835.25 460.71 1893.53 460.73C1904.09 460.737 1914.18 459.093 1925.09 459.895C1932.31 460.431 1939.95 460.221 1947.41 460.343" stroke="#131313" stroke-width="2" stroke-miterlimit="10" stroke-linecap="round" stroke-linejoin="round"/>
	<path d="M2787.25 208.095C2783.2 210.608 2778.54 211.43 2774.07 212.789C2757.96 217.701 2744.69 226.478 2736.33 241.492C2731.45 250.262 2728.26 259.637 2726.19 269.548C2723.45 282.626 2720.91 295.744 2718.12 308.808C2714.22 327.103 2710.04 345.35 2704.58 363.244C2700.97 375.071 2696.59 386.62 2691.31 397.877C2685.11 411.09 2679.53 424.63 2674.33 438.271C2671.72 445.098 2669.28 452.089 2667.8 459.31C2666.95 461.362 2666.1 461.369 2664.53 461.362C2654.04 461.341 2643.54 461.342 2633.05 461.348C2630.02 461.348 2626.99 461.199 2623.98 460.893L2621.33 460.621C2619.64 460.452 2617.93 460.363 2616.23 460.363C2434.76 460.56 2358.66 459.922 2176.19 460.669C2117.92 460.907 2059.62 460.696 2001.34 460.717C1990.78 460.723 1980.69 459.079 1969.79 459.881C1962.56 460.418 1954.92 460.207 1947.46 460.329" stroke="#131313" stroke-width="2" stroke-miterlimit="10" stroke-linecap="round" stroke-linejoin="round"/>
	</g>
	</svg>
	