<svg width="2075" height="598" viewBox="0 0 2075 598" fill="none" xmlns="http://www.w3.org/2000/svg">
	<mask id="mask0_162_808" style="mask-type:alpha" maskUnits="userSpaceOnUse" x="0" y="68" width="2075" height="394">
	<rect x="0.960938" y="68.6548" width="2073.36" height="393.345" fill="#FAFF00"/>
	</mask>
	<g mask="url(#mask0_162_808)">
	<mask id="mask1_162_808" style="mask-type:alpha" maskUnits="userSpaceOnUse" x="0" y="68" width="2022" height="394">
	<rect x="0.960938" y="68.655" width="2020.37" height="393.345" fill="#FAFF00"/>
	</mask>
	<g mask="url(#mask1_162_808)">
	<path d="M1014.46 305.959C1015.61 306.061 1016.77 306.163 1017.93 306.265C1018.89 304.593 1017.91 302.807 1017.41 301.401C1014.82 294.043 1011.51 289.07 1001.83 294.526C997.921 296.727 993.995 298.928 989.851 300.49C985.32 302.195 981.162 304.363 977.208 307.1C970.938 311.448 965.286 316.666 958.424 320.185C949.239 324.886 939.885 328.744 929.24 328.255C922.575 327.95 920.693 324.818 923.825 318.989C924.892 317.005 926.101 315.205 927.697 313.636C936.97 304.498 948.309 298.262 959.212 291.448C964.994 287.834 971.06 284.682 975.686 279.498C978.023 276.883 978.22 274.138 976.468 271.047C974.511 267.582 971.339 265.612 968.01 263.758C959.477 259.023 950.082 258.737 940.748 258.88C932.772 259.002 924.844 259.974 916.923 261.353C899.206 264.43 767.059 307.644 769.851 349.023C772.643 390.402 841.427 385.464 831.203 427.903C824.987 453.704 785.877 456.035 764.933 456.931C731.502 458.365 698.051 453.867 664.641 456.51C637.318 458.677 609.927 459.927 582.522 460.634C555.001 461.347 527.468 461.51 499.94 461.51C472.807 461.51 445.674 461.408 418.534 461.401C397.515 461.401 376.497 461.395 355.484 461.395C334.683 461.395 313.881 461.395 293.073 461.395C279.88 461.395 266.694 461.395 253.501 461.395C242.04 461.395 230.58 461.395 219.112 461.395C192.319 461.395 165.532 461.395 138.739 461.395C82.564 461.605 59.2896 460.953 3.11448 461.707C-14.7455 461.945 -32.6055 461.734 -50.4655 461.755C-53.6992 461.761 -56.7902 460.117 -60.1326 460.919C-62.3473 461.456 -64.691 461.245 -66.9736 461.367" stroke="#131313" stroke-width="2" stroke-miterlimit="10" stroke-linecap="round" stroke-linejoin="round"/>
	<path d="M1014.08 355.056C1015.91 354.179 1017.44 355.409 1019.06 355.837C1028.21 358.235 1036.39 355.001 1043.95 350.721C1057.4 343.12 1068.54 332.658 1078.64 320.979C1083.72 315.11 1089.2 309.464 1095.17 304.539C1102.29 298.663 1105.05 298.697 1112.24 304.926C1118.51 310.354 1124.12 316.611 1129.56 322.888C1136.04 330.368 1143.25 337.087 1150.33 343.955C1156.53 349.961 1162.98 355.912 1165.26 364.662C1166.75 370.328 1167.66 376.15 1168.78 381.911C1171.26 394.75 1174.29 407.447 1178.38 419.886" stroke="#131313" stroke-width="2" stroke-miterlimit="10" stroke-linecap="round" stroke-linejoin="round"/>
	<path d="M1123.48 103.03C1124.47 111.705 1126.42 120.272 1125.86 129.117C1125.61 132.928 1127.4 136.522 1128.23 140.204C1130.22 149.09 1131.47 157.983 1131.16 167.086C1131.04 170.558 1129.55 173.751 1128.65 177.005C1127.83 179.994 1128.02 181.461 1130.75 182.854C1134.23 184.627 1135.41 186.23 1133.35 190.816C1130.61 196.896 1128.22 203.092 1125.72 209.253C1123.97 213.561 1123.46 217.426 1125.27 221.991C1127.68 228.071 1128.97 234.519 1129.79 241.101C1130.34 245.49 1130.56 249.838 1130.3 254.159C1129.89 260.959 1129.27 267.8 1127.93 274.464C1127.19 278.126 1127.57 281.659 1127.36 285.239C1127.11 289.757 1125.35 291 1121.19 289.05C1117.56 287.358 1114.06 285.402 1110.41 283.731C1108.36 282.793 1106.15 282.318 1103.72 283.391C1105.94 287.27 1110.12 288.398 1113.49 290.613C1115.78 292.114 1117.91 293.887 1120.12 295.45C1122.28 296.971 1120.39 298.955 1121.82 300.674C1125.77 305.422 1129.55 310.341 1133.9 314.716C1142.57 323.439 1151.59 331.822 1160.31 340.497C1164.72 344.879 1168.51 349.974 1169.43 356.211C1170.44 363.059 1171.73 369.825 1173.42 376.517C1175.11 383.195 1176.62 389.947 1178.88 396.435C1181.2 403.079 1183.46 409.798 1186.79 415.933C1185.07 418.874 1181.51 418.46 1179.16 420.253" stroke="#131313" stroke-width="2" stroke-miterlimit="10" stroke-linecap="round" stroke-linejoin="round"/>
	<path d="M1009.85 350.456C1012.65 352.637 1013.82 356.102 1016.35 358.541C1023.78 365.721 1031.96 364.723 1040.57 361.217C1051.58 356.734 1060.69 349.329 1070.12 342.393C1075.79 338.221 1081.38 333.921 1087.79 330.898C1092.45 328.704 1096.5 328.418 1101.34 331.863C1111.64 339.172 1121.25 347.297 1131.14 355.083C1135.14 358.235 1139.51 360.912 1143.1 364.614C1145.54 367.128 1146.73 369.906 1146.56 373.466C1145.87 388.127 1148 402.359 1153.42 416.048C1153.61 416.53 1153.46 417.04 1153.78 417.597C1157.19 423.514 1155.11 423.813 1163.82 422.733C1168.87 422.108 1173.74 420.722 1178.78 420.26" stroke="#131313" stroke-width="2" stroke-miterlimit="10" stroke-linecap="round" stroke-linejoin="round"/>
	<path d="M1085.48 212.745C1083.26 208.363 1079.12 209.838 1075.9 210.218C1070.15 210.897 1064.41 212.406 1059.81 216.257C1057.81 217.935 1055.55 218.873 1053.21 219.593C1047.79 221.271 1043.3 224.844 1037.92 226.699C1034.4 227.915 1031.14 228.119 1027.91 226.883C1018.75 223.377 1009.44 223.52 999.851 224.484C993.791 225.096 987.575 225.347 981.441 224.62C979.654 224.41 978.357 223.262 977.215 221.95C974.559 218.9 971.237 216.624 967.963 214.328C966.937 213.608 965.551 212.175 964.206 213.554C962.766 215.041 964.355 216.04 965.327 216.944C966.319 217.874 967.433 218.683 968.241 219.349C966.828 223.316 964.335 222.202 962.691 221.081C960.232 219.403 957.419 218.533 954.919 217.005C954.308 216.631 953.465 216.978 952.936 217.949C954.349 220.938 959.24 220.381 959.933 224.253" stroke="#131313" stroke-width="2" stroke-miterlimit="10" stroke-linecap="round" stroke-linejoin="round"/>
	<path d="M958.791 231.536C957.915 232.786 955.578 232.154 955.245 234.423C956.617 234.627 957.847 234.777 959.185 234.247C962.018 233.126 964.878 233.9 967.609 234.654C971.672 235.775 975.653 235.884 979.505 234.185C982.188 233.003 984.314 234.729 986.386 235.497C995.177 238.73 1004.28 240.714 1013.31 243.037C1022.97 245.524 1032.55 245.225 1042.12 242.358C1044 241.794 1046.19 242.243 1048.24 242.283C1051.39 242.351 1052.66 241.142 1052.87 238.058C1053.15 233.785 1051.44 230.245 1049.01 226.93C1046.5 226.767 1046.01 228.18 1045.88 230.381C1045.68 233.893 1046.29 237.317 1046.77 240.734C1047.34 244.865 1050.15 246.489 1054.38 245.327C1060.73 243.588 1066.23 244.308 1070.96 249.505C1074.03 252.874 1077.05 256.258 1079.71 259.933C1084.21 266.108 1083.91 269.546 1078.61 274.845C1080.41 277.915 1083.72 278.88 1086.67 279.743C1091.56 281.176 1093.95 284.702 1096.31 288.649C1096.96 289.722 1095.86 290.232 1096.28 291.061C1093.89 290.782 1092.32 289.03 1090.51 287.875C1086.1 285.062 1081.2 283.561 1076.25 282.25C1074.57 281.808 1072.83 282.019 1071.21 283.635C1067.33 287.481 1064.05 291.618 1062.05 296.747C1060.75 300.089 1058.4 302.603 1055.58 304.845C1046.11 312.358 1037.38 320.585 1031.37 331.278C1031.04 331.869 1030.82 332.522 1030.27 332.922C1027.74 327.678 1026.84 322.501 1024.48 317.834C1023.31 315.511 1022.34 313.398 1019.08 313.561C1016.57 313.683 1015.52 314.648 1015.2 317.08C1014.22 324.729 1004.7 332.44 996.808 334.322C995.299 334.682 993.628 334.369 993.058 332.787C992.657 331.672 992.901 330.402 994.07 329.308C995.761 327.725 997.582 326.38 999.505 325.157C1001.75 323.731 1004.38 322.406 1005.52 320.103C1007.57 316.013 1010.99 315.375 1014.85 315.171" stroke="#131313" stroke-width="2" stroke-miterlimit="10" stroke-linecap="round" stroke-linejoin="round"/>
	<path d="M1081.64 204.688C1087.93 209.206 1093.74 214.41 1100.96 218.465C1101.08 216.849 1101.43 215.857 1101.18 215.062C1098.67 207.331 1102.68 200.952 1106.03 194.824C1108.07 191.115 1110.91 187.317 1111.61 183.52C1112.49 178.764 1114.92 173.907 1112.88 168.574C1111.6 165.231 1112.96 161.38 1113.63 157.908C1114.88 151.407 1116.09 144.926 1116.59 138.322C1116.8 135.503 1117.75 132.745 1117.33 129.885C1116.9 126.97 1116.58 124.518 1112.82 123.146C1108.57 121.597 1106.07 117.249 1102.59 114.056C1105.33 112.011 1106.99 114.233 1109.14 114.579C1110.77 110.272 1103.93 108.173 1106.29 103.737C1109.9 104.681 1109.67 109.253 1112.93 110.897C1114.45 106.902 1109.55 103.805 1111.77 99.905C1113.25 100.218 1114.83 101.447 1116.51 100.15C1118.78 103.193 1118.66 107.059 1120.69 109.953C1122.83 109.545 1121.17 107.12 1122.73 106.481" stroke="#131313" stroke-width="2" stroke-miterlimit="10" stroke-linecap="round" stroke-linejoin="round"/>
	<path d="M1167.64 428.324C1164.14 429.676 1162.28 432.889 1162.7 437.522C1162.89 439.723 1163.54 441.918 1164.21 444.037C1165.23 447.291 1168.06 447.889 1170.66 446.986C1173.42 446.028 1176.16 446.102 1178.75 446.456C1185.67 447.386 1192.56 447.624 1199.49 447.101C1204.6 446.714 1209.36 445.607 1213.01 441.429C1214.25 440.009 1214.02 438.922 1213.7 437.522" stroke="#131313" stroke-width="2" stroke-miterlimit="10" stroke-linecap="round" stroke-linejoin="round"/>
	<path d="M1016.38 314.016C1015.72 311.679 1014.86 309.383 1014.2 307.073C1013.53 304.736 1012.6 304.655 1010.61 305.151C1004.52 306.679 1002.72 308.704 1001.74 315.946C994.904 315.382 988.261 317.393 981.447 317.841C977.377 318.106 975.604 315.565 977.649 312.121C980.319 307.624 984.837 305.429 989.517 303.683C994.701 301.754 1000.1 300.939 1005.63 301.38C1008.02 301.571 1010.59 301.679 1011.77 304.424" stroke="#131313" stroke-width="2" stroke-miterlimit="10" stroke-linecap="round" stroke-linejoin="round"/>
	<path d="M1171.85 422.57C1172.09 424.846 1170.21 426.001 1169.14 427.536C1165.37 432.944 1167.37 440.77 1173.42 442.4C1176.95 443.351 1180.9 444.16 1184.48 443.147C1188.08 442.128 1191.73 442.366 1195.29 441.979C1201.64 441.286 1207.39 439.064 1213.31 437.149C1211.98 445.355 1213.06 457.706 1222.21 460.906C1226.87 462.536 1232.13 461.823 1236.97 461.734C1247.27 461.551 1257.56 461.395 1267.87 461.395C1291.32 461.395 1314.78 461.395 1338.24 461.395C1349.55 461.395 1360.85 461.395 1372.17 461.395C1384.69 461.395 1397.21 461.395 1409.73 461.395C1423.16 461.395 1436.57 461.395 1450 461.395C1464 461.395 1478 461.395 1492.01 461.395C1506.28 461.395 1520.54 461.395 1534.81 461.395C1549.02 461.395 1563.23 461.395 1577.44 461.395C1591.29 461.395 1605.13 461.395 1618.97 461.395C1632.12 461.395 1645.28 461.395 1658.43 461.395C1670.58 461.395 1682.74 461.395 1694.88 461.395C1705.71 461.395 1716.53 461.395 1727.36 461.395C1736.55 461.395 1745.74 461.395 1754.92 461.395C1762.15 461.395 1769.38 461.395 1776.61 461.395C1781.57 461.395 1786.53 461.395 1791.48 461.395C1793.84 461.395 1796.21 461.395 1798.57 461.395C1798.73 461.395 1798.88 461.395 1799.04 461.395C1866.4 461.605 1894.3 460.953 1961.65 461.707C1983.07 461.945 2004.48 461.734 2025.9 461.755C2029.78 461.762 2033.49 460.118 2037.5 460.919C2040.15 461.456 2042.96 461.245 2045.7 461.368" stroke="#131313" stroke-width="2" stroke-miterlimit="10" stroke-linecap="round" stroke-linejoin="round"/>
	<path d="M1057.07 159.803C1057.64 161.753 1056.2 162.759 1055.18 164.043C1050.34 170.082 1047.05 176.631 1047.4 184.742C1047.73 192.175 1052.17 196.475 1057.85 200.075C1061.35 202.304 1065.07 203.601 1069.36 203.207C1072.36 202.935 1075.54 202.63 1078.17 204.709C1079.14 205.476 1079.55 204.865 1080.48 203.907C1078.47 201.135 1074.82 199.838 1073.16 196.645C1071.18 192.847 1069.25 189.138 1071.27 184.736C1072.51 182.039 1074.79 180.327 1077.04 178.615C1078.86 177.236 1080.97 176.244 1082.58 173.995C1077.45 171.916 1072.16 171.522 1067.09 173.323C1060.43 175.687 1057.84 183.098 1061.36 189.301C1063.89 193.764 1067.78 197.032 1072.43 199.315C1073.21 199.702 1073.96 199.756 1074.73 199.308" stroke="#131313" stroke-width="2" stroke-miterlimit="10" stroke-linecap="round" stroke-linejoin="round"/>
	<path d="M1083.56 152.133C1082.92 153.927 1082.33 155.734 1081.63 157.5C1080.85 159.463 1080.94 161.169 1082.89 162.555C1084.88 161.277 1086.79 159.647 1088.99 158.784C1090.26 158.281 1091.77 156.991 1093.61 158.587C1095.53 160.238 1095.48 162.296 1094.97 164.002C1093.89 167.663 1092.76 171.427 1089.54 174.314C1092.91 178.22 1096.3 181.57 1098.61 185.856C1103.84 195.557 1097.77 203.193 1087.79 203.221C1085.37 203.227 1082.87 202.365 1080.49 203.54" stroke="#131313" stroke-width="2" stroke-miterlimit="10" stroke-linecap="round" stroke-linejoin="round"/>
	<path d="M1070.12 149.063C1062.91 153.778 1062.52 160.449 1064.8 167.847C1061.49 168.846 1060.25 168.098 1057.07 163.255" stroke="#131313" stroke-width="2" stroke-miterlimit="10" stroke-linecap="round" stroke-linejoin="round"/>
	<path d="M1071.66 145.999C1070.22 150.517 1070.46 155.177 1070.55 159.81C1070.58 161.257 1072.13 161.543 1073.35 162.161C1076.1 159.124 1077.83 154.851 1082.41 153.676" stroke="#131313" stroke-width="2" stroke-miterlimit="10" stroke-linecap="round" stroke-linejoin="round"/>
	<path d="M959.179 223.486C956.55 224.831 953.785 222.718 951.094 223.818C950.456 224.077 949.634 223.88 949.186 224.715C948.948 226.366 951.692 226.468 951.23 228.506C951.108 229.029 952.501 230.218 953.404 229.953C956.638 229.002 959.586 230.245 962.637 230.782" stroke="#131313" stroke-width="2" stroke-miterlimit="10" stroke-linecap="round" stroke-linejoin="round"/>
	<path d="M1113.89 101.114C1114.28 103.968 1116.94 106.067 1116.58 109.171" stroke="#131313" stroke-width="2" stroke-miterlimit="10" stroke-linecap="round" stroke-linejoin="round"/>
	<path d="M1079.33 205.456C1079.83 207.249 1082.26 207.637 1082.41 209.675" stroke="#131313" stroke-width="2" stroke-miterlimit="10" stroke-linecap="round" stroke-linejoin="round"/>
	</g>
	<mask id="mask2_162_808" style="mask-type:alpha" maskUnits="userSpaceOnUse" x="1755" y="68" width="2022" height="394">
	<rect x="1755.71" y="68.655" width="2020.37" height="393.345" fill="#FAFF00"/>
	</mask>
	<g mask="url(#mask2_162_808)">
	<path d="M2769.21 305.959C2770.36 306.061 2771.52 306.163 2772.68 306.265C2773.64 304.593 2772.66 302.807 2772.16 301.401C2769.57 294.043 2766.26 289.07 2756.58 294.526C2752.67 296.727 2748.74 298.928 2744.6 300.49C2740.07 302.195 2735.91 304.363 2731.96 307.1C2725.69 311.448 2720.04 316.666 2713.17 320.185C2703.99 324.886 2694.63 328.744 2683.99 328.255C2677.33 327.95 2675.44 324.818 2678.58 318.989C2679.64 317.005 2680.85 315.205 2682.45 313.636C2691.72 304.498 2703.06 298.262 2713.96 291.448C2719.74 287.834 2725.81 284.682 2730.44 279.498C2732.77 276.883 2732.97 274.138 2731.22 271.047C2729.26 267.582 2726.09 265.612 2722.76 263.758C2714.23 259.023 2704.83 258.737 2695.5 258.88C2687.52 259.002 2679.59 259.974 2671.67 261.353C2653.96 264.43 2521.81 307.644 2524.6 349.023C2527.39 390.402 2596.18 385.464 2585.95 427.903C2579.74 453.704 2540.63 456.035 2519.68 456.931C2486.25 458.365 2452.8 453.867 2419.39 456.51C2392.07 458.677 2364.68 459.927 2337.27 460.634C2309.75 461.347 2282.22 461.51 2254.69 461.51C2227.56 461.51 2200.42 461.408 2173.28 461.401C2152.27 461.401 2131.25 461.395 2110.23 461.395C2089.43 461.395 2068.63 461.395 2047.82 461.395C2034.63 461.395 2021.44 461.395 2008.25 461.395C1996.79 461.395 1985.33 461.395 1973.86 461.395C1947.07 461.395 1920.28 461.395 1893.49 461.395C1837.31 461.605 1814.04 460.953 1757.86 461.707C1740 461.945 1722.14 461.734 1704.28 461.755C1701.05 461.761 1697.96 460.117 1694.62 460.919C1692.4 461.456 1690.06 461.245 1687.78 461.367" stroke="#131313" stroke-width="2" stroke-miterlimit="10" stroke-linecap="round" stroke-linejoin="round"/>
	</g>
	</g>
	</svg>
	