<svg width="2077" height="598" viewBox="0 0 2077 598" fill="none" xmlns="http://www.w3.org/2000/svg">
	<path d="M1202.87 435.147C1206.75 433.605 1210.45 431.757 1213.16 428.415C1215.26 425.827 1215.29 422.871 1213.91 420.134C1209.66 411.75 1205.5 403.184 1196.13 399.169C1192.56 397.64 1191.96 394.536 1192.68 391.648C1195.6 380.032 1199.1 368.836 1209.5 361.016C1216.79 355.534 1216.86 351.424 1210.68 342.62C1203.64 332.579 1193.76 325.982 1182.3 321.505C1173.91 318.231 1165.62 314.658 1159.29 307.749C1152.45 300.282 1149.95 291.621 1150.5 281.6C1150.86 274.834 1152.66 268.4 1153.66 261.804C1155.27 251.145 1152.12 241.736 1143.85 234.548C1134.81 226.702 1124.04 223.061 1112.22 221.736C1107.05 221.152 1101.73 220.771 1096.76 218.706C1088.38 215.228 1084.61 208.203 1082.6 200.065C1081.15 194.229 1080.03 188.251 1079.43 182.266C1078.15 169.5 1072.85 158.488 1065.04 148.685C1056.13 137.523 1045.35 128.542 1031.84 123.332C1023.45 120.098 1014.7 118.773 1005.74 117.924C1000.84 117.455 995.973 117.163 991.075 116.959C972.977 116.205 956.449 121.538 940.824 130.078C931.68 135.071 925.111 142.904 920.355 151.878C914.948 162.062 909.948 172.537 907.149 183.855C905.573 190.228 905.009 196.742 904.391 203.251C903.976 207.599 903.786 211.987 903.093 216.294C902.862 217.748 903.052 218.59 903.99 219.474" stroke="#131313" stroke-width="2" stroke-miterlimit="10" stroke-linecap="round" stroke-linejoin="round"/>
	<path d="M884.191 279.82C882.554 279.657 882.262 280.764 882.221 281.994C882.14 284.521 881.569 287.096 881.576 289.515C881.637 300.065 877.255 309.175 873.098 318.401C868.804 327.939 864.117 337.3 861.963 347.674C860.944 352.579 862.337 357.83 865.978 360.351C870.373 363.387 874.68 362.029 874.932 356.784C875.482 345.228 879.531 334.821 883.689 324.297C885.598 319.474 886.046 314.114 886.1 308.903C886.189 300.724 886.63 292.517 885.421 284.365C885.21 282.945 884.986 281.614 884.191 280.411" stroke="#131313" stroke-width="2" stroke-miterlimit="10" stroke-linecap="round" stroke-linejoin="round"/>
	<path d="M1036.21 263.006C1036.1 259.725 1034.78 256.682 1034.05 253.55C1032.63 247.409 1033.24 242.245 1038.2 238.088C1044 233.23 1047.85 227.218 1049.68 219.874C1052.45 208.801 1054.76 197.666 1055.72 186.247C1056.09 181.885 1056.76 177.51 1056.33 173.189C1055.41 164.134 1054.35 155.146 1049.37 147.007C1043.59 137.557 1035.42 132.055 1024.73 130.078C1017.77 128.787 1010.78 128.882 1003.74 129.989C995.946 131.219 988.398 133.257 981.211 136.43C973.032 140.037 965.24 144.365 959.017 151.022C954.852 155.479 952.176 160.438 952.611 166.858C952.855 170.52 954.615 172.952 957.461 174.732C960.029 176.335 961.829 173.909 963.29 172.687C967.414 169.215 970.484 164.704 973.229 160.098C978.337 151.525 984.302 143.719 991.85 137.136C993.181 135.975 994.92 134.949 995.049 132.816" stroke="#131313" stroke-width="2" stroke-miterlimit="10" stroke-linecap="round" stroke-linejoin="round"/>
	<path d="M1185.45 444.251C1188.01 438.761 1189.84 437.518 1195.72 438.449C1197.31 438.7 1198.64 438.204 1200.09 438.225C1203.02 438.259 1205.87 440.249 1206.02 443.069C1206.45 451.105 1206.87 450.175 1199.27 452.851C1191.01 455.752 1182.35 457.009 1173.59 457.851C1166.45 458.544 1159.27 459.434 1152.17 460.704C1149.12 461.248 1145.87 461.608 1142.7 461.635C1132.14 461.71 1121.56 462.097 1111.03 461.554C1098.23 460.895 1085.43 460.378 1072.64 459.876C1066.97 459.652 1061.25 459.821 1055.61 459.21C1051.12 458.721 1046.63 458.469 1041.98 458.517C1043.02 453.612 1044.44 449.169 1044.81 444.645C1045.44 436.886 1048.41 429.264 1046.21 421.275C1045.75 419.631 1044.78 419.006 1043.88 418.055C1036.89 421.961 1037.55 433.537 1044.92 439.108" stroke="#131313" stroke-width="2" stroke-miterlimit="10" stroke-linecap="round" stroke-linejoin="round"/>
	<path d="M1088.86 395.575C1090 390.65 1093.43 387.002 1096.49 383.401C1103.74 374.834 1111.9 367.11 1120.92 360.357C1121.98 359.569 1123.12 358.863 1124.08 357.966C1128.57 353.734 1128.75 353.591 1125.24 348.109C1112.55 328.258 1102.06 307.083 1088.83 287.565C1081.06 276.111 1071.59 266.675 1057.6 262.972C1050.2 261.023 1043.08 260.207 1035.74 263.631C1033.05 264.888 1029.36 264.589 1026.73 262.191C1023.62 259.345 1020.62 256.356 1018.42 252.707C1017.6 251.362 1016.49 250.411 1015.39 249.48C1008.56 252.592 1009.32 258.74 1013.67 265.765C1014.46 267.035 1015.5 268.149 1016.42 269.338" stroke="#131313" stroke-width="2" stroke-miterlimit="10" stroke-linecap="round" stroke-linejoin="round"/>
	<path d="M1206.43 441.479C1206.83 440.827 1207.51 441.003 1208.01 441.105C1216.2 442.783 1224.39 444.448 1232.55 446.241C1247.19 449.454 1265.32 441.832 1280.31 442.702L1336.44 442.695C1348.76 442.695 1361.01 444.482 1372.82 448.007C1393.63 454.223 1415.23 457.382 1436.95 457.396C1597.28 457.498 1674.77 456.968 1846.77 457.675C1905.05 457.912 1963.34 457.702 2021.62 457.722C2032.18 457.729 2042.27 456.085 2053.18 456.887C2060.4 457.423 2068.04 457.213 2075.5 457.335" stroke="#131313" stroke-width="2" stroke-miterlimit="10" stroke-linecap="round" stroke-linejoin="round"/>
	<path d="M789.974 324.739C794.642 342.436 802.06 359.087 809.349 375.799C813.059 384.298 818.48 391.811 822.78 399.957C823.969 402.205 825.993 404.339 824.512 407.491C823.718 409.176 822.821 409.807 821.258 409.393C816.686 408.191 812.413 406.968 808.446 403.652C798.82 395.623 788.14 388.693 776.761 383.659C769.771 380.561 763.093 376.044 754.757 375.588C747.413 375.188 740.742 377.463 733.752 378.483C726.361 379.563 720.736 383.082 716.761 389.257C712.339 396.112 711.924 406.696 718.269 413.041C722.896 417.661 728.31 421.01 733.697 424.556C739.642 428.469 746.218 431.683 750.443 437.878C750.661 438.198 750.858 438.517 751.048 438.836C752.291 440.976 750.62 443.585 748.14 443.585C747.964 443.585 747.794 443.592 747.617 443.605C729.098 445.147 739.846 458.3 719.017 457.668L684.581 457.824L673.29 457.348C665.838 457.226 658.195 457.43 650.967 456.9C640.063 456.092 629.968 457.736 619.411 457.736C561.13 457.715 502.836 457.926 444.561 457.688C261.24 456.934 185.289 457.586 1.96094 457.376" stroke="#131313" stroke-width="2" stroke-miterlimit="10" stroke-linecap="round" stroke-linejoin="round"/>
	<path d="M905.572 224.222C908.14 226.994 907.006 230.683 907.311 233.747C908.65 247.014 913.419 259.148 918.256 271.308C921.204 278.727 924.288 286.064 928.881 292.714C936.911 304.338 949.234 307.735 962.963 302.966C970.491 300.35 977.053 296.002 983.575 291.526C991.659 285.982 999.648 280.18 1008.23 275.506C1011.79 273.563 1016.56 271.43 1021.2 274.426C1022.4 275.201 1023.85 275.194 1025.52 275.146C1031.27 274.977 1037.29 274.759 1042.53 278.054C1044.88 279.528 1045.69 283.108 1044.08 285.14C1043.24 286.199 1042.57 286.852 1040.49 286.152C1034.22 284.032 1028.7 281.064 1024.32 276.07" stroke="#131313" stroke-width="2" stroke-miterlimit="10" stroke-linecap="round" stroke-linejoin="round"/>
	<path d="M794.73 321.573C799.18 328.951 802.033 337.049 805.457 344.902C811.266 358.224 817.74 371.254 822.828 384.889C823.908 387.783 825.206 390.623 825.946 393.605C828.066 402.144 833.324 407.063 841.795 409.549C849.56 411.832 856.979 415.269 863.602 420.113C864.431 420.718 865.267 421.35 865.967 422.097C867.916 424.183 868.942 426.553 867.142 429.189C865.396 431.744 862.794 431.037 860.457 430.344C858.664 429.814 857.013 428.802 855.294 428.028C854.377 427.613 853.385 426.791 852.536 426.913C847.964 427.572 846.245 424.257 844.214 421.302" stroke="#131313" stroke-width="2" stroke-miterlimit="10" stroke-linecap="round" stroke-linejoin="round"/>
	<path d="M1007.31 275.669C1005.53 272.571 1002.09 273.821 999.757 273.55C989.974 272.408 983.643 266.912 977.923 259.514C970.463 249.867 965.443 239.161 963.133 227.361C961.951 221.335 961.72 215.091 959.771 209.201C957.583 202.578 954.397 196.464 949.499 191.396C945.158 186.898 939.934 185.54 933.663 186.097C928.371 186.572 923.718 188.026 919.411 190.961C919.139 191.144 918.636 190.988 918.242 190.988" stroke="#131313" stroke-width="2" stroke-miterlimit="10" stroke-linecap="round" stroke-linejoin="round"/>
	<path d="M985.144 118.563C974.662 122.184 965.158 127.707 955.858 133.61C937.767 145.098 926.313 161.661 920.389 181.926C918.195 189.433 914.642 196.104 911.028 202.802C907.964 208.475 907.835 215.003 904.846 220.69C899.975 229.976 894.35 238.04 883.018 240.106C876.565 241.281 870.043 241.947 863.582 243.04C855.865 244.345 849.465 247.809 843.433 252.334C833.467 259.807 826.3 269.834 818.861 279.61C809.934 291.335 801.096 303.136 791.164 314.046" stroke="#131313" stroke-width="2" stroke-miterlimit="10" stroke-linecap="round" stroke-linejoin="round"/>
	<path d="M1075.4 416.547C1075.7 413.89 1073.32 413.197 1071.8 412.702C1066.75 411.078 1061.61 409.339 1056.39 408.754C1045.15 407.498 1034.36 404.393 1023.57 401.397C1014.82 398.965 1005.93 396.873 996.997 396.295C991.461 395.935 986.57 394.597 981.583 392.797C974.151 390.113 966.909 390.609 959.81 393.985C955.306 396.125 950.707 397.858 945.557 397.6C944.253 397.532 942.928 398.109 941.597 398.333C939.593 398.673 939.695 400.344 940.102 401.472C940.714 403.163 941.271 405.072 942.799 406.234C947.487 409.773 952.385 412.206 958.601 412.776C969.613 413.788 980.523 413.462 991.474 412.586" stroke="#131313" stroke-width="2" stroke-miterlimit="10" stroke-linecap="round" stroke-linejoin="round"/>
	<path d="M881.822 269.338C879.444 266.702 877.053 264.073 874.702 261.417C871.74 258.081 867.63 256.933 863.588 255.995C861.38 255.486 858.955 256.593 857.712 258.672C849.118 273.047 835.191 282.347 823.989 294.229C819.193 299.318 814.077 304.107 808.955 308.876C805.123 312.443 801.143 315.86 797.066 319.148C795.368 320.52 793.085 321.247 791.21 319.542C789.125 317.647 787.433 318.666 786.054 320.024C772.236 333.659 757.243 346.077 744.084 360.378C740.144 364.664 735.525 368.17 731.36 372.198C729.254 374.237 726.401 375.704 727.033 379.345" stroke="#131313" stroke-width="2" stroke-miterlimit="10" stroke-linecap="round" stroke-linejoin="round"/>
	<path d="M970.098 448.598C962.183 445.304 954.153 442.233 946.395 438.592C943.189 437.083 939.982 438.028 936.789 437.389C932.883 436.601 928.712 436.214 924.568 436.241C917.313 436.295 910.057 435.697 902.795 435.568C895.003 435.426 887.238 436.968 879.446 436.282C873.882 435.786 868.366 435.27 862.802 436.275C861.701 436.472 860.608 436.526 859.65 437.131C856.301 439.25 853.61 438.843 851.729 435.147" stroke="#131313" stroke-width="2" stroke-miterlimit="10" stroke-linecap="round" stroke-linejoin="round"/>
	<path d="M772.956 383.306C772.969 384.067 773.024 384.665 773.71 385.324C781.264 392.545 787.439 401.132 795.89 407.484C798.078 409.128 797.086 410.487 795.15 411.845C790.836 414.882 786.502 417.932 782.507 421.363C779.015 424.359 775.544 427.572 773.771 431.995C770.361 440.473 773.655 447.837 782.439 452.206C785.856 453.904 789.498 454.516 793.153 454.876C798.798 455.433 804.45 456.404 809.817 456.092C810.979 454.196 808.628 452.946 809.769 451.377" stroke="#131313" stroke-width="2" stroke-miterlimit="10" stroke-linecap="round" stroke-linejoin="round"/>
	<path d="M1088.46 414.767C1089.47 409.162 1092.91 404.74 1096.49 400.813C1108.21 387.905 1120.6 375.67 1135.18 365.894C1138.09 363.938 1140.97 361.927 1143.86 359.95C1145.26 360.575 1145.44 361.798 1146.01 363.061C1147.48 366.315 1149.49 369.311 1152.18 371.859C1168.59 387.403 1182.16 405.344 1195.76 423.266C1198.1 426.357 1199.82 429.801 1201.77 433.116C1202.81 434.876 1202.5 436.289 1202.08 437.919" stroke="#131313" stroke-width="2" stroke-miterlimit="10" stroke-linecap="round" stroke-linejoin="round"/>
	<path d="M1059.57 333.442C1060.24 342.946 1060.39 352.491 1061.87 361.947C1062.55 366.234 1062.66 370.643 1062.66 374.998C1062.66 377.076 1063.48 378.938 1063.51 380.935C1063.61 387.606 1061.7 393.85 1059.16 399.923C1058.32 401.961 1057.53 404.006 1057.6 406.261" stroke="#131313" stroke-width="2" stroke-miterlimit="10" stroke-linecap="round" stroke-linejoin="round"/>
	<path d="M1101.92 414.964C1101.62 417.083 1099.88 418.204 1098.33 418.843C1088.07 423.082 1078.97 429.481 1069.06 434.352C1062.87 437.396 1056.67 440.446 1050.45 443.442C1048.96 444.162 1047.37 444.692 1045.71 443.856" stroke="#131313" stroke-width="2" stroke-miterlimit="10" stroke-linecap="round" stroke-linejoin="round"/>
	<path d="M791.557 320.384C790.355 323.224 788.303 325.085 785.674 326.804C777.427 332.198 770.667 339.263 765.09 347.334C760.627 353.795 754.574 358.754 749.594 364.705C748.935 365.493 748.297 366.308 747.61 367.076C745.654 369.257 744.811 371.193 748.385 372.674C749.085 372.959 750.015 373.503 749.988 374.603" stroke="#131313" stroke-width="2" stroke-miterlimit="10" stroke-linecap="round" stroke-linejoin="round"/>
	<path d="M848.962 427.233C848.772 429.943 852.59 431.465 851.095 434.57C849.859 435.039 848.527 435.242 847.392 434.339C844.607 432.124 841.367 430.229 839.94 426.798C839.24 425.113 837.956 424.25 836.679 424.155C830.586 423.687 825.626 419.753 819.682 418.788C818.242 418.551 816.761 417.953 815.314 418.191C813.86 418.435 812.005 416.961 810.973 418.931C809.743 421.275 810.952 423.524 812.216 425.188C815.497 429.515 820.565 431.499 825.225 433.904C828.242 435.46 831.306 436.948 833.867 439.149C835.932 440.922 837.284 443.252 836.285 446.221C835.246 449.298 832.753 449.529 829.967 449.882C826.72 450.29 824.016 448.354 820.844 448.408C819.811 448.422 818.262 446.397 817.759 445.005C814.519 436.071 807.596 430.514 800.294 425.208C799.159 424.386 798.106 423.972 797.141 424.896C796.279 425.725 796.632 426.886 797.06 428.028C798.711 432.396 802.257 435.208 805.45 438.259C807.746 440.453 810.3 442.457 812.99 444.142C814.111 444.842 815.592 446.092 817.284 445.025" stroke="#131313" stroke-width="2" stroke-miterlimit="10" stroke-linecap="round" stroke-linejoin="round"/>
	<path d="M903.196 225.411C904.459 231.131 902.605 235.961 897.999 239.188C889.059 245.438 885.594 254.29 883.576 264.549C882.55 269.759 882.618 274.596 883.406 279.63" stroke="#131313" stroke-width="2" stroke-miterlimit="10" stroke-linecap="round" stroke-linejoin="round"/>
	<path d="M1105.09 392.803C1107.03 393.999 1109.17 394.427 1111.42 394.386C1114.15 394.332 1115.22 395.657 1115 398.347C1114.3 407.178 1108.99 414.4 1099.55 414.264C1087.88 414.094 1076.48 416.574 1065.12 418.992C1063.17 419.407 1061.41 420.765 1059.57 421.689" stroke="#131313" stroke-width="2" stroke-miterlimit="10" stroke-linecap="round" stroke-linejoin="round"/>
	<path d="M1036.6 264.188C1039.38 265.941 1039.21 269.521 1041.3 271.75C1042.36 272.877 1042.99 274.304 1044.92 274.107C1046.23 273.971 1046.89 273.428 1046.9 272.103C1046.9 270.337 1047.32 268.353 1045.29 267.388C1043.44 266.512 1041.54 265.384 1039.37 266.566" stroke="#131313" stroke-width="2" stroke-miterlimit="10" stroke-linecap="round" stroke-linejoin="round"/>
	<path d="M1128.44 411.404C1123.89 413.367 1119.08 414.482 1114.18 414.882C1111.59 415.093 1108.78 417.24 1106.28 414.57" stroke="#131313" stroke-width="2" stroke-miterlimit="10" stroke-linecap="round" stroke-linejoin="round"/>
	<path d="M1131.61 411.404C1127.26 408.843 1122.46 409.563 1117.76 409.379C1115.74 409.298 1113.9 411.227 1111.82 409.821" stroke="#131313" stroke-width="2" stroke-miterlimit="10" stroke-linecap="round" stroke-linejoin="round"/>
	<path d="M950.306 412.192C948.207 413.924 945.238 413.721 943.125 415.691C940.272 418.354 939.993 420.106 942.786 422.878C943.974 424.06 945.163 425.249 946.352 426.438" stroke="#131313" stroke-width="2" stroke-miterlimit="10" stroke-linecap="round" stroke-linejoin="round"/>
	<path d="M1064.71 386.472C1066.43 387.939 1065.85 390.235 1066.7 392.008C1068.32 395.398 1069.93 398.802 1072.64 401.499C1073.66 402.511 1074.48 403.53 1074.21 405.072" stroke="#131313" stroke-width="2" stroke-miterlimit="10" stroke-linecap="round" stroke-linejoin="round"/>
	<path d="M957.434 430.399C961.639 434.577 967.502 435.874 971.693 433.578C971.843 433.496 972.081 433.564 972.284 433.564C972.216 433.496 972.155 433.435 972.087 433.367C969.914 430.351 966.34 430.609 963.358 430.14C958.181 429.332 952.923 429.155 947.93 427.267C945.212 426.241 942.78 427.871 940.464 428.904C938.847 429.624 939.323 431.499 940.077 432.742C941.096 434.427 943.385 435.202 943.596 437.518" stroke="#131313" stroke-width="2" stroke-miterlimit="10" stroke-linecap="round" stroke-linejoin="round"/>
	<path d="M820.456 448.999C819.505 452.124 817.419 452.396 814.505 451.839C809.559 450.888 806.047 448.748 803.635 443.952C802.174 441.051 798.934 438.952 796.257 436.791C794.878 435.677 793.024 434.536 790.721 436.669C794.491 440.691 797.929 444.903 803.832 445.827" stroke="#131313" stroke-width="2" stroke-miterlimit="10" stroke-linecap="round" stroke-linejoin="round"/>
	<path d="M824.416 409.821C828.084 413.544 831.998 417.056 835.082 421.309C835.469 421.839 836.427 422.403 835.496 423.272" stroke="#131313" stroke-width="2" stroke-miterlimit="10" stroke-linecap="round" stroke-linejoin="round"/>
	<path d="M1061.15 398.34C1063.85 399.08 1065.96 400.86 1068.29 402.28C1073.08 405.201 1078.07 407.79 1082.19 411.737C1083 412.518 1083.88 413.211 1084.5 414.169" stroke="#131313" stroke-width="2" stroke-miterlimit="10" stroke-linecap="round" stroke-linejoin="round"/>
	<path d="M1100.73 394.78C1095.95 393.904 1091.61 395.5 1087.28 397.158" stroke="#131313" stroke-width="2" stroke-miterlimit="10" stroke-linecap="round" stroke-linejoin="round"/>
	<path d="M1028.29 263.794C1025.54 266.702 1021.28 267.055 1018.39 269.732" stroke="#131313" stroke-width="2" stroke-miterlimit="10" stroke-linecap="round" stroke-linejoin="round"/>
	<path d="M1004.93 118.957C1004.31 123.046 1000.9 125.791 999.783 129.643" stroke="#131313" stroke-width="2" stroke-miterlimit="10" stroke-linecap="round" stroke-linejoin="round"/>
	<path d="M1050.86 419.318C1055.73 419.25 1059.74 420.331 1060.81 426.037C1061.16 427.933 1063.07 429.386 1062.74 431.587" stroke="#131313" stroke-width="2" stroke-miterlimit="10" stroke-linecap="round" stroke-linejoin="round"/>
	<path d="M846.191 424.855C844.268 426.261 841.707 424.244 839.859 426.044" stroke="#131313" stroke-width="2" stroke-miterlimit="10" stroke-linecap="round" stroke-linejoin="round"/>
	</svg>
	