<svg width="2074" height="598" viewBox="0 0 2074 598" fill="none" xmlns="http://www.w3.org/2000/svg">
	<mask id="mask0_162_467" style="mask-type:alpha" maskUnits="userSpaceOnUse" x="27" y="68" width="2047" height="394">
	<rect x="27.4668" y="68.6548" width="2045.9" height="393.345" fill="#FF0000"/>
	</mask>
	<g mask="url(#mask0_162_467)">
	<path d="M1183.77 460.713C1186.47 460.591 1189.24 460.795 1191.86 460.265C1195.81 459.457 1199.47 461.101 1203.29 461.101C1224.41 461.08 1245.53 461.291 1266.65 461.053C1333.07 460.299 1360.59 460.951 1427 460.741H1962.39" stroke="#131313" stroke-width="2" stroke-miterlimit="10" stroke-linecap="round" stroke-linejoin="round"/>
	<path d="M1107.16 250.869C1108.12 253.002 1110.23 254.048 1112.01 254.856C1116.07 256.691 1117.4 260.284 1118.11 263.96C1119.2 269.605 1118.95 275.332 1118.37 281.127C1117.83 286.535 1117.69 292.112 1118.95 297.54C1119.72 300.849 1121.92 303.009 1124.46 305.033C1134.95 313.369 1145.21 321.976 1154.32 331.888C1159.07 337.051 1163.02 342.832 1166.8 348.722C1168.43 351.263 1168.86 354.354 1168.26 357.269C1166.24 367.16 1168.55 376.589 1170.9 386.032C1173.18 395.238 1175.09 404.504 1175.29 414.035C1175.33 415.897 1175.07 417.772 1174.95 419.633C1174.6 425.258 1175.32 430.842 1175.69 436.434" stroke="#131313" stroke-width="2" stroke-miterlimit="10" stroke-linecap="round" stroke-linejoin="round"/>
	<path d="M1065.55 275.515C1065.87 279.646 1063.41 283.09 1062.7 287.037C1061.95 291.263 1061.82 295.57 1063.89 298.539C1072.3 310.617 1069.07 322.064 1062.9 333.349C1057.52 343.192 1050.02 351.548 1043.09 360.278C1041.67 362.078 1040.26 363.926 1039.07 365.896C1038.19 367.343 1036.8 369.069 1038.69 370.692C1040.27 372.058 1041.99 371.718 1043.84 370.774C1046.57 369.381 1049 367.656 1051.19 365.502C1061.5 355.353 1069.4 343.274 1077.7 331.514C1081.28 326.433 1084.82 321.31 1088.38 316.208C1089.81 314.177 1091.46 313.206 1093.91 314.694C1096.67 316.365 1098.59 315.461 1100.61 312.907C1104.63 307.798 1106.49 301.799 1107 295.658C1107.71 287.18 1107.1 278.776 1103.65 270.583C1101.05 264.401 1096.52 262.818 1090.96 262.506C1086.36 262.248 1081.65 261.881 1077.31 264.265C1076.99 264.449 1076.36 264.055 1075.86 263.932" stroke="#131313" stroke-width="2" stroke-miterlimit="10" stroke-linecap="round" stroke-linejoin="round"/>
	<path d="M1030.55 366.997C1029.84 362.9 1028.56 358.967 1027.23 355.054C1026.31 352.343 1023.82 351.107 1021.67 349.897C1011.25 344.014 1000.04 342.323 988.188 343.383C980.497 344.075 972.847 345.224 964.962 344.041C959.1 343.165 957.446 339.503 956.173 334.877C955.322 331.8 954.833 328.613 953.909 325.556C952.415 320.638 947.558 318.804 942.165 321.086C938.95 322.452 936.116 324.429 933.664 327.017C929.712 331.195 925.431 334.592 919.757 336.575C914.471 338.423 909.675 341.847 905.695 346.086C902.453 349.537 902.279 351.215 904.583 355.414" stroke="#131313" stroke-width="2" stroke-miterlimit="10" stroke-linecap="round" stroke-linejoin="round"/>
	<path d="M1129.63 108.986C1132.83 109.258 1134.5 107.953 1134.02 105.256C1133.03 99.7331 1129.2 96.6081 1124.47 94.4341C1114.61 89.8893 1104.96 91.7099 1095.37 95.5347C1089.04 98.0619 1083.74 102.165 1078.83 106.778C1072.44 112.797 1064.88 111.826 1059.16 105.874C1056.06 108.286 1054.33 111.819 1053.54 115.372C1052.53 119.91 1053.3 124.455 1057.81 127.288C1061.24 129.448 1062.81 132.858 1063.69 136.629C1065.44 144.169 1070.32 146.928 1077.71 144.475C1080.51 143.544 1083.32 142.593 1086.19 141.914C1087.33 141.649 1089.02 141.635 1089.79 142.301C1093.5 145.542 1096.9 144.027 1100.15 141.812C1104.12 139.101 1106.85 135.61 1105.72 130.27C1105.59 129.672 1105.84 128.986 1105.68 128.415C1104.09 122.777 1104.46 123.286 1110.12 122.063C1110.67 121.941 1111.22 121.812 1111.59 121.73C1111.59 119.448 1111.28 117.152 1111.66 114.978C1112.32 111.207 1115.71 110.847 1118.6 110.154C1120.79 109.631 1122.95 109.101 1124.84 107.858C1126.95 106.459 1126.64 104.584 1125.59 102.647C1123.74 99.2643 1120.37 97.9192 1117.1 97.5388C1107.61 96.445 1095.76 99.5157 1089.86 108.999C1085.78 115.555 1085.85 122.41 1089.19 129.122C1090.97 132.702 1093.2 136.173 1095.82 139.176C1100.46 144.516 1099.39 149.55 1096.16 154.958C1094.9 157.084 1092.91 158.85 1092.7 161.642C1092.65 162.281 1091.74 163.191 1090.58 163.157C1088.37 163.096 1086.16 163.144 1083.95 163.144" stroke="#131313" stroke-width="2" stroke-miterlimit="10" stroke-linecap="round" stroke-linejoin="round"/>
	<path d="M1097.22 151.921C1091.09 150.752 1085.3 154.563 1083.68 161.275C1083.07 163.809 1081.95 164.652 1079.59 165.494C1074.93 167.159 1070.73 169.978 1066.67 172.845C1060.22 177.39 1052.81 180.223 1046.68 185.42C1040.65 190.535 1039.79 198.619 1045.23 204.625C1047.48 207.105 1049.68 209.666 1052.33 211.602C1058.48 216.079 1062.57 222.24 1066.65 228.463C1068.88 231.874 1071.02 235.359 1074.39 237.798C1074.89 238.158 1075.35 238.579 1075.87 238.912C1079.94 241.514 1083.08 239.965 1083.61 235.189C1084.08 231.024 1083.42 226.846 1082.68 222.899C1081.25 215.202 1080.39 207.465 1080.02 199.713C1079.6 191.017 1079.45 182.274 1080.61 173.579C1080.95 170.983 1082.19 168.456 1081.38 165.746" stroke="#131313" stroke-width="2" stroke-miterlimit="10" stroke-linecap="round" stroke-linejoin="round"/>
	<path d="M1090.59 163.497C1088.91 171.316 1089.6 179.122 1090.07 187.03C1090.68 197.132 1092.58 207.111 1092.46 217.268C1092.42 221.249 1093 225.209 1092.46 229.218C1091.51 236.412 1095.16 241.534 1100.12 246.059C1101.13 246.976 1102.8 247.526 1102.74 249.374" stroke="#131313" stroke-width="2" stroke-miterlimit="10" stroke-linecap="round" stroke-linejoin="round"/>
	<path d="M1199.98 195.42C1199.5 195.732 1198.58 196.024 1198.58 196.357C1198.42 200.284 1195.91 201.33 1192.63 202.003C1182.82 204.007 1175.24 210.128 1167.54 216.106C1159.5 222.349 1151.28 228.348 1142.17 232.974C1139.32 234.414 1136.36 235.644 1133.3 236.215C1128.9 237.037 1125.28 235.454 1122.55 231.52C1121.34 229.781 1120.71 227.268 1118.22 226.602" stroke="#131313" stroke-width="2" stroke-miterlimit="10" stroke-linecap="round" stroke-linejoin="round"/>
	<path d="M1118.95 144.829C1117.97 148.314 1116.8 151.758 1116.06 155.297C1115.3 158.864 1116.61 161.106 1120.45 163.09C1123.43 164.632 1126.61 165.78 1129.62 167.254C1133.59 169.19 1135.41 172.403 1135.99 176.928C1137.31 187.404 1137.03 197.838 1136.29 208.307C1136.23 209.163 1136.51 210.046 1136.63 210.916" stroke="#131313" stroke-width="2" stroke-miterlimit="10" stroke-linecap="round" stroke-linejoin="round"/>
	<path d="M1098.33 151.921C1101.44 153.008 1104.25 154.659 1106.41 157.165C1113.16 165.005 1120.71 172.132 1126.74 180.63C1128.21 182.696 1129.49 184.849 1130.7 187.037C1134.32 193.477 1131.44 197.791 1127.34 202.254C1123.32 206.629 1119.55 211.12 1116.37 216.147" stroke="#131313" stroke-width="2" stroke-miterlimit="10" stroke-linecap="round" stroke-linejoin="round"/>
	<path d="M1092.8 162.376C1101.72 164.931 1104.3 172.614 1106.34 180.325C1108.92 190.06 1110.71 199.999 1113.12 209.781C1114.35 214.781 1116.64 219.537 1117.07 224.734C1117.5 229.829 1119.22 234.931 1118.1 240.013C1117.32 243.593 1115.1 246.33 1111.66 248.382C1107.51 250.855 1103.2 250.508 1099.08 249.965C1092.5 249.095 1087.46 250.977 1082.36 255.189C1078.26 258.579 1076.3 263.471 1072.52 266.901C1069.16 269.958 1066.46 273.579 1062.76 276.473C1055.82 281.922 1054.61 290.121 1056.04 298.647C1056.14 299.259 1056.21 299.904 1056.34 300.529C1056.83 302.893 1058.35 305.74 1057.54 307.499C1056.57 309.639 1053.56 310.767 1051.56 312.493C1040.54 321.997 1032.2 333.383 1028.01 347.588C1027.48 349.375 1027.26 351.25 1026.13 352.805" stroke="#131313" stroke-width="2" stroke-miterlimit="10" stroke-linecap="round" stroke-linejoin="round"/>
	<path d="M1199.25 198.599C1200.06 199.557 1200.92 200.271 1202.2 199.347C1203.91 198.11 1205.9 193.3 1205.1 191.527C1203.74 188.518 1202.61 185.304 1198.53 184.727C1193.34 184 1189.36 185.569 1187.15 190.406C1185.06 195.012 1181.42 197.601 1177.16 199.741C1168.11 204.292 1158.69 207.757 1148.79 209.768C1145.76 210.379 1142.72 211.032 1139.58 210.93C1136.59 210.835 1135.03 211.962 1135.07 215.4C1135.11 218.579 1134.38 221.772 1132.32 224.483C1128.19 219.218 1129.28 214.483 1134.8 213.158" stroke="#131313" stroke-width="2" stroke-miterlimit="10" stroke-linecap="round" stroke-linejoin="round"/>
	<path d="M1167.2 443.539C1168.55 442.296 1169.89 441.039 1171.25 439.81C1174.91 436.481 1179.11 435.869 1183.37 438.75C1189.02 442.581 1195.15 444.368 1201.82 443.825C1204.88 443.573 1207.93 443.064 1211.03 443.166C1214.94 443.295 1216.67 446.148 1214.68 449.49C1212.37 453.39 1208.51 455.211 1204.41 456.63C1202.24 457.384 1199.79 457.643 1198.14 459.592" stroke="#131313" stroke-width="2" stroke-miterlimit="10" stroke-linecap="round" stroke-linejoin="round"/>
	<path d="M947.686 345.339C947.163 344.266 946.701 343.281 947.251 341.949C947.559 341.195 947.619 340.074 946.601 339.34C945.422 338.484 944.43 339.232 943.667 339.782C939.882 342.506 937.014 346.073 934.784 350.19C934.274 351.127 933.631 351.983 932.78 353.281C927.796 348.199 922.946 351.399 918.264 353.647C916.066 354.707 913.849 355.753 911.558 356.433C910.205 356.834 908.302 357.173 907.17 355.42" stroke="#131313" stroke-width="2" stroke-miterlimit="10" stroke-linecap="round" stroke-linejoin="round"/>
	<path d="M1131.48 110.1C1131.48 110.725 1131.5 111.343 1131.47 111.968C1131.29 116.072 1132.86 121.724 1135.09 125.82C1135.43 126.439 1136.09 127.546 1135.15 128.395C1131.94 131.316 1132.47 135.569 1131.55 139.244C1129.57 147.111 1126.58 148.613 1119.66 144.869C1118.18 144.068 1117.87 142.641 1117.15 141.439C1116.5 140.352 1115.87 139.475 1114.53 139.414" stroke="#131313" stroke-width="2" stroke-miterlimit="10" stroke-linecap="round" stroke-linejoin="round"/>
	<path d="M500.991 460.448C467.053 460.489 431.963 460.523 397.457 460.367C297.01 459.905 233.537 459.973 160.041 460.041C113.107 460.088 64.5724 460.136 0.669908 460.054C0.301459 460.034 0 460.36 0 460.734C0 461.107 0.301459 461.413 0.669908 461.413C64.5791 461.495 113.107 461.447 160.048 461.4C233.543 461.325 297.017 461.264 397.457 461.726C416.602 461.814 435.923 461.841 455.129 461.841C470.544 461.841 485.884 461.821 500.998 461.807C513.17 461.794 525.342 461.787 537.514 461.787V460.428C525.335 460.435 513.163 460.435 500.991 460.448Z" fill="#131313"/>
	<path d="M951.443 329.531C950.539 326.148 949.494 324.463 947.96 323.885C946.432 323.315 944.543 323.906 941.823 325.794C937.891 328.525 934.22 331.732 930.663 334.836L930.321 335.135C923.401 341.168 915.134 348.159 906.251 354.218C896.799 360.665 892.9 371.888 889.128 382.744C884.814 395.17 880.734 406.902 868.951 411.352C868.864 411.386 868.783 411.433 868.723 411.501C868.602 411.624 855.834 423.512 810.079 427.011C789.62 428.573 769.69 433.207 750.846 440.768L741.246 444.62C716.862 454.402 691.204 459.45 664.984 459.627L602.522 460.041C600.445 460 598.328 459.993 596.271 459.987C591.709 459.973 587 459.959 582.552 459.593C576.65 459.103 570.942 459.511 565.429 459.898C561.778 460.156 558 460.421 554.235 460.421C554.228 460.421 554.215 460.421 554.208 460.421C549.09 460.421 543.972 460.428 538.854 460.428V461.787C543.972 461.787 549.09 461.773 554.208 461.78C554.215 461.78 554.228 461.78 554.235 461.78C558.046 461.78 561.845 461.508 565.523 461.25C570.989 460.863 576.643 460.462 582.444 460.944C586.946 461.318 591.689 461.332 596.271 461.345C598.321 461.352 600.431 461.359 602.515 461.4L664.997 460.985C691.385 460.809 717.21 455.727 741.742 445.883L751.342 442.031C770.059 434.518 789.855 429.925 810.18 428.37C854.842 424.952 868.167 413.845 869.547 412.581C881.826 407.874 886.181 395.326 890.395 383.199C894.092 372.554 897.918 361.542 907.002 355.353C915.945 349.252 924.252 342.235 931.199 336.175L931.54 335.876C935.071 332.798 938.715 329.612 942.587 326.929C944.878 325.339 946.446 324.775 947.504 325.176C948.569 325.57 949.387 327.031 950.157 329.898C950.84 332.459 950.552 335.461 950.271 338.369C950.204 339.069 950.137 339.762 950.083 340.448C949.929 342.364 948.958 343.777 947.926 345.271C947.169 346.372 946.385 347.506 945.943 348.865C945.829 349.218 946.017 349.606 946.372 349.721C946.72 349.837 947.102 349.646 947.216 349.286C947.598 348.118 948.288 347.112 949.025 346.046C950.11 344.47 951.236 342.832 951.416 340.55C951.47 339.87 951.537 339.184 951.604 338.498C951.892 335.468 952.194 332.336 951.443 329.531Z" fill="#131313"/>
	<path d="M537.508 460.428V461.787C537.957 461.787 538.399 461.787 538.848 461.787V460.428C538.399 460.428 537.957 460.428 537.508 460.428Z" fill="#131313"/>
	<mask id="mask1_162_467" style="mask-type:alpha" maskUnits="userSpaceOnUse" x="1572" y="68" width="963" height="394">
	<rect width="961.318" height="393.345" transform="matrix(-1 0 0 1 2534.26 68.6553)" fill="#C4C4C4"/>
	</mask>
	<g mask="url(#mask1_162_467)">
	<path d="M2463.15 460.449C2429.22 460.489 2394.13 460.523 2359.62 460.367C2259.17 459.905 2195.7 459.973 2122.2 460.041C2075.27 460.089 2026.73 460.136 1962.83 460.055C1962.46 460.034 1962.16 460.36 1962.16 460.734C1962.16 461.108 1962.46 461.413 1962.83 461.413C2026.74 461.495 2075.27 461.447 2122.21 461.4C2195.71 461.325 2259.18 461.264 2359.62 461.726C2378.76 461.814 2398.08 461.841 2417.29 461.841C2432.71 461.841 2448.05 461.821 2463.16 461.807C2475.33 461.794 2487.5 461.787 2499.68 461.787V460.428C2487.5 460.435 2475.33 460.435 2463.15 460.449Z" fill="#131313"/>
	</g>
	</g>
	</svg>
	