<svg width="426" height="552" viewBox="0 0 426 552" fill="none" xmlns="http://www.w3.org/2000/svg">
<path d="M256.875 0H29.1254C21.4035 0.0147105 14.0004 5.21106 8.54022 14.449C3.08002 23.6869 0.00867555 36.2121 0 49.2765V501.724C0.00867717 514.788 3.08003 527.313 8.54022 536.551C14.0004 545.789 21.4035 550.985 29.1254 551H256.875C264.596 550.985 272 545.789 277.46 536.551C282.92 527.313 285.991 514.788 286 501.724V49.2765C285.991 36.2121 282.92 23.6869 277.46 14.449C272 5.21106 264.596 0.0147105 256.875 0Z" fill="#2F2E41"/>
<g clip-path="url(#clip0_82_149)">
<path d="M257.2 14H28.8002C23.2855 14.0105 17.9985 17.7348 14.0991 24.3557C10.1996 30.9767 8.00619 39.9537 8 49.3172V504.683C8.0062 514.046 10.1996 523.023 14.0991 529.644C17.9985 536.265 23.2855 539.99 28.8002 540H257.2C262.715 539.989 268.002 536.265 271.901 529.644C275.8 523.023 277.994 514.046 278 504.683V49.3172C277.994 39.9538 275.8 30.9769 271.901 24.3559C268.002 17.7349 262.715 14.0106 257.2 14Z" fill="#FFFCFC"/>
<mask id="path-3-inside-1_82_149" fill="white">
<path d="M23 342C23 325.431 36.4315 312 53 312H233C249.569 312 263 325.431 263 342V391C263 407.569 249.569 421 233 421H53C36.4315 421 23 407.569 23 391V342Z"/>
</mask>
<path d="M23 342C23 325.431 36.4315 312 53 312H233C249.569 312 263 325.431 263 342V391C263 407.569 249.569 421 233 421H53C36.4315 421 23 407.569 23 391V342Z" fill="#FFFCFC"/>
<path d="M53 313H233V311H53V313ZM262 342V391H264V342H262ZM233 420H53V422H233V420ZM24 391V342H22V391H24ZM53 420C36.9837 420 24 407.016 24 391H22C22 408.121 35.8792 422 53 422V420ZM262 391C262 407.016 249.016 420 233 420V422C250.121 422 264 408.121 264 391H262ZM233 313C249.016 313 262 325.984 262 342H264C264 324.879 250.121 311 233 311V313ZM53 311C35.8792 311 22 324.879 22 342H24C24 325.984 36.9837 313 53 313V311Z" fill="#E2E2E2" mask="url(#path-3-inside-1_82_149)"/>
<rect x="43.7568" y="328.869" width="132.324" height="8.65079" rx="4.3254" fill="#ADC6E2"/>
<rect x="43.7568" y="359.58" width="114.595" height="3.46032" rx="1.73016" fill="#D2E0F1"/>
<rect x="43.7568" y="342.71" width="73.5135" height="3.02778" rx="1.51389" fill="#F0F6FC"/>
<rect x="43.7568" y="350.929" width="114.595" height="3.46032" rx="1.73016" fill="#D2E0F1"/>
<rect x="43.7568" y="368.23" width="98.5946" height="3.46032" rx="1.73016" fill="#D2E0F1"/>
<rect x="43.7568" y="377" width="35.4595" height="3.46032" rx="1.73016" fill="#D2E0F1"/>
<path d="M190.784 398.317C190.784 395.556 193.022 393.317 195.784 393.317H243.297C246.059 393.317 248.297 395.556 248.297 398.317V406.052C248.297 408.813 246.059 411.052 243.297 411.052H195.784C193.022 411.052 190.784 408.813 190.784 406.052V398.317Z" fill="#E6E1E0"/>
<rect x="182" y="330" width="17" height="6" rx="3" fill="#FFBFC8"/>
<ellipse cx="51.9731" cy="402.401" rx="8.21622" ry="8.21825" fill="#C4C4C4"/>
<path d="M59.6893 402.401C59.6893 406.664 56.2345 410.119 51.9731 410.119C47.7116 410.119 44.2568 406.664 44.2568 402.401C44.2568 398.138 47.7116 394.683 51.9731 394.683C56.2345 394.683 59.6893 398.138 59.6893 402.401Z" fill="#FFE2D9" stroke="#C4C3C3"/>
<path d="M72.6619 402.401C72.6619 406.664 69.2071 410.119 64.9457 410.119C60.6843 410.119 57.2295 406.664 57.2295 402.401C57.2295 398.138 60.6843 394.683 64.9457 394.683C69.2071 394.683 72.6619 398.138 72.6619 402.401Z" fill="#FFE2D9" stroke="#C4C3C3"/>
<path d="M85.6351 402.401C85.6351 406.664 82.1803 410.119 77.9189 410.119C73.6574 410.119 70.2026 406.664 70.2026 402.401C70.2026 398.138 73.6574 394.683 77.9189 394.683C82.1803 394.683 85.6351 398.138 85.6351 402.401Z" fill="#FFE2D9" stroke="#C4C3C3"/>
<path d="M98.6082 402.401C98.6082 406.664 95.1534 410.119 90.892 410.119C86.6306 410.119 83.1758 406.664 83.1758 402.401C83.1758 398.138 86.6306 394.683 90.892 394.683C95.1534 394.683 98.6082 398.138 98.6082 402.401Z" fill="#FFE2D9" stroke="#C4C3C3"/>
<path d="M111.581 402.401C111.581 406.664 108.126 410.119 103.865 410.119C99.6032 410.119 96.1484 406.664 96.1484 402.401C96.1484 398.138 99.6032 394.683 103.865 394.683C108.126 394.683 111.581 398.138 111.581 402.401Z" fill="#FFE2D9" stroke="#C4C3C3"/>
<path d="M124.554 402.401C124.554 406.664 121.099 410.119 116.838 410.119C112.576 410.119 109.122 406.664 109.122 402.401C109.122 398.138 112.576 394.683 116.838 394.683C121.099 394.683 124.554 398.138 124.554 402.401Z" fill="#FFE2D9" stroke="#C4C3C3"/>
<path d="M136.932 402.218C136.932 406.481 133.478 409.937 129.216 409.937C124.955 409.937 121.5 406.481 121.5 402.218C121.5 397.955 124.955 394.5 129.216 394.5C133.478 394.5 136.932 397.955 136.932 402.218Z" fill="#FFE2D9" stroke="#C4C3C3"/>
<mask id="path-21-inside-2_82_149" fill="white">
<path d="M23 60C23 43.4315 36.4315 30 53 30H233C249.569 30 263 43.4315 263 60V109C263 125.569 249.569 139 233 139H53C36.4315 139 23 125.569 23 109V60Z"/>
</mask>
<path d="M23 60C23 43.4315 36.4315 30 53 30H233C249.569 30 263 43.4315 263 60V109C263 125.569 249.569 139 233 139H53C36.4315 139 23 125.569 23 109V60Z" fill="#FFFCFC"/>
<path d="M53 31H233V29H53V31ZM262 60V109H264V60H262ZM233 138H53V140H233V138ZM24 109V60H22V109H24ZM53 138C36.9837 138 24 125.016 24 109H22C22 126.121 35.8792 140 53 140V138ZM262 109C262 125.016 249.016 138 233 138V140C250.121 140 264 126.121 264 109H262ZM233 31C249.016 31 262 43.9837 262 60H264C264 42.8792 250.121 29 233 29V31ZM53 29C35.8792 29 22 42.8792 22 60H24C24 43.9837 36.9837 31 53 31V29Z" fill="#E2E2E2" mask="url(#path-21-inside-2_82_149)"/>
<rect x="43.7568" y="46.8691" width="132.324" height="8.65079" rx="4.3254" fill="#ADC6E2"/>
<rect x="43.7568" y="77.5796" width="114.595" height="3.46032" rx="1.73016" fill="#D2E0F1"/>
<rect x="43.7568" y="60.7104" width="73.5135" height="3.02778" rx="1.51389" fill="#F0F6FC"/>
<rect x="43.7568" y="68.9287" width="114.595" height="3.46032" rx="1.73016" fill="#D2E0F1"/>
<rect x="43.7568" y="86.23" width="98.5946" height="3.46032" rx="1.73016" fill="#D2E0F1"/>
<rect x="43.7568" y="95" width="35.4595" height="3.46032" rx="1.73016" fill="#D2E0F1"/>
<path d="M190.784 116.317C190.784 113.556 193.022 111.317 195.784 111.317H243.297C246.059 111.317 248.297 113.556 248.297 116.317V124.052C248.297 126.813 246.059 129.052 243.297 129.052H195.784C193.022 129.052 190.784 126.813 190.784 124.052V116.317Z" fill="#E6E1E0"/>
<rect x="182" y="48" width="17" height="6" rx="3" fill="#FFBFC8"/>
<ellipse cx="51.9731" cy="120.401" rx="8.21622" ry="8.21825" fill="#C4C4C4"/>
<path d="M59.6893 120.401C59.6893 124.664 56.2345 128.119 51.9731 128.119C47.7116 128.119 44.2568 124.664 44.2568 120.401C44.2568 116.138 47.7116 112.683 51.9731 112.683C56.2345 112.683 59.6893 116.138 59.6893 120.401Z" fill="#FFE2D9" stroke="#C4C3C3"/>
<path d="M72.6619 120.401C72.6619 124.664 69.2071 128.119 64.9457 128.119C60.6843 128.119 57.2295 124.664 57.2295 120.401C57.2295 116.138 60.6843 112.683 64.9457 112.683C69.2071 112.683 72.6619 116.138 72.6619 120.401Z" fill="#FFE2D9" stroke="#C4C3C3"/>
<path d="M85.6351 120.401C85.6351 124.664 82.1803 128.119 77.9189 128.119C73.6574 128.119 70.2026 124.664 70.2026 120.401C70.2026 116.138 73.6574 112.683 77.9189 112.683C82.1803 112.683 85.6351 116.138 85.6351 120.401Z" fill="#FFE2D9" stroke="#C4C3C3"/>
<path d="M98.6082 120.401C98.6082 124.664 95.1534 128.119 90.892 128.119C86.6306 128.119 83.1758 124.664 83.1758 120.401C83.1758 116.138 86.6306 112.683 90.892 112.683C95.1534 112.683 98.6082 116.138 98.6082 120.401Z" fill="#FFE2D9" stroke="#C4C3C3"/>
<path d="M111.581 120.401C111.581 124.664 108.126 128.119 103.865 128.119C99.6032 128.119 96.1484 124.664 96.1484 120.401C96.1484 116.138 99.6032 112.683 103.865 112.683C108.126 112.683 111.581 116.138 111.581 120.401Z" fill="#FFE2D9" stroke="#C4C3C3"/>
<mask id="path-37-inside-3_82_149" fill="white">
<path d="M23 201C23 184.431 36.4315 171 53 171H233C249.569 171 263 184.431 263 201V250C263 266.569 249.569 280 233 280H53C36.4315 280 23 266.569 23 250V201Z"/>
</mask>
<path d="M23 201C23 184.431 36.4315 171 53 171H233C249.569 171 263 184.431 263 201V250C263 266.569 249.569 280 233 280H53C36.4315 280 23 266.569 23 250V201Z" fill="#FFFCFC"/>
<path d="M53 172H233V170H53V172ZM262 201V250H264V201H262ZM233 279H53V281H233V279ZM24 250V201H22V250H24ZM53 279C36.9837 279 24 266.016 24 250H22C22 267.121 35.8792 281 53 281V279ZM262 250C262 266.016 249.016 279 233 279V281C250.121 281 264 267.121 264 250H262ZM233 172C249.016 172 262 184.984 262 201H264C264 183.879 250.121 170 233 170V172ZM53 170C35.8792 170 22 183.879 22 201H24C24 184.984 36.9837 172 53 172V170Z" fill="#E2E2E2" mask="url(#path-37-inside-3_82_149)"/>
<rect x="43.7568" y="187.869" width="132.324" height="8.65079" rx="4.3254" fill="#ADC6E2"/>
<rect x="43.7568" y="218.58" width="114.595" height="3.46032" rx="1.73016" fill="#D2E0F1"/>
<rect x="43.7568" y="201.71" width="73.5135" height="3.02778" rx="1.51389" fill="#F0F6FC"/>
<rect x="43.7568" y="209.929" width="114.595" height="3.46032" rx="1.73016" fill="#D2E0F1"/>
<rect x="43.7568" y="227.23" width="98.5946" height="3.46032" rx="1.73016" fill="#D2E0F1"/>
<rect x="43.7568" y="236" width="35.4595" height="3.46032" rx="1.73016" fill="#D2E0F1"/>
<path d="M190.784 257.317C190.784 254.556 193.022 252.317 195.784 252.317H243.297C246.059 252.317 248.297 254.556 248.297 257.317V265.052C248.297 267.813 246.059 270.052 243.297 270.052H195.784C193.022 270.052 190.784 267.813 190.784 265.052V257.317Z" fill="#E6E1E0"/>
<rect x="182" y="189" width="17" height="6" rx="3" fill="#FFBFC8"/>
<ellipse cx="51.9731" cy="261.401" rx="8.21622" ry="8.21825" fill="#C4C4C4"/>
<path d="M59.6893 261.401C59.6893 265.664 56.2345 269.119 51.9731 269.119C47.7116 269.119 44.2568 265.664 44.2568 261.401C44.2568 257.138 47.7116 253.683 51.9731 253.683C56.2345 253.683 59.6893 257.138 59.6893 261.401Z" fill="#FFE2D9" stroke="#C4C3C3"/>
<path d="M72.6619 261.401C72.6619 265.664 69.2071 269.119 64.9457 269.119C60.6843 269.119 57.2295 265.664 57.2295 261.401C57.2295 257.138 60.6843 253.683 64.9457 253.683C69.2071 253.683 72.6619 257.138 72.6619 261.401Z" fill="#FFE2D9" stroke="#C4C3C3"/>
<path d="M85.6351 261.401C85.6351 265.664 82.1803 269.119 77.9189 269.119C73.6574 269.119 70.2026 265.664 70.2026 261.401C70.2026 257.138 73.6574 253.683 77.9189 253.683C82.1803 253.683 85.6351 257.138 85.6351 261.401Z" fill="#FFE2D9" stroke="#C4C3C3"/>
<path d="M98.6082 261.401C98.6082 265.664 95.1534 269.119 90.892 269.119C86.6306 269.119 83.1758 265.664 83.1758 261.401C83.1758 257.138 86.6306 253.683 90.892 253.683C95.1534 253.683 98.6082 257.138 98.6082 261.401Z" fill="#FFE2D9" stroke="#C4C3C3"/>
<mask id="path-52-inside-4_82_149" fill="white">
<path d="M23 483C23 466.431 36.4315 453 53 453H233C249.569 453 263 466.431 263 483V532C263 548.569 249.569 562 233 562H53C36.4315 562 23 548.569 23 532V483Z"/>
</mask>
<path d="M23 483C23 466.431 36.4315 453 53 453H233C249.569 453 263 466.431 263 483V532C263 548.569 249.569 562 233 562H53C36.4315 562 23 548.569 23 532V483Z" fill="#FFFCFC"/>
<path d="M53 454H233V452H53V454ZM262 483V532H264V483H262ZM233 561H53V563H233V561ZM24 532V483H22V532H24ZM53 561C36.9837 561 24 548.016 24 532H22C22 549.121 35.8792 563 53 563V561ZM262 532C262 548.016 249.016 561 233 561V563C250.121 563 264 549.121 264 532H262ZM233 454C249.016 454 262 466.984 262 483H264C264 465.879 250.121 452 233 452V454ZM53 452C35.8792 452 22 465.879 22 483H24C24 466.984 36.9837 454 53 454V452Z" fill="#E2E2E2" mask="url(#path-52-inside-4_82_149)"/>
<rect x="43.7568" y="469.869" width="132.324" height="8.65079" rx="4.3254" fill="#ADC6E2"/>
<rect x="43.7568" y="500.58" width="114.595" height="3.46032" rx="1.73016" fill="#D2E0F1"/>
<rect x="43.7568" y="483.71" width="73.5135" height="3.02778" rx="1.51389" fill="#F0F6FC"/>
<rect x="43.7568" y="491.929" width="114.595" height="3.46032" rx="1.73016" fill="#D2E0F1"/>
<rect x="43.7568" y="509.23" width="98.5946" height="3.46032" rx="1.73016" fill="#D2E0F1"/>
<rect x="43.7568" y="518" width="35.4595" height="3.46032" rx="1.73016" fill="#D2E0F1"/>
<path d="M190.784 539.317C190.784 536.556 193.022 534.317 195.784 534.317H243.297C246.059 534.317 248.297 536.556 248.297 539.317V547.052C248.297 549.813 246.059 552.052 243.297 552.052H195.784C193.022 552.052 190.784 549.813 190.784 547.052V539.317Z" fill="#E6E1E0"/>
<rect x="182" y="471" width="17" height="6" rx="3" fill="#FFBFC8"/>
<ellipse cx="51.9731" cy="543.401" rx="8.21622" ry="8.21825" fill="#C4C4C4"/>
<path d="M59.6893 543.401C59.6893 547.664 56.2345 551.119 51.9731 551.119C47.7116 551.119 44.2568 547.664 44.2568 543.401C44.2568 539.138 47.7116 535.683 51.9731 535.683C56.2345 535.683 59.6893 539.138 59.6893 543.401Z" fill="#FFE2D9" stroke="#C4C3C3"/>
<path d="M72.6619 543.401C72.6619 547.664 69.2071 551.119 64.9457 551.119C60.6843 551.119 57.2295 547.664 57.2295 543.401C57.2295 539.138 60.6843 535.683 64.9457 535.683C69.2071 535.683 72.6619 539.138 72.6619 543.401Z" fill="#FFE2D9" stroke="#C4C3C3"/>
<path d="M85.6351 543.401C85.6351 547.664 82.1803 551.119 77.9189 551.119C73.6574 551.119 70.2026 547.664 70.2026 543.401C70.2026 539.138 73.6574 535.683 77.9189 535.683C82.1803 535.683 85.6351 539.138 85.6351 543.401Z" fill="#FFE2D9" stroke="#C4C3C3"/>
<path d="M98.6082 543.401C98.6082 547.664 95.1534 551.119 90.892 551.119C86.6306 551.119 83.1758 547.664 83.1758 543.401C83.1758 539.138 86.6306 535.683 90.892 535.683C95.1534 535.683 98.6082 539.138 98.6082 543.401Z" fill="#FFE2D9" stroke="#C4C3C3"/>
<path d="M111.581 543.401C111.581 547.664 108.126 551.119 103.865 551.119C99.6032 551.119 96.1484 547.664 96.1484 543.401C96.1484 539.138 99.6032 535.683 103.865 535.683C108.126 535.683 111.581 539.138 111.581 543.401Z" fill="#FFE2D9" stroke="#C4C3C3"/>
<path d="M124.554 543.401C124.554 547.664 121.099 551.119 116.838 551.119C112.576 551.119 109.122 547.664 109.122 543.401C109.122 539.138 112.576 535.683 116.838 535.683C121.099 535.683 124.554 539.138 124.554 543.401Z" fill="#FFE2D9" stroke="#C4C3C3"/>
<rect x="109" y="6" width="69" height="14" rx="5" fill="#2F2E41"/>
</g>
<path d="M415.899 396.315L414.279 401.268L416.538 408.381C416.538 408.381 414.972 409.322 413.768 406.932L411.687 401.042L412.977 395.398L415.899 396.315Z" fill="#CA8268"/>
<path d="M413.765 397.835L412.282 402.655L413.674 409.804C413.674 409.804 412.427 410.657 411.62 408.234L410.301 402.303L411.569 396.784L413.765 397.835Z" fill="#CA8268"/>
<path d="M408.568 398.558L410.25 392.829L412.209 385.699L416.735 385.697L417.23 393.574L417.058 397.653L416.764 403.209L416.761 405.017C416.761 405.017 415.313 405.279 414.608 402.302L414.174 396.961L411.7 400.762L412.368 408.143C412.368 408.143 411.448 411.817 410.541 410.256L408.222 399.7L408.568 398.558Z" fill="#E69376"/>
<path d="M419.575 391.818L425.545 342.039C411.345 333.121 407.529 344.252 407.529 344.252L409.421 390.007C409.421 390.007 412.138 392.489 419.575 391.818Z" fill="#68BACB"/>
<path d="M425.51 340.11L421.958 289.915C419.274 277.648 406.99 281.709 406.99 281.709C397.018 284.689 397.845 296.153 397.845 296.153L407.934 344.025C407.934 344.025 409.966 351.331 419.264 351.042C419.264 351.042 426.095 349.884 425.51 340.11Z" fill="#68BACB"/>
<path d="M409.203 351.051L419.782 295.315C419.782 295.315 423.155 286.984 416.936 282.619L393.107 270.714L382.896 266.513L353.481 282.877L364.114 349.925L409.203 351.051Z" fill="#F7A583"/>
<path d="M389.404 534.677L385.859 543.429L380.46 545.6C380.46 545.6 375.168 546.995 374.961 552H401.986L398.958 534.692L389.404 534.677Z" fill="#2B080C"/>
<path d="M406.827 391.568C406.592 400.749 402.354 408.091 393.446 407.866C384.539 407.644 377.506 400.017 377.739 390.836C377.971 381.652 385.381 374.39 394.289 374.615C403.196 374.84 407.055 382.385 406.827 391.568Z" fill="#75CFE1"/>
<path d="M376.348 399.564L379.002 463.695C379.002 463.695 396.718 474.815 401.24 464.387C401.24 464.387 407.089 415.755 406.828 391.318C406.828 391.318 382.577 377.591 376.348 399.564Z" fill="#056296"/>
<path d="M401.817 543.772L404.065 490.715C404.065 472.463 401.882 457.85 401.882 457.85C389.931 445.492 379.119 464.04 379.119 464.04L381.993 544.266C381.993 544.266 396.114 544.729 401.817 543.772Z" fill="#056296"/>
<path d="M361.796 551.184L360.73 535.669L353.548 534.677C353.548 534.677 350.654 541.079 348.201 542.537C345.746 543.995 337.111 545.296 337.111 545.296C337.111 545.296 332 544.698 332 550.969C332 550.969 335.254 553.138 361.796 551.184Z" fill="#2B080C"/>
<path d="M387.397 390.888C386.801 400.056 379.041 407.023 370.073 406.452C361.097 405.879 354.307 397.985 354.903 388.818C355.502 379.653 363.26 372.686 372.232 373.257C381.206 373.829 387.999 381.726 387.397 390.888Z" fill="#75CFE1"/>
<path d="M355.307 390.973L345.858 461.079C345.858 461.079 355.312 478.613 369.313 468.453L388.82 399.584C388.82 399.584 380.496 373.635 355.307 390.973Z" fill="#356E97"/>
<path d="M362.546 543.015L366.837 500.296C370.111 476.514 370.111 465.372 370.111 465.372C365.051 446.678 345.539 460.788 345.539 460.788L343.78 543.635C343.78 543.635 354.68 545.664 362.546 543.015Z" fill="#356E97"/>
<path d="M361.953 350.357C361.953 350.357 355.341 363.873 354.867 393.778C354.867 393.778 361.154 405.797 370.289 406.577C397.356 408.893 403.286 404.483 406.303 393.824L406.58 371.264L406.836 350.357H361.953Z" fill="#056296"/>
<path d="M376.112 258.198L375.655 276.426L395.057 276.907C395.057 276.907 390.465 269.564 393.127 258.621L376.112 258.198Z" fill="#F7A583"/>
<path d="M372.955 262.361C367.588 262.583 366.825 257.539 366.825 257.539C363.803 247.329 364.689 240.974 364.689 240.974C365.162 239.445 365.546 237.836 365.349 236.137C364.385 227.888 369.045 223.877 369.045 223.877C374.508 216.915 385.619 218.082 385.619 218.082C385.928 218.129 386.221 218.189 386.518 218.246C400.197 219.277 402.13 227.727 402.13 227.727C403.501 231.426 403.723 235.551 402.865 239.375C401.881 243.798 399.906 247.416 397.571 251.203C395.017 255.334 390.004 258.128 384.691 259.91L384.561 265.127L377.891 264.958C377.023 262.15 374.643 262.374 374.643 262.374L372.955 262.361Z" fill="#F7A583"/>
<path d="M374.628 262.067C374.628 262.067 375.434 261.954 376.31 262.492L376.089 271.24L381.148 271.363C380.138 268.033 380.377 264.089 381.246 261.152C384.611 258.168 389.795 256.461 394.364 252.067C393.088 252.049 388.376 251.965 387.101 252.006C384.737 252.08 382.355 251.844 379.994 252.044C377.887 252.223 377.947 253.98 377.555 255.682C377.401 256.356 377.231 257.014 376.997 257.622C376.92 257.821 376.835 258.014 376.738 258.196L376.733 258.206C376.636 258.391 376.527 258.565 376.407 258.732C375.93 259.395 375.259 259.901 374.223 260.103C371.594 260.618 369.308 260.554 367.339 258.911C368.069 260.403 369.614 262.167 372.932 262.054L374.628 262.067Z" fill="#E1876F"/>
<path d="M390.017 212.124C390.017 212.124 408.824 214.623 404.994 228.343C404.994 228.343 409.075 233.064 408.06 237.745C407.628 246.484 395.331 257.845 395.331 257.845C394.227 260.138 392.517 260.277 392.517 260.277L386.441 260.123C383.776 259.971 382.901 258.253 382.901 258.253C378.248 252.546 375.763 250.408 375.763 250.408C373.527 247.815 376.588 242.928 376.588 242.928C378.907 237.138 372.918 237.498 372.918 237.498C370.438 238.654 371.085 243.425 371.085 243.425C370.064 243.319 369.063 242.166 369.063 242.166L369.506 235.112C369.211 233.225 369.627 232.827 368.05 231.594C356.49 228.613 364.495 216.455 364.495 216.455C364.495 216.455 368.236 212.049 376.009 209L375.101 212.218C375.101 212.218 383.658 212.028 390.017 212.124Z" fill="#DC6D40"/>
<path d="M408.63 370.981L409.203 350.855L419.782 295.039C419.782 295.039 423.155 286.695 416.936 282.325L393.107 270.402C393.107 270.402 386.956 272.684 376.103 269.978L353.481 282.583L359.367 345.81L357.148 369.695C357.148 369.695 383.133 378.268 408.63 370.981Z" fill="#95D7E3"/>
<path d="M398.756 406.252C405.778 405.087 412.085 402.703 416.549 398.453L417.565 343.437L421.097 291.791C423.035 283.162 414.667 280.74 414.667 280.74L396.112 271.507C396.112 271.507 386.577 275.872 373.178 271.364L353.043 282.201L351.958 338.607L346.552 401.249C346.552 401.249 366.574 407.126 386.165 407.178H391.958L398.756 406.252Z" fill="#7AD8EC"/>
<path d="M376.754 266.769C376.754 266.769 387.238 265.971 392.73 267.193L399.907 274.106C399.907 274.106 385.929 275.968 370.804 273.713L376.754 266.769Z" fill="#7AD0E2"/>
<path d="M340.907 404.809L340.624 408.806C340.624 408.806 346.226 411.176 345.84 413.343C345.84 413.343 345.691 414.29 345.013 414.076L338.078 411.382L336.158 404.406L340.907 404.809Z" fill="#E69376"/>
<path d="M339.084 407.842L338.236 403.02L342.336 403.112L342.266 406.247L346.562 408.41C346.562 408.41 347.963 409.123 346.75 410.642L339.084 407.842Z" fill="#E69376"/>
<path d="M336.544 393.31L333.386 403.394C333.386 403.394 333.53 410.473 335.826 412.994C335.826 412.994 340.084 417.311 342.57 416.843C342.57 416.843 343.909 416.002 341.614 413.574C341.614 413.574 338.176 411.519 338.173 406.478C338.173 406.478 347.353 402.74 344.677 395.27L344.293 392.096L337.788 389.854L336.544 393.31Z" fill="#F7A583"/>
<path d="M361.352 348.205L367.339 296.899C365.67 285.28 353.425 282.451 353.425 282.451C343.421 287.602 342.394 299.831 342.394 299.831V343.552C342.394 343.552 345.171 355.734 351.334 355.191C351.334 355.191 361.144 354.992 361.352 348.205Z" fill="#75CFE1"/>
<path d="M360.41 350.903L345.788 398.151C339.37 398.477 333.386 394.474 333.386 394.474L342.367 342.523C342.367 342.523 359.978 339.025 360.41 350.903Z" fill="#75CFE1"/>
<defs>
<clipPath id="clip0_82_149">
<rect width="270" height="526" fill="white" transform="translate(8 14)"/>
</clipPath>
</defs>
</svg>
