<svg width="524" height="552" viewBox="0 0 524 552" fill="none" xmlns="http://www.w3.org/2000/svg">
<path d="M256.875 0H29.1254C21.4035 0.0147105 14.0004 5.21106 8.54022 14.449C3.08002 23.6869 0.00867555 36.2121 0 49.2765V501.724C0.00867717 514.788 3.08003 527.313 8.54022 536.551C14.0004 545.789 21.4035 550.985 29.1254 551H256.875C264.596 550.985 272 545.789 277.46 536.551C282.92 527.313 285.991 514.788 286 501.724V49.2765C285.991 36.2121 282.92 23.6869 277.46 14.449C272 5.21106 264.596 0.0147105 256.875 0Z" fill="#2F2E41"/>
<g clip-path="url(#clip0_82_152)">
<path d="M257.2 17H28.8002C23.2855 17.0104 17.9985 20.7135 14.0991 27.2967C10.1996 33.8799 8.00619 42.8057 8 52.1157V504.884C8.0062 514.194 10.1996 523.12 14.0991 529.703C17.9985 536.286 23.2855 539.99 28.8002 540H257.2C262.715 539.989 268.002 536.286 271.901 529.703C275.8 523.12 277.994 514.194 278 504.884V52.1157C277.994 42.8057 275.8 33.88 271.901 27.2968C268.002 20.7136 262.715 17.0105 257.2 17Z" fill="#FFFCFC"/>
<mask id="path-3-inside-1_82_152" fill="white">
<path d="M23 391C23 374.431 36.4315 361 53 361H233C249.569 361 263 374.431 263 391V440C263 456.569 249.569 470 233 470H53C36.4315 470 23 456.569 23 440V391Z"/>
</mask>
<path d="M23 391C23 374.431 36.4315 361 53 361H233C249.569 361 263 374.431 263 391V440C263 456.569 249.569 470 233 470H53C36.4315 470 23 456.569 23 440V391Z" fill="#FFFCFC"/>
<path d="M53 362H233V360H53V362ZM262 391V440H264V391H262ZM233 469H53V471H233V469ZM24 440V391H22V440H24ZM53 469C36.9837 469 24 456.016 24 440H22C22 457.121 35.8792 471 53 471V469ZM262 440C262 456.016 249.016 469 233 469V471C250.121 471 264 457.121 264 440H262ZM233 362C249.016 362 262 374.984 262 391H264C264 373.879 250.121 360 233 360V362ZM53 360C35.8792 360 22 373.879 22 391H24C24 374.984 36.9837 362 53 362V360Z" fill="#E2E2E2" mask="url(#path-3-inside-1_82_152)"/>
<rect x="43.7568" y="377.869" width="132.324" height="8.65079" rx="4.3254" fill="#ADC6E2"/>
<rect x="43.7568" y="408.58" width="114.595" height="3.46032" rx="1.73016" fill="#D2E0F1"/>
<rect x="43.7568" y="391.71" width="73.5135" height="3.02778" rx="1.51389" fill="#F0F6FC"/>
<rect x="43.7568" y="399.929" width="114.595" height="3.46032" rx="1.73016" fill="#D2E0F1"/>
<rect x="43.7568" y="417.23" width="98.5946" height="3.46032" rx="1.73016" fill="#D2E0F1"/>
<rect x="43.7568" y="426" width="35.4595" height="3.46032" rx="1.73016" fill="#D2E0F1"/>
<path d="M190.784 447.317C190.784 444.556 193.022 442.317 195.784 442.317H243.297C246.059 442.317 248.297 444.556 248.297 447.317V455.052C248.297 457.813 246.059 460.052 243.297 460.052H195.784C193.022 460.052 190.784 457.813 190.784 455.052V447.317Z" fill="#E6E1E0"/>
<rect x="182" y="379" width="17" height="6" rx="3" fill="#FFBFC8"/>
<ellipse cx="51.9731" cy="451.401" rx="8.21622" ry="8.21825" fill="#C4C4C4"/>
<path d="M59.6893 451.401C59.6893 455.664 56.2345 459.119 51.9731 459.119C47.7116 459.119 44.2568 455.664 44.2568 451.401C44.2568 447.138 47.7116 443.683 51.9731 443.683C56.2345 443.683 59.6893 447.138 59.6893 451.401Z" fill="#FFE2D9" stroke="#C4C3C3"/>
<path d="M72.6619 451.401C72.6619 455.664 69.2071 459.119 64.9457 459.119C60.6843 459.119 57.2295 455.664 57.2295 451.401C57.2295 447.138 60.6843 443.683 64.9457 443.683C69.2071 443.683 72.6619 447.138 72.6619 451.401Z" fill="#FFE2D9" stroke="#C4C3C3"/>
<path d="M85.6351 451.401C85.6351 455.664 82.1803 459.119 77.9189 459.119C73.6574 459.119 70.2026 455.664 70.2026 451.401C70.2026 447.138 73.6574 443.683 77.9189 443.683C82.1803 443.683 85.6351 447.138 85.6351 451.401Z" fill="#FFE2D9" stroke="#C4C3C3"/>
<path d="M98.6082 451.401C98.6082 455.664 95.1534 459.119 90.892 459.119C86.6306 459.119 83.1758 455.664 83.1758 451.401C83.1758 447.138 86.6306 443.683 90.892 443.683C95.1534 443.683 98.6082 447.138 98.6082 451.401Z" fill="#FFE2D9" stroke="#C4C3C3"/>
<path d="M111.581 451.401C111.581 455.664 108.126 459.119 103.865 459.119C99.6032 459.119 96.1484 455.664 96.1484 451.401C96.1484 447.138 99.6032 443.683 103.865 443.683C108.126 443.683 111.581 447.138 111.581 451.401Z" fill="#FFE2D9" stroke="#C4C3C3"/>
<path d="M124.554 451.401C124.554 455.664 121.099 459.119 116.838 459.119C112.576 459.119 109.122 455.664 109.122 451.401C109.122 447.138 112.576 443.683 116.838 443.683C121.099 443.683 124.554 447.138 124.554 451.401Z" fill="#FFE2D9" stroke="#C4C3C3"/>
<path d="M137.932 451.218C137.932 455.481 134.478 458.937 130.216 458.937C125.955 458.937 122.5 455.481 122.5 451.218C122.5 446.955 125.955 443.5 130.216 443.5C134.478 443.5 137.932 446.955 137.932 451.218Z" fill="#FFE2D9" stroke="#C4C3C3"/>
<path d="M150.932 451.218C150.932 455.481 147.478 458.937 143.216 458.937C138.955 458.937 135.5 455.481 135.5 451.218C135.5 446.955 138.955 443.5 143.216 443.5C147.478 443.5 150.932 446.955 150.932 451.218Z" fill="#FFE2D9" stroke="#C4C3C3"/>
<mask id="path-22-inside-2_82_152" fill="white">
<path d="M23 -32C23 -48.5685 36.4315 -62 53 -62H233C249.569 -62 263 -48.5685 263 -32V17C263 33.5685 249.569 47 233 47H53C36.4315 47 23 33.5685 23 17V-32Z"/>
</mask>
<path d="M23 -32C23 -48.5685 36.4315 -62 53 -62H233C249.569 -62 263 -48.5685 263 -32V17C263 33.5685 249.569 47 233 47H53C36.4315 47 23 33.5685 23 17V-32Z" fill="#FFFCFC"/>
<path d="M53 -61H233V-63H53V-61ZM262 -32V17H264V-32H262ZM233 46H53V48H233V46ZM24 17V-32H22V17H24ZM53 46C36.9837 46 24 33.0163 24 17H22C22 34.1208 35.8792 48 53 48V46ZM262 17C262 33.0163 249.016 46 233 46V48C250.121 48 264 34.1208 264 17H262ZM233 -61C249.016 -61 262 -48.0163 262 -32H264C264 -49.1208 250.121 -63 233 -63V-61ZM53 -63C35.8792 -63 22 -49.1208 22 -32H24C24 -48.0163 36.9837 -61 53 -61V-63Z" fill="#E2E2E2" mask="url(#path-22-inside-2_82_152)"/>
<path d="M190.784 24.3174C190.784 21.556 193.022 19.3174 195.784 19.3174H243.297C246.059 19.3174 248.297 21.556 248.297 24.3174V32.0515C248.297 34.8129 246.059 37.0515 243.297 37.0515H195.784C193.022 37.0515 190.784 34.8129 190.784 32.0515V24.3174Z" fill="#E6E1E0"/>
<ellipse cx="51.9731" cy="28.4009" rx="8.21622" ry="8.21825" fill="#C4C4C4"/>
<path d="M59.6893 28.4009C59.6893 32.6637 56.2345 36.1191 51.9731 36.1191C47.7116 36.1191 44.2568 32.6637 44.2568 28.4009C44.2568 24.1381 47.7116 20.6826 51.9731 20.6826C56.2345 20.6826 59.6893 24.1381 59.6893 28.4009Z" fill="#FFE2D9" stroke="#C4C3C3"/>
<path d="M72.6619 28.4009C72.6619 32.6637 69.2071 36.1191 64.9457 36.1191C60.6843 36.1191 57.2295 32.6637 57.2295 28.4009C57.2295 24.1381 60.6843 20.6826 64.9457 20.6826C69.2071 20.6826 72.6619 24.1381 72.6619 28.4009Z" fill="#FFE2D9" stroke="#C4C3C3"/>
<path d="M85.6351 28.4009C85.6351 32.6637 82.1803 36.1191 77.9189 36.1191C73.6574 36.1191 70.2026 32.6637 70.2026 28.4009C70.2026 24.1381 73.6574 20.6826 77.9189 20.6826C82.1803 20.6826 85.6351 24.1381 85.6351 28.4009Z" fill="#FFE2D9" stroke="#C4C3C3"/>
<path d="M98.6082 28.4009C98.6082 32.6637 95.1534 36.1191 90.892 36.1191C86.6306 36.1191 83.1758 32.6637 83.1758 28.4009C83.1758 24.1381 86.6306 20.6826 90.892 20.6826C95.1534 20.6826 98.6082 24.1381 98.6082 28.4009Z" fill="#FFE2D9" stroke="#C4C3C3"/>
<path d="M111.581 28.4009C111.581 32.6637 108.126 36.1191 103.865 36.1191C99.6032 36.1191 96.1484 32.6637 96.1484 28.4009C96.1484 24.1381 99.6032 20.6826 103.865 20.6826C108.126 20.6826 111.581 24.1381 111.581 28.4009Z" fill="#FFE2D9" stroke="#C4C3C3"/>
<path d="M124.554 28.4009C124.554 32.6637 121.099 36.1191 116.838 36.1191C112.576 36.1191 109.122 32.6637 109.122 28.4009C109.122 24.1381 112.576 20.6826 116.838 20.6826C121.099 20.6826 124.554 24.1381 124.554 28.4009Z" fill="#FFE2D9" stroke="#C4C3C3"/>
<mask id="path-32-inside-3_82_152" fill="white">
<path d="M23 109C23 92.4315 36.4315 79 53 79H233C249.569 79 263 92.4315 263 109V158C263 174.569 249.569 188 233 188H53C36.4315 188 23 174.569 23 158V109Z"/>
</mask>
<path d="M23 109C23 92.4315 36.4315 79 53 79H233C249.569 79 263 92.4315 263 109V158C263 174.569 249.569 188 233 188H53C36.4315 188 23 174.569 23 158V109Z" fill="#FFFCFC"/>
<path d="M53 80H233V78H53V80ZM262 109V158H264V109H262ZM233 187H53V189H233V187ZM24 158V109H22V158H24ZM53 187C36.9837 187 24 174.016 24 158H22C22 175.121 35.8792 189 53 189V187ZM262 158C262 174.016 249.016 187 233 187V189C250.121 189 264 175.121 264 158H262ZM233 80C249.016 80 262 92.9837 262 109H264C264 91.8792 250.121 78 233 78V80ZM53 78C35.8792 78 22 91.8792 22 109H24C24 92.9837 36.9837 80 53 80V78Z" fill="#E2E2E2" mask="url(#path-32-inside-3_82_152)"/>
<rect x="43.7568" y="95.8691" width="132.324" height="8.65079" rx="4.3254" fill="#ADC6E2"/>
<rect x="43.7568" y="126.58" width="114.595" height="3.46032" rx="1.73016" fill="#D2E0F1"/>
<rect x="43.7568" y="109.71" width="73.5135" height="3.02778" rx="1.51389" fill="#F0F6FC"/>
<rect x="43.7568" y="117.929" width="114.595" height="3.46032" rx="1.73016" fill="#D2E0F1"/>
<rect x="43.7568" y="135.23" width="98.5946" height="3.46032" rx="1.73016" fill="#D2E0F1"/>
<rect x="43.7568" y="144" width="35.4595" height="3.46032" rx="1.73016" fill="#D2E0F1"/>
<path d="M190.784 165.317C190.784 162.556 193.022 160.317 195.784 160.317H243.297C246.059 160.317 248.297 162.556 248.297 165.317V173.052C248.297 175.813 246.059 178.052 243.297 178.052H195.784C193.022 178.052 190.784 175.813 190.784 173.052V165.317Z" fill="#E6E1E0"/>
<rect x="182" y="97" width="17" height="6" rx="3" fill="#FFBFC8"/>
<ellipse cx="51.9731" cy="169.401" rx="8.21622" ry="8.21825" fill="#C4C4C4"/>
<path d="M59.6893 169.401C59.6893 173.664 56.2345 177.119 51.9731 177.119C47.7116 177.119 44.2568 173.664 44.2568 169.401C44.2568 165.138 47.7116 161.683 51.9731 161.683C56.2345 161.683 59.6893 165.138 59.6893 169.401Z" fill="#FFE2D9" stroke="#C4C3C3"/>
<path d="M72.6619 169.401C72.6619 173.664 69.2071 177.119 64.9457 177.119C60.6843 177.119 57.2295 173.664 57.2295 169.401C57.2295 165.138 60.6843 161.683 64.9457 161.683C69.2071 161.683 72.6619 165.138 72.6619 169.401Z" fill="#FFE2D9" stroke="#C4C3C3"/>
<path d="M85.6351 169.401C85.6351 173.664 82.1803 177.119 77.9189 177.119C73.6574 177.119 70.2026 173.664 70.2026 169.401C70.2026 165.138 73.6574 161.683 77.9189 161.683C82.1803 161.683 85.6351 165.138 85.6351 169.401Z" fill="#FFE2D9" stroke="#C4C3C3"/>
<path d="M98.6082 169.401C98.6082 173.664 95.1534 177.119 90.892 177.119C86.6306 177.119 83.1758 173.664 83.1758 169.401C83.1758 165.138 86.6306 161.683 90.892 161.683C95.1534 161.683 98.6082 165.138 98.6082 169.401Z" fill="#FFE2D9" stroke="#C4C3C3"/>
<mask id="path-47-inside-4_82_152" fill="white">
<path d="M23 532C23 515.431 36.4315 502 53 502H233C249.569 502 263 515.431 263 532V581C263 597.569 249.569 611 233 611H53C36.4315 611 23 597.569 23 581V532Z"/>
</mask>
<path d="M23 532C23 515.431 36.4315 502 53 502H233C249.569 502 263 515.431 263 532V581C263 597.569 249.569 611 233 611H53C36.4315 611 23 597.569 23 581V532Z" fill="#FFFCFC"/>
<path d="M53 503H233V501H53V503ZM262 532V581H264V532H262ZM233 610H53V612H233V610ZM24 581V532H22V581H24ZM53 610C36.9837 610 24 597.016 24 581H22C22 598.121 35.8792 612 53 612V610ZM262 581C262 597.016 249.016 610 233 610V612C250.121 612 264 598.121 264 581H262ZM233 503C249.016 503 262 515.984 262 532H264C264 514.879 250.121 501 233 501V503ZM53 501C35.8792 501 22 514.879 22 532H24C24 515.984 36.9837 503 53 503V501Z" fill="#E2E2E2" mask="url(#path-47-inside-4_82_152)"/>
<rect x="43.7568" y="518.869" width="132.324" height="8.65079" rx="4.3254" fill="#ADC6E2"/>
<rect x="43.7568" y="532.71" width="73.5135" height="3.02778" rx="1.51389" fill="#F0F6FC"/>
<rect x="182" y="520" width="17" height="6" rx="3" fill="#FFBFC8"/>
<rect x="109" y="10" width="69" height="14" rx="5" fill="#2F2E41"/>
<path d="M258.982 16.6012L263.059 18.4382L263.937 15.4003L258.982 16.6012Z" fill="#2F2E41"/>
</g>
<path d="M27.4998 17L22.9623 16.0838L22.4998 19.0001L27.4998 17Z" fill="#2F2E41"/>
<path d="M523.348 552H380.652C380.479 552 380.313 551.947 380.191 551.854C380.069 551.76 380 551.633 380 551.5C380 551.367 380.069 551.24 380.191 551.146C380.313 551.053 380.479 551 380.652 551H523.348C523.521 551 523.687 551.053 523.809 551.146C523.931 551.24 524 551.367 524 551.5C524 551.633 523.931 551.76 523.809 551.854C523.687 551.947 523.521 552 523.348 552Z" fill="#3F3D56"/>
<path d="M471.476 305.401C471.384 306.27 471.479 307.15 471.755 307.98C472.031 308.81 472.482 309.569 473.075 310.203C473.668 310.838 474.389 311.333 475.188 311.653C475.986 311.973 476.842 312.111 477.696 312.057L483.654 324.339L491.818 322.504L483.166 305.279C482.973 303.818 482.263 302.477 481.17 301.51C480.077 300.543 478.678 300.017 477.237 300.032C475.796 300.047 474.414 300.602 473.352 301.591C472.29 302.581 471.623 303.936 471.476 305.401Z" fill="#FFB8B8"/>
<path d="M489.536 390.095C490.665 390.877 491.981 391.347 493.351 391.459C494.721 391.57 496.096 391.319 497.338 390.73C498.58 390.141 499.644 389.236 500.423 388.105C501.203 386.974 501.67 385.658 501.778 384.29L504.29 352.352C504.719 346.891 503.688 341.414 501.301 336.482L490.01 313.154C489.848 312.82 489.616 312.524 489.328 312.287C489.041 312.05 488.706 311.878 488.346 311.783C487.987 311.687 487.61 311.671 487.243 311.734C486.876 311.797 486.527 311.939 486.22 312.149L481.399 315.449C480.9 315.791 480.536 316.296 480.372 316.878C480.207 317.459 480.252 318.08 480.499 318.632L481.267 320.352C487.658 334.66 490.058 350.426 488.216 365.987L486.229 382.769C486.063 384.175 486.283 385.6 486.865 386.89C487.448 388.181 488.371 389.289 489.536 390.095Z" fill="#F95437"/>
<path d="M455.883 544.615L448.43 544.615L444.886 515.615L455.886 515.616L455.883 544.615Z" fill="#FFB8B8"/>
<path d="M443.158 542.615H457.886V551.615H433.886C433.886 550.433 434.126 549.263 434.592 548.171C435.058 547.079 435.741 546.087 436.602 545.251C437.463 544.416 438.485 543.753 439.61 543.3C440.735 542.848 441.941 542.615 443.158 542.615Z" fill="#2F2E41"/>
<path d="M495.883 544.615L488.43 544.615L484.886 515.615L495.886 515.616L495.883 544.615Z" fill="#FFB8B8"/>
<path d="M483.158 542.615H497.886V551.615H473.886C473.886 550.433 474.126 549.263 474.592 548.171C475.058 547.079 475.741 546.087 476.602 545.251C477.463 544.416 478.485 543.753 479.61 543.3C480.735 542.848 481.941 542.615 483.158 542.615Z" fill="#2F2E41"/>
<mask id="path-62-inside-5_82_152" fill="white">
<path d="M226.686 230.217C233.655 215.186 251.489 208.649 266.521 215.618L446.156 298.896C461.188 305.864 467.725 323.699 460.756 338.731L436.782 390.444C429.814 405.476 411.979 412.012 396.947 405.044L217.312 321.766C202.28 314.797 195.743 296.962 202.712 281.931L226.686 230.217Z"/>
</mask>
<path d="M226.686 230.217C233.655 215.186 251.489 208.649 266.521 215.618L446.156 298.896C461.188 305.864 467.725 323.699 460.756 338.731L436.782 390.444C429.814 405.476 411.979 412.012 396.947 405.044L217.312 321.766C202.28 314.797 195.743 296.962 202.712 281.931L226.686 230.217Z" fill="#FFFCFC"/>
<path d="M266.101 216.525L445.736 299.803L446.577 297.988L266.942 214.711L266.101 216.525ZM459.849 338.31L435.875 390.023L437.689 390.865L461.663 339.151L459.849 338.31ZM397.368 404.136L217.732 320.859L216.891 322.673L396.526 405.951L397.368 404.136ZM203.619 282.351L227.593 230.638L225.779 229.797L201.805 281.51L203.619 282.351ZM217.732 320.859C203.201 314.122 196.883 296.882 203.619 282.351L201.805 281.51C194.604 297.043 201.358 315.472 216.891 322.673L217.732 320.859ZM435.875 390.023C429.139 404.554 411.898 410.873 397.368 404.136L396.526 405.951C412.059 413.152 430.489 406.397 437.689 390.865L435.875 390.023ZM445.736 299.803C460.267 306.539 466.585 323.779 459.849 338.31L461.663 339.151C468.864 323.619 462.11 305.189 446.577 297.988L445.736 299.803ZM266.942 214.711C251.409 207.51 232.98 214.264 225.779 229.797L227.593 230.638C234.329 216.107 251.57 209.789 266.101 216.525L266.942 214.711Z" fill="#E2E2E2" mask="url(#path-62-inside-5_82_152)"/>
<rect x="251.926" y="228.848" width="142.307" height="9.30342" rx="4.65171" transform="rotate(24.8721 251.926 228.848)" fill="#ADC6E2"/>
<rect x="238.035" y="258.812" width="123.24" height="3.72137" rx="1.86068" transform="rotate(24.8721 238.035 258.812)" fill="#D2E0F1"/>
<rect x="245.665" y="242.353" width="79.0595" height="3.2562" rx="1.6281" transform="rotate(24.8721 245.665 242.353)" fill="#F0F6FC"/>
<rect x="241.948" y="250.371" width="123.24" height="3.72137" rx="1.86068" transform="rotate(24.8721 241.948 250.371)" fill="#D2E0F1"/>
<rect x="234.122" y="267.252" width="106.033" height="3.72137" rx="1.86068" transform="rotate(24.8721 234.122 267.252)" fill="#D2E0F1"/>
<rect x="230.155" y="275.809" width="38.1346" height="3.72137" rx="1.86068" transform="rotate(24.8721 230.155 275.809)" fill="#D2E0F1"/>
<path d="M364.124 362.77C365.286 360.264 368.258 359.175 370.763 360.336L417.806 382.145C420.312 383.307 421.401 386.279 420.24 388.784L416.424 397.015C415.263 399.52 412.29 400.61 409.785 399.448L362.742 377.639C360.236 376.478 359.147 373.506 360.308 371L364.124 362.77Z" fill="#E6E1E0"/>
<rect x="386.297" y="292.482" width="18.2825" height="6.45265" rx="3.22632" transform="rotate(24.8721 386.297 292.482)" fill="#FFBFC8"/>
<path d="M473.886 340.615C482.722 340.615 489.886 333.452 489.886 324.615C489.886 315.779 482.722 308.615 473.886 308.615C465.049 308.615 457.886 315.779 457.886 324.615C457.886 333.452 465.049 340.615 473.886 340.615Z" fill="#FFB8B8"/>
<path d="M401.328 410.609C401.855 409.924 402.527 409.363 403.295 408.966C404.064 408.569 404.91 408.345 405.776 408.311C406.642 408.276 407.505 408.431 408.305 408.765C409.106 409.1 409.823 409.605 410.408 410.245L423.144 405.685L427.832 412.744L409.755 418.931C408.616 419.836 407.182 420.292 405.725 420.212C404.268 420.131 402.89 419.52 401.851 418.494C400.812 417.468 400.185 416.099 400.089 414.646C399.992 413.193 400.433 411.756 401.328 410.609Z" fill="#FFB8B8"/>
<path d="M478.285 340.611C480.715 340.663 483.129 340.205 485.368 339.268C487.607 338.331 489.62 336.935 491.275 335.172C492.93 333.409 494.19 331.32 494.971 329.041C495.753 326.762 496.038 324.345 495.809 321.949C495.58 319.553 494.841 317.233 493.641 315.14C492.441 313.046 490.808 311.228 488.847 309.805C486.887 308.381 484.645 307.385 482.268 306.88C479.891 306.376 477.433 306.375 475.056 306.878C471.505 304.743 467.376 303.307 463.238 303.672C459.1 304.037 455.008 306.47 453.46 310.287C451.913 314.104 453.575 319.135 457.423 320.686C459.89 321.681 462.675 321.199 465.308 320.798C467.94 320.396 470.812 320.135 473.103 321.48C475.394 322.824 476.424 326.43 474.372 328.111C473.284 329.038 472.508 330.27 472.146 331.645C471.783 333.019 471.853 334.471 472.344 335.805C473.376 338.445 476.19 340.566 478.285 340.611Z" fill="#2F2E41"/>
<path d="M498.031 428.631L500.885 535.951C500.894 536.308 500.829 536.664 500.693 536.996C500.557 537.327 500.354 537.627 500.095 537.877C499.837 538.127 499.529 538.321 499.191 538.448C498.854 538.574 498.493 538.63 498.132 538.612L488.732 538.137C488.133 538.106 487.562 537.873 487.115 537.475C486.668 537.077 486.373 536.539 486.279 535.951L475.098 466.247C475.05 465.948 474.899 465.676 474.67 465.476C474.441 465.277 474.15 465.162 473.845 465.153C473.54 465.143 473.242 465.24 473.001 465.425C472.76 465.61 472.592 465.872 472.526 466.167L457.391 533.28C457.31 533.639 457.154 533.977 456.931 534.271C456.709 534.565 456.426 534.809 456.101 534.987C455.777 535.165 455.418 535.272 455.048 535.302C454.678 535.332 454.306 535.284 453.957 535.16L444.628 534.596C444.088 534.406 443.626 534.045 443.313 533.57C442.999 533.095 442.852 532.531 442.892 531.965L451.036 427.615L498.031 428.631Z" fill="#2F2E41"/>
<path d="M502.748 377.731C504.317 361.57 492.292 346.952 475.903 345.802C468.842 345.307 457.88 345.13 454.266 354.276C443.38 381.827 462.437 381.157 455.871 405.028C449.305 428.898 443.506 430.266 452.515 431.99C461.524 433.713 502.036 443.888 500.373 427.087C499.35 416.76 501.184 393.852 502.748 377.731Z" fill="#F95437"/>
<path d="M461.503 351.624C462.885 351.569 464.257 351.879 465.481 352.524C466.705 353.169 467.737 354.125 468.474 355.296C469.21 356.468 469.624 357.813 469.675 359.196C469.725 360.578 469.41 361.95 468.761 363.172L453.616 391.701C451.027 396.579 447.187 400.682 442.492 403.589L420.281 417.34C419.962 417.538 419.604 417.664 419.232 417.71C418.86 417.756 418.483 417.722 418.126 417.609C417.768 417.496 417.439 417.307 417.162 417.055C416.884 416.803 416.664 416.494 416.517 416.149L414.208 410.739C413.968 410.179 413.933 409.552 414.108 408.969C414.283 408.385 414.657 407.881 415.165 407.545L416.748 406.496C429.917 397.774 440.486 385.656 447.339 371.423L454.731 356.072C455.35 354.786 456.307 353.693 457.5 352.909C458.693 352.126 460.077 351.681 461.503 351.624Z" fill="#F95437"/>
<defs>
<clipPath id="clip0_82_152">
<rect width="270" height="523" fill="white" transform="translate(8 17)"/>
</clipPath>
</defs>
</svg>
