<svg width="618" height="538" viewBox="0 0 618 538" fill="none" xmlns="http://www.w3.org/2000/svg">
<path d="M92.913 537.316C37.3147 537.31 -3.34748 525.714 0.217473 496.512C4.45184 461.836 36.5274 435.261 87.9479 417.737L35.3333 507.101H279.968C222.971 525.073 150.056 537.316 92.913 537.316ZM541.029 434.606L563.195 329.572C587.986 339.341 608.717 361.477 595.769 394.925C586.938 417.751 566.862 428.602 541.029 434.606Z" fill="url(#paint0_linear_68_2488)"/>
<path d="M576 269L525.727 507H35L175.256 269H576Z" fill="#4790CC"/>
<path d="M561 275L514.165 496H57L187.663 275H561Z" fill="#285173"/>
<path d="M242.911 283.063C232.233 282.03 231 294 231 294H254C254 294 253.589 284.09 242.911 283.063Z" fill="#EC9249"/>
<path d="M197.841 278C180.616 278 180 294 180 294H212.914C212.914 294 215.067 278 197.841 278Z" fill="#9CCC9B"/>
<path d="M216.321 286.046C207.965 285.297 207 294 207 294H225C225 294 224.678 286.795 216.321 286.046Z" fill="#CA595B"/>
<path d="M225.321 286.046C216.964 285.297 216 294 216 294H234C234 294 233.678 286.795 225.321 286.046Z" fill="#EC686B"/>
<path d="M177.876 295.147H253.122C253.044 288.968 251.859 268.688 240.137 256.524C233.948 250.102 225.659 246.846 215.5 246.846C205.334 246.846 197.041 250.109 190.852 256.538C179.119 268.716 177.949 288.975 177.876 295.147ZM256.895 299H174.105L174.027 297.153C173.979 296.035 173.033 269.48 188.062 253.872C195.009 246.659 204.241 243 215.5 243C226.759 243 235.991 246.659 242.937 253.872C257.967 269.48 257.02 296.035 256.973 297.153L256.895 299Z" fill="#FACE87"/>
<path d="M229.408 343.181H200.508C165.137 343.181 170.795 292.732 170.795 292.732H259.121C259.121 292.732 264.783 343.181 229.408 343.181Z" fill="url(#paint1_linear_68_2488)"/>
<path d="M230 343H200.582C164.579 343 170.338 293 170.338 293H202.889C202.889 293 200.085 343 230 343Z" fill="#F0B24E"/>
<path d="M221.698 344.994C221.698 344.994 218.158 352.253 225.858 354.308C233.558 356.362 269.07 358.94 270.144 357.92C269.72 356.5 237.644 341.051 229.944 338.997C222.244 336.942 221.698 344.994 221.698 344.994Z" fill="url(#paint2_linear_68_2488)"/>
<path d="M222 345.383C222 345.383 221.052 342.238 219.543 342.238C218.033 342.231 219.446 344.287 216.29 342.779C213.133 341.272 213.278 338.705 211.308 340.775C209.339 342.851 202.675 341.503 204.234 343.003C205.794 344.503 209.306 343.652 210.943 344.186C212.58 344.712 211.237 345.765 213.938 345.967C216.639 346.169 222 345.383 222 345.383Z" fill="#959C4D"/>
<path d="M227 347.042L226.17 350L226 349.958L226.829 347L227 347.042Z" fill="#CF433E"/>
<path d="M233 342.056L232.17 346L232 345.944L232.83 342L233 342.056Z" fill="#CF433E"/>
<path d="M238 349.07L236.34 354L236 353.93L237.66 349L238 349.07Z" fill="#CF433E"/>
<path d="M243 347.056L242.171 351L242 350.937L242.83 347L243 347.056Z" fill="#CF433E"/>
<path d="M249 351.07L248.17 356L248 355.93L248.83 351L249 351.07Z" fill="#CF433E"/>
<path d="M372.559 81.6434C372.559 81.6434 377.99 69.7629 388.965 74.9653C399.939 80.1678 398.128 95.9331 394.056 102.589C389.983 109.244 375.415 119.092 380.153 131.078C384.891 143.071 390.888 152.347 390.888 152.347C390.888 152.347 361.472 151.022 358.19 135.392C354.909 119.769 372.559 81.6434 372.559 81.6434Z" fill="#D88A51"/>
<path d="M401 313.862C401 313.862 412.2 316.597 418.129 319.451C424.058 322.305 428.239 324.683 430.823 321.437C433.407 318.185 431.735 307.798 425.806 304.622C419.877 301.454 401.886 311.288 401 313.862Z" fill="#EEA987"/>
<path d="M329.825 131.142C329.825 131.142 320.61 136.704 319.819 138.061C319.021 139.415 307.574 152.147 303.097 157.198C298.625 162.254 276.989 177.795 274.87 178.569C272.753 179.343 241.668 191.649 235.181 195.23C228.689 198.807 221.154 201.426 221.154 201.426L223.241 211.282C223.241 211.282 273.917 198.4 279.196 195.678C284.48 192.961 322.957 171.345 327.441 167.074C331.92 162.799 340.538 154.088 329.825 131.142Z" fill="#EEA987"/>
<path d="M332.244 231C332.244 231 324.195 242.031 323.101 242.495C322.007 242.96 275.436 267.411 271.998 275.916C268.559 284.429 274.655 299.597 280.437 304.86C286.22 310.123 332.244 316 332.244 316L440 275.609L378.737 231H332.244Z" fill="#DBDFF0"/>
<path d="M376.324 292C376.324 292 351.905 290.644 340.484 286.816C329.064 282.995 306.146 278.665 298.998 278.761C291.851 278.858 294.027 274.562 307.622 275.037C321.217 275.498 345.161 286.038 356.185 288.145C367.209 290.251 385 290.485 385 290.485L376.324 292Z" fill="#C4C6D1"/>
<path d="M421.77 272C421.77 272 396.065 274.698 385.929 283.413C375.794 292.122 366.232 300.229 356.787 304.614C347.342 308.999 426 274.589 426 274.589L421.77 272Z" fill="#C4C6D1"/>
<path d="M387.885 231.828C387.885 231.828 398.307 241.985 401.742 242.613C405.177 243.234 451.702 268.094 456.074 276.376C460.446 284.665 448.112 299.519 444.521 301.547C440.93 303.581 380.292 319.683 356.2 325C356.2 325 354.591 313.277 351 307.491C351 307.491 365.363 301.705 368.33 298.892C371.297 296.078 400.961 273.369 422.975 273.935L373.794 231L387.885 231.828Z" fill="#DBDFF0"/>
<path d="M356.716 325.632C356.716 325.632 339.786 327.926 336.769 328C336.769 328 330.327 320.969 337.095 311.711C337.095 311.711 344.706 311.825 351.746 309.241C358.787 306.663 356.716 325.632 356.716 325.632Z" fill="#EEA987"/>
<path d="M337.676 327.847C337.676 327.847 322.651 333.931 316.592 334.998C310.533 336.064 303.506 344.576 298.093 344.959C292.681 345.334 287.591 343.208 291.226 335.83C294.862 328.458 300.759 323.897 305.04 322.911C309.322 321.918 313.926 317.283 314.896 313.48C315.865 309.676 321.52 308.08 328.064 309.529C334.607 310.971 338 311.655 338 311.655L337.676 327.847Z" fill="#EEA987"/>
<path d="M380.936 75.6853C380.936 75.6853 387.045 78.7422 386.706 87.6807C386.366 96.6118 377.605 103.512 373.808 101.692C370.01 99.8785 380.936 75.6853 380.936 75.6853Z" fill="#9A4100"/>
<path d="M344.842 130.759C344.842 130.759 333.028 130.63 330.698 130.444C328.369 130.258 320.813 136.208 320.813 136.208C320.813 136.208 310.125 148.027 304.497 155.344C304.497 155.344 322.219 161.897 324.681 164.009C327.142 166.121 321.047 175.379 329.135 186.047C329.135 186.047 331.362 197.646 333.355 201.634C335.348 205.622 330.964 233.452 330.613 234.154C330.613 234.154 360.432 245.939 391.613 235.364C391.613 235.364 385.517 207.498 386.338 202.808C387.159 198.119 388.447 189.212 388.447 188.152C388.447 187.1 393.253 173.152 391.613 167.997L410.837 166.472C410.837 166.472 412.829 140.446 394.426 137.518C386.139 136.201 374.616 131.661 368.404 131.661C362.19 131.661 344.842 130.759 344.842 130.759Z" fill="#E8734D"/>
<path d="M410.843 166.469C410.843 166.469 411.777 202.969 412.211 206.716C412.562 209.743 415.532 222.851 415.532 229.527C415.532 236.211 414.712 269.97 414.829 271.962C414.829 271.962 409.672 274.073 406.507 271.962C406.507 271.962 401.419 248.536 399.567 241.67C397.715 234.805 396.426 217.223 396.895 211.008C397.363 204.8 391.62 178.543 391.62 167.993C391.62 157.444 410.843 166.469 410.843 166.469Z" fill="#EEA987"/>
<path d="M342.241 62.1078C342.241 62.1078 330.362 69.9195 331.38 86.4328C332.398 102.954 337.942 119.467 341.336 120.943C344.73 122.411 358.61 116.234 361.475 114.721C364.718 113.002 370.903 107.555 372.034 105.631C373.166 103.707 385.121 77.4953 373.581 67.5387C362.041 57.5896 356.044 57.1333 342.241 62.1078Z" fill="#EEA987"/>
<path d="M370.072 135.654C370.072 135.654 364.075 120.153 369.506 104.088C374.936 88.0236 346.312 116.986 346.312 116.986C346.312 116.986 346.323 118.47 346.31 120.621C346.299 122.148 346.271 124.017 346.217 125.924C346.118 129.498 345.916 133.207 345.521 135.091C344.615 139.385 370.072 135.654 370.072 135.654Z" fill="#EEA987"/>
<path d="M337.259 130.651C337.259 130.651 329.141 154.046 353.992 157.56C378.842 161.082 377.977 133.24 377.977 133.24C377.977 133.24 363.838 127.948 337.259 130.651Z" fill="#EEA987"/>
<path d="M351.745 81.7978C351.745 81.7978 341.557 85.5376 331.321 84.6312C331.321 84.6312 327.987 55.4363 357.233 55.4363C386.479 55.4363 382.179 84.6236 381.614 88.5843C381.048 92.545 374.235 106.765 367.971 110.063C367.971 110.063 371.657 95.0357 367.471 92.3165C363.285 89.6049 353.894 86.3221 351.745 81.7978Z" fill="#D88A51"/>
<path d="M405.692 269C405.692 269 404.182 273.515 402.348 274.417C400.513 275.311 394.097 280.531 394.005 281.242C393.912 281.953 395.188 282.32 395.661 282.439C396.135 282.559 402.821 279.446 404.3 280.347C405.779 281.242 410.986 288.61 411.282 290.525C411.578 292.441 410.809 303.042 412.288 303.162C413.767 303.282 414.182 302.26 414.182 302.26C414.182 302.26 414.596 304 415.779 304C416.963 304 417.791 302.204 417.791 302.204C417.791 302.204 420.631 304.359 420.927 300.464C420.927 300.464 422.998 301.725 422.998 298.548C422.998 295.379 424.654 286.151 423.708 283.038C422.761 279.925 414.655 271.599 414.655 271.599L405.692 269Z" fill="#EEA987"/>
<path d="M361.472 89.1592C362.068 85.8368 365.206 82.708 368.825 86.1049C372.447 89.4944 366.337 97.9793 363.734 97.5249C361.133 97.078 360.681 93.5692 361.472 89.1592Z" fill="#EEA987"/>
<path d="M346.218 125.92H346.22C346.22 125.92 357.91 122.076 361.474 114.722C361.474 114.722 352.701 119.11 346.31 120.618C346.3 122.149 346.272 124.02 346.218 125.92Z" fill="#A77860"/>
<path d="M382 398.497C382 407.609 358.047 415 328.5 415C298.953 415 275 407.609 275 398.497C275 389.384 298.953 382 328.5 382C358.047 382 382 389.384 382 398.497Z" fill="#E3CFC5"/>
<path d="M332.987 388.064C332.936 389.124 332.732 390.219 332.362 391.334C332.302 391.519 332.238 391.703 332.169 391.881C331.214 394.419 329.923 396.499 328.389 398.195C316.769 411.015 291.146 401.786 291.146 401.786C291.146 401.786 275.273 394.85 281.411 382.598C282.251 380.916 283.502 379.144 285.262 377.27C298.86 362.808 333.779 371.756 332.987 388.064Z" fill="#EA9F4E"/>
<path d="M333 388.367C332.94 389.576 332.675 390.833 332.182 392.116C323.996 413.464 291.149 401.843 291.149 401.843C291.149 401.843 275.272 395.031 281.411 383C281.411 383 288.186 395.206 315.433 392.734C325.492 391.827 330.582 390.134 333 388.367Z" fill="#D9833C"/>
<path d="M328.301 390.831H330.715V386.382H328.301V390.831Z" fill="#C97A2E"/>
<path d="M329.052 399C327.81 396.418 327.813 393.742 328.316 391.388C328.849 391.261 329.352 391.134 329.825 391C329.614 392.171 329.596 393.562 330.063 395.027C330.27 395.676 330.575 396.345 331 397.013C330.395 397.729 329.744 398.385 329.052 399Z" fill="#C47129"/>
<path d="M294.229 374.263C291.576 376.049 312.868 378.556 310.867 375.72C308.865 372.878 297.519 372.049 294.229 374.263Z" fill="#FFBE6B"/>
<path d="M290.338 381.228C288.634 381.941 293.925 385.198 293.998 383.531C294.071 381.856 292.26 380.429 290.338 381.228Z" fill="#BA6920"/>
<path d="M297.06 381.363C296.593 381.918 299 382.223 299 381.805C299 381.387 297.781 380.503 297.06 381.363Z" fill="#BA6920"/>
<path d="M292.018 377.592C291.766 379.412 294.306 379.307 293.969 378.189C293.633 377.078 292.171 376.481 292.018 377.592Z" fill="#BA6920"/>
<path d="M302.003 383.44C301.921 383.763 303.692 384.345 303.973 383.729C304.255 383.117 302.214 382.598 302.003 383.44Z" fill="#BA6920"/>
<path d="M295.002 386.328C294.933 387.23 296.943 387.096 296.999 386.669C297.054 386.243 295.057 385.604 295.002 386.328Z" fill="#BA6920"/>
<path d="M325.096 381.456C324.287 383.201 328.852 384.984 328.996 383.364C329.14 381.739 325.674 380.211 325.096 381.456Z" fill="#DF873E"/>
<path d="M323.185 386.605C323.525 387.519 327.247 386.813 325.566 384.841C323.885 382.869 322.484 384.741 323.185 386.605Z" fill="#BA6920"/>
<path d="M354.755 403.845C347.068 404.439 339.096 403.291 335.589 400.995C332.366 398.887 330.883 396.456 330.308 394.214C329.276 390.175 331.17 386.724 331.17 386.724C332.221 381.199 354.392 368.373 367.647 382.205C368.647 383.252 369.596 384.448 370.483 385.812C371.458 387.311 372.128 388.709 372.531 389.999C375.307 398.928 365.298 403.028 354.755 403.845Z" fill="#EA9F4E"/>
<path d="M335.32 401.212C332.074 399.255 330.58 396.997 330 394.914C337.146 396.175 365.576 400.528 372.528 391C377.362 405.339 343.696 406.261 335.32 401.212Z" fill="#D9833C"/>
<path d="M334.346 382C333.426 381.968 332.504 381.942 331.571 381.923C329.806 379.141 326.761 376.769 323 374.955L358.419 374C358.419 374 359.485 375.308 358.729 377.154C356.651 376.583 354.523 376.333 352.409 376.333C345.379 376.333 338.527 379.096 334.346 382Z" fill="#8D623A"/>
<path d="M332.611 384C332.44 383.317 332.236 382.651 332 382C332.672 382.024 333.337 382.056 334 382.096C333.475 382.731 333.009 383.365 332.611 384Z" fill="#C78953"/>
<path d="M329.879 386C328.863 385.904 327.904 385.764 327 385.585C327.054 385.374 326.928 385.119 326.524 384.819C325.952 384.398 325.409 384.225 324.952 384.225C324.455 384.225 324.059 384.429 323.837 384.742C315.351 381.825 313 375.3 313 375.3L323.818 375C327.485 376.807 330.453 379.169 332.174 381.94C332.493 382.457 332.77 382.987 333 383.529C332.788 383.721 332.59 383.919 332.408 384.11C332.054 383.702 331.668 383.408 331.249 383.28C331.249 383.28 330.574 384.327 329.879 386ZM326.377 380.248C325.981 380.248 325.661 380.433 325.521 380.854C324.966 382.527 327.076 384.232 328.339 384.232C328.821 384.232 329.18 383.983 329.218 383.389C329.32 381.786 327.527 380.248 326.377 380.248Z" fill="#C97A2E"/>
<path d="M330.921 386C330.608 385.982 330.3 385.964 330 385.941C330.549 384.747 331.084 384 331.084 384C331.415 384.091 331.72 384.301 332 384.592C331.473 385.093 331.104 385.572 330.921 386Z" fill="#BF6E24"/>
<path d="M328.068 384C326.737 384 324.511 382.716 325.096 381.457C325.244 381.139 325.581 381 325.999 381C327.212 381 329.103 382.159 328.996 383.365C328.956 383.813 328.577 384 328.068 384Z" fill="#C57229"/>
<path d="M325.989 386C324.912 385.671 323.918 385.249 323 384.761C323.21 384.3 323.584 384 324.053 384C324.486 384 324.999 384.254 325.539 384.873C325.921 385.315 326.04 385.69 325.989 386Z" fill="#BA6920"/>
<path d="M332.716 386C332.127 386 331.556 385.98 331 385.954C331.226 385.339 331.683 384.652 332.334 383.932C332.513 383.736 332.706 383.533 332.914 383.336C333.441 382.819 334.057 382.302 334.752 381.785C338.738 378.821 345.271 376 351.974 376C353.989 376 356.019 376.255 358 376.838C357.073 379.259 353.27 382.59 340.724 385.136C337.759 385.738 335.1 386 332.716 386Z" fill="#C97A2E"/>
<path d="M346.844 382.096C322.41 387.85 314.41 378.728 314.41 378.728C312.776 376.656 312.037 374.745 312.001 372.988C311.775 361.997 339.058 357.062 346.844 358.147C351.562 358.805 358.019 363.74 359.626 369.131C361.096 374.052 358.512 379.351 346.844 382.096Z" fill="#EA9F4E"/>
<path d="M346.843 382.079C322.409 387.884 314.409 378.682 314.409 378.682C312.775 376.592 312.036 374.664 312 372.891C315.586 374.812 330.599 382.107 343.769 377.354C351.785 374.466 356.656 370.999 359.626 369C361.096 373.965 358.512 379.311 346.843 382.079Z" fill="#D9833C"/>
<path d="M321.162 366.283C321.162 366.283 314.281 370.447 325.071 368.466C335.861 366.479 346.458 364.198 343.495 363.404C340.533 362.609 335.52 362.713 321.162 366.283Z" fill="#FFBE6B"/>
<path d="M334.05 390.573C333.527 391.426 337.255 392.791 337.923 391.411C338.589 390.039 334.719 389.49 334.05 390.573Z" fill="#BA6920"/>
<path d="M341.001 390.006C340.942 392.031 344.199 390.583 343.99 389.023C343.782 387.462 341.07 387.609 341.001 390.006Z" fill="#BA6920"/>
<path d="M337.011 387.429C337.372 388.329 339 388.046 339 387.397C339 386.754 336.831 386.986 337.011 387.429Z" fill="#BA6920"/>
<path d="M358.009 382.834C358.187 383.295 361.405 382.702 360.957 382.183C360.511 381.663 357.83 382.369 358.009 382.834Z" fill="#BA6920"/>
<path d="M360.009 385.669C360.15 386.599 362.464 385.379 361.916 384.355C361.368 383.337 359.869 384.74 360.009 385.669Z" fill="#BA6920"/>
<path d="M333.004 369.306C332.84 370.308 337.988 370.152 338 369.306C338.013 368.453 333.405 366.852 333.004 369.306Z" fill="#BA6920"/>
<path d="M325.009 371.384C325.221 372.528 329.573 371.961 328.936 370.651C328.3 369.34 324.797 370.229 325.009 371.384Z" fill="#BA6920"/>
<path d="M332 372.768C331.978 373.189 333.832 373 333.991 372.504C334.151 372.007 332.065 371.573 332 372.768Z" fill="#BA6920"/>
<path d="M320.007 372.291C319.866 372.798 321.773 373.378 321.985 372.673C322.197 371.967 320.149 371.778 320.007 372.291Z" fill="#BA6920"/>
<path d="M340.017 367.781C340.236 368.098 342.201 368.165 341.983 367.33C341.764 366.5 339.798 367.458 340.017 367.781Z" fill="#BA6920"/>
<path d="M324 472.273C324 472.273 327.197 471.91 330.486 473.988C333.777 476.067 339.639 478.708 343.077 469.44C346.514 460.18 355.597 445.04 357.124 438.922C358.653 432.803 360.97 430.944 359.565 429.709C358.16 428.474 355.288 428.461 353.325 432.906C351.363 437.358 340.261 445.877 337.345 449.595C334.43 453.313 327.319 458.787 327.319 458.787L324 472.273Z" fill="#EEA987"/>
<path d="M261.372 472C261.372 472 267.194 476.77 268.921 476.426C270.647 476.075 289.409 481.149 293.775 479.495C298.141 477.841 302.053 479.039 300.744 483.001C299.434 486.964 290.363 495.246 280.232 494.994C270.101 494.743 255.302 493.552 253.267 491.297C251.233 489.034 249.648 480.646 249.022 478.86C248.396 477.08 261.372 472 261.372 472Z" fill="#EEA987"/>
<path d="M329 454.775L326.919 477C326.919 477 261.367 471.866 248.7 471.091C236.033 470.33 219.389 467.977 207.397 468.662C199.736 469.105 158.222 469.409 128.63 469.486C123.4 469.499 118.535 469.499 114.304 469.499H114.29C104.955 469.499 98.6712 469.437 98.151 469.354C96.0705 469.015 77.9081 437.428 159.501 431C159.501 431 211.094 440.888 220.556 442.279C230.017 443.662 272.655 451.011 283.354 451.336C294.038 451.661 329 454.775 329 454.775Z" fill="#89B8C7"/>
<path d="M93 388H38C39.7126 383.713 40.7404 381.082 40.7404 381.082C40.9085 380.376 41.0883 379.685 41.2778 379H92.7306L93 388Z" fill="#3C6399"/>
<path d="M126.625 319.706C126.625 319.706 144.986 326.061 148.798 330.91C152.609 335.766 146.141 378.157 146.141 378.157L146.603 420.431C146.603 420.431 103.182 442.612 79.8557 444C79.8557 444 73.3885 411.424 73.6192 396.87C73.8498 382.316 71.3099 352.282 71.3099 352.282C71.3099 352.282 73.6192 329.183 69 322.02C69 322.02 94.4058 313.24 103.414 313.006C112.421 312.778 126.625 319.706 126.625 319.706Z" fill="#FFD255"/>
<path d="M68.7178 322C68.7178 322 57.5954 332.586 54.3113 337.397C50.6291 342.793 27.3107 377.895 28.0157 381.867C28.7199 385.838 32.0665 389.114 42.8097 392.053C53.5537 394.986 89.4831 405 89.4831 405L96 391.014C96 391.014 58.6613 380.91 54.6104 378.281C50.5589 375.652 71.2554 354.425 71.2554 354.425C71.2554 354.425 79.6548 328.078 68.7178 322Z" fill="#FFD255"/>
<path d="M148.262 331.012C148.262 331.012 170.841 364.479 173.723 367.612C176.604 370.739 156.094 377 156.094 377C156.094 377 145.585 355.535 142.872 354.009C140.16 352.477 139.242 330.416 148.262 331.012Z" fill="#FFD255"/>
<path d="M80.044 449.072C80.044 449.072 78.5183 468.782 93.465 470.381C108.412 471.981 124.874 467.408 146.421 455.977C167.971 444.546 196.77 431.741 201.687 433.799C206.603 435.857 245.465 484 245.465 484L268 473.813C268 473.813 226.149 417.165 224.309 412.448C222.469 407.731 214.19 394.222 205.683 395.035C197.174 395.842 80 438.865 80 438.865L80.044 449.072Z" fill="#89B8C7"/>
<path d="M129.843 253.284C138.344 254.076 146.849 265.257 143.083 284.251C139.317 303.252 129.729 314.06 120.941 312.918C112.153 311.768 109.662 304.057 105.257 293.118C100.854 282.179 100.928 263.184 105.399 259.845C109.87 256.506 113.75 251.791 129.843 253.284Z" fill="#EEA886"/>
<path d="M127 310.308C127 310.308 126.749 311.243 126.455 312.679C126.225 313.744 125.953 315.07 125.743 316.506C125.366 318.898 125.115 321.509 125.345 323.536C125.345 323.536 112.735 329.281 104 318.011C104 318.011 107.31 300.145 104.65 289.267C102.01 278.368 127 310.308 127 310.308Z" fill="#EEA886"/>
<path d="M144.298 283.496C144.298 283.496 132.612 277.636 126.53 276.594C120.447 275.559 114.799 278.23 116.177 284.117L112.504 285.615C112.504 285.615 105.786 289.073 104.612 293C104.612 293 100.372 274.876 100.015 268.45C99.625 261.424 106.88 250.643 128.571 252.141C150.262 253.646 144.188 280.908 144.298 283.496Z" fill="#283B54"/>
<path d="M113.523 281.057C113.025 278.669 109.004 274.77 106.625 278.629C104.246 282.489 109.242 289 111.858 289C114.475 289 114.236 284.474 113.523 281.057Z" fill="#EEA886"/>
<path d="M166.859 362.995C161.828 353.634 150.616 339.942 132.186 354.09C105.983 374.204 103.177 350.344 70.3854 363.326C47.2021 372.507 34.3752 397.065 44.4977 422.263L44.8591 423.208C46.1411 426.402 47.6761 429.32 49.4286 431.962C61.5099 450.187 83.8653 455.36 104.112 447.338C136.904 434.356 129.183 413.524 154.674 410.075C183.484 406.17 150.352 384.296 150.352 384.296L170 370.128C170 370.128 168.979 366.948 166.859 362.995Z" fill="#FCBC79"/>
<path d="M147.387 384.907L149.194 386.085C155.965 390.508 166.153 399.355 164.657 404.281C163.775 407.182 158.602 408.456 154.418 409.021C140.812 410.84 136.019 417.255 130.471 424.696C125.104 431.882 119.02 440.032 102.875 446.35C82.34 454.384 60.9301 448.431 49.5984 431.544C47.9605 429.105 46.5286 426.432 45.3415 423.607C45.2687 423.428 45.1952 423.256 45.1238 423.077L44.75 422.112C35.3563 399.01 46.1819 374.579 69.9348 365.285C84.9896 359.394 93.5657 361.351 101.132 363.087C109.873 365.085 118.13 366.973 132.849 355.811C138.793 351.298 144.375 349.445 149.438 350.299C157.038 351.581 162.307 358.615 165.391 364.279C166.451 366.236 167.235 368.006 167.745 369.26C167.882 369.598 168 369.894 168.097 370.149L160.357 375.668L147.387 384.907ZM168.385 362.777C164.985 356.521 159.069 348.749 150.2 347.254C144.116 346.228 137.597 348.315 130.822 353.455C117.456 363.59 110.674 362.04 102.088 360.076C94.0227 358.23 84.8793 356.142 68.7789 362.439C56.7301 367.152 47.2622 375.785 42.1206 386.74C36.8062 398.06 36.6273 411.061 41.613 423.318L41.9861 424.282C42.1657 424.723 42.3536 425.164 42.5449 425.598C43.7404 428.327 45.148 430.903 46.7415 433.28C58.9241 451.435 81.9482 457.836 104.031 449.196C121.135 442.499 127.814 433.549 133.181 426.363C138.461 419.287 142.632 413.7 154.722 412.08C162.319 411.068 166.742 408.677 167.864 404.97C170.085 397.653 157.865 388.173 152.975 384.728L172 371.176L171.662 370.135C171.646 370.087 171.493 369.618 171.196 368.847C170.689 367.524 169.761 365.305 168.385 362.777Z" fill="#E0A76C"/>
<path d="M79.958 421.228L68.3262 392L63 394.127L64.7426 398.51L63.3733 399.057L72.0542 420.863L74.5619 427.171L75.9312 426.617L77.6745 431L83 428.873L79.958 421.228Z" fill="#56361B"/>
<path d="M281.989 322.736L281.098 320.381L283 318.787L281.945 316L279.177 316.256L277 318.074L278.055 320.862L280.474 320.637L281.366 323L281.677 322.864L281.989 322.736Z" fill="#C9954A"/>
<path d="M277 322.047L275.945 320L273.178 320.188L273.156 320.206L271 321.529L272.055 323.576L274.474 323.412L275.294 325L275.438 324.959L275.917 324.812L275.098 323.218L277 322.047Z" fill="#C9954A"/>
<path d="M270 324.525L269.121 322L266.814 322.239L266.795 322.254L265 323.886L265.879 326.411L267.896 326.208L268.519 328L269.038 327.761L268.414 325.969L270 324.525Z" fill="#C9954A"/>
<path d="M131.26 389.096C128.523 383.263 121.337 380.471 114.981 382.847C108.625 385.229 105.454 391.901 107.741 397.906C110.48 403.74 117.667 406.532 124.021 404.149C130.375 401.774 133.545 395.102 131.26 389.096Z" fill="#392412"/>
<path d="M290.866 332.656L268.67 340.623C268.503 340.684 268.326 340.718 268.146 340.718L267.415 340.725L266.481 340.732L266.163 340.739C266.094 340.739 266.024 340.739 265.955 340.752L265.77 340.793C265.705 340.807 265.642 340.827 265.58 340.854L259.647 343.256L259.016 343.514L254.53 345.333L253.901 345.591L251.481 346.568L250.852 346.826L244.359 349.459L243.731 349.717L243.641 349.751L243.01 350.009L235.796 352.934L235.168 353.192L227.956 356.117L227.324 356.368L220.113 359.299L219.485 359.55L212.27 362.475L211.642 362.733L204.128 365.78L203.496 366.038L195.982 369.085L195.353 369.343L186.751 372.831L186.12 373.089L177.518 376.577L176.886 376.835L170.686 379.346L170.055 379.604L163.855 382.122L163.224 382.373L158.717 384.198L158.086 384.456L153.823 386.187L153.192 386.445L148.773 388.236L148.144 388.494L144.068 390.143L143.44 390.401L139.362 392.05L138.733 392.308L134.658 393.964L134.027 394.222L129.716 395.966L129.638 396L124 382.346L124.08 382.319L128.453 380.717L129.092 380.486L133.228 378.98L133.867 378.742L138.002 377.229L138.641 376.998L142.775 375.492L143.414 375.254L147.897 373.619L148.536 373.388L152.863 371.807L153.503 371.569L158.075 369.9L158.714 369.669L165.007 367.375L165.646 367.138L171.936 364.844L172.575 364.606L181.305 361.424L181.942 361.186L190.67 357.996L191.309 357.766L198.933 354.983L199.573 354.752L207.197 351.963L207.836 351.733L215.153 349.059L215.791 348.828L223.108 346.154L223.747 345.923L231.064 343.25L231.702 343.019L239.021 340.345L239.66 340.114L239.751 340.08L240.389 339.85L246.977 337.44L247.616 337.21L250.069 336.314L250.708 336.076L255.261 334.414L255.898 334.183L261.921 331.984L262.1 331.903L262.262 331.808L262.424 331.679L262.657 331.468L263.342 330.858L263.876 330.376C264.01 330.261 264.158 330.165 264.323 330.098L286.1 321.119C287.101 320.705 288.351 321.404 288.871 322.667L291.774 329.69C292.295 330.96 291.885 332.296 290.866 332.656Z" fill="#63402A"/>
<path d="M231 343.249L234.468 354L235 353.721L231.54 343L231 343.249Z" fill="#CEBFAE"/>
<path d="M244 349.739L243.455 350L240 340.234L240.554 340L244 349.739Z" fill="#CEBFAE"/>
<path d="M254 345.729L253.436 346L250 336.25L250.573 336L254 345.729Z" fill="#CEBFAE"/>
<path d="M266 340.934L265.637 340.942C265.558 340.942 265.478 340.942 265.4 340.956L265.188 341L261 331.466L261.184 331.364L261.369 331.226L261.635 331L266 340.934Z" fill="#CEBFAE"/>
<path d="M223 346.243L226.479 357L227 356.736L223.527 346L223 346.243Z" fill="#CEBFAE"/>
<path d="M215 349.237L219.366 360L220 359.742L215.644 349L215 349.237Z" fill="#CEBFAE"/>
<path d="M207 351.259L211.38 363L212 362.719L207.63 351L207 351.259Z" fill="#CEBFAE"/>
<path d="M199 355.225L203.394 366L204 365.749L199.616 355L199 355.225Z" fill="#CEBFAE"/>
<path d="M190 358.226L195.289 369L196 368.755L190.722 358L190 358.226Z" fill="#CEBFAE"/>
<path d="M181 361.26L186.306 374L187 373.726L181.704 361L181 361.26Z" fill="#CEBFAE"/>
<path d="M172 365.233L177.322 377L178 376.753L172.688 365L172 365.233Z" fill="#CEBFAE"/>
<path d="M165 367.267L170.335 381L171 380.71L165.675 367L165 367.267Z" fill="#CEBFAE"/>
<path d="M159.553 370L159 370.243L163.455 383L164 382.743L159.553 370Z" fill="#CEBFAE"/>
<path d="M153 372.233L158.354 385L159 384.747L153.656 372L153 372.233Z" fill="#CEBFAE"/>
<path d="M149 374.23L153.469 387L154 386.743L149.54 374L149 374.23Z" fill="#CEBFAE"/>
<path d="M143 376.251L148.369 390L149 389.727L143.639 376L143 376.251Z" fill="#CEBFAE"/>
<path d="M138 377.241L143.377 391L144 390.731L138.632 377L138 377.241Z" fill="#CEBFAE"/>
<path d="M134.625 379L134 379.238L139.384 393L140 392.734L134.625 379Z" fill="#CEBFAE"/>
<path d="M128 381.235L134.289 395L135 394.737L128.722 381L128 381.235Z" fill="#CEBFAE"/>
<path d="M124 383.058L130.808 396L131 395.942L124.191 383L124 383.058Z" fill="#CEBFAE"/>
<path d="M270.549 331.131L283 325.505L282.761 325L270.404 330.585L262.258 331.49L70 405.482L70.2043 406L262.383 332.043L270.549 331.131Z" fill="#CCBEA9"/>
<path d="M270 331.518L269.796 331L262.437 333.843L71 408.482L71.2059 409L262.642 334.36L270 331.518Z" fill="#CCBEA9"/>
<path d="M283 325.487L282.715 325L263.72 335.448L72 411.478L72.21 412L263.949 335.963L283 325.487Z" fill="#CCBEA9"/>
<path d="M281 332.512L280.801 332L264.361 338.07L73 413.488L73.212 414L264.566 338.589L281 332.512Z" fill="#CCBEA9"/>
<path d="M275 334.406L274.72 334L265.265 339.434L74 417.475L74.2143 418L265.508 339.952L275 334.406Z" fill="#CCBEA9"/>
<path d="M275.938 334.905C275.746 334.147 275.172 333.794 274.653 334.124L274.637 334.132C274.555 334.192 274.481 334.259 274.413 334.334C274.358 334.402 274.308 334.47 274.262 334.552L274.182 334.703C274.145 334.785 274.114 334.868 274.088 334.958C274.036 335.131 274.006 335.326 274 335.514L274.001 335.664C274.006 335.807 274.026 335.95 274.061 336.092C274.251 336.844 274.817 337.197 275.33 336.889L275.346 336.874C275.865 336.551 276.129 335.664 275.938 334.905Z" fill="#E6AA54"/>
<path d="M276.996 328.925L277.02 328.92C277.796 328.699 278.194 328.112 277.907 327.605C277.62 327.098 276.757 326.862 275.98 327.083L275.957 327.088L275.781 327.148C275.27 327.354 274.971 327.73 275.002 328.107L275.004 328.117C275.009 328.172 275.022 328.222 275.04 328.272L275.067 328.342L275.094 328.398L275.177 328.513C275.215 328.563 275.259 328.608 275.309 328.649C275.368 328.699 275.433 328.744 275.506 328.784C275.87 328.985 276.379 329.055 276.871 328.955L276.996 328.925Z" fill="#E6AA54"/>
<path d="M268.98 329.083L268.956 329.088C268.196 329.313 267.81 329.895 268.093 330.396C268.377 330.898 269.225 331.133 269.995 330.923L270.02 330.918C270.798 330.702 271.194 330.111 270.906 329.604C270.62 329.098 269.758 328.862 268.98 329.083Z" fill="#E6AA54"/>
<path d="M69.062 407.095C69.2537 407.854 69.8286 408.207 70.3459 407.875C70.8645 407.552 71.1293 406.669 70.9376 405.91C70.7466 405.15 70.1711 404.797 69.6538 405.119C69.1358 405.452 68.871 406.336 69.062 407.095Z" fill="#FAC478"/>
<path d="M70.0624 409.393C70.2534 409.906 70.8284 410.134 71.3464 409.92C71.865 409.698 72.1292 409.109 71.9375 408.603C71.7465 408.097 71.1715 407.862 70.6535 408.084C70.1355 408.298 69.8707 408.887 70.0624 409.393Z" fill="#FAC478"/>
<path d="M71.0624 411.698C71.254 411.951 71.8289 412.069 72.3462 411.958C72.8647 411.851 73.1289 411.556 72.9379 411.303C72.7463 411.047 72.1714 410.933 71.6534 411.04C71.1355 411.151 70.8707 411.446 71.0624 411.698Z" fill="#FAC478"/>
<path d="M72.0623 414.394C72.2539 414.9 72.8287 415.135 73.3466 414.921C73.8645 414.699 74.1292 414.109 73.9376 413.603C73.746 413.097 73.1712 412.862 72.6533 413.084C72.1361 413.298 71.8707 413.888 72.0623 414.394Z" fill="#FAC478"/>
<path d="M73.0624 417.095C73.254 417.854 73.8283 418.207 74.3462 417.875C74.8642 417.542 75.129 416.669 74.938 415.9C74.7463 415.142 74.1714 414.799 73.6535 415.121C73.1355 415.453 72.8707 416.326 73.0624 417.095Z" fill="#FAC478"/>
<path d="M88.8154 394.411C88.8154 394.411 91.7649 394.941 94.1609 393.634C96.5575 392.326 100.247 389.096 101.977 390.241C103.708 391.386 108.706 392.694 109.815 392.673C110.923 392.651 110.231 393.775 108.798 394.793C107.364 395.81 116.811 397.394 116.97 400.263C117.13 403.132 116.73 406.51 113.596 408.878C110.462 411.246 100.544 409.309 98.375 408.143C96.207 406.984 86.0419 401.606 81.9225 401.945C77.8031 402.284 88.8154 394.411 88.8154 394.411Z" fill="#EEA886"/>
<path d="M96 391.173C96 391.173 55.3467 378.911 54.9943 375.849C54.6427 372.78 71.2646 355 71.2646 355L41.5169 357.96C41.5169 357.96 27 378.115 27 384.164C27 390.826 89.4856 405 89.4856 405L96 391.173Z" fill="#FFD255"/>
<path d="M159 385C159 385 176.637 382.231 191.658 376.394C206.679 370.556 218.206 369.717 224.324 365.565C230.441 361.412 232.273 352.945 230.154 351.365C228.034 349.785 214.905 353.645 212.184 356.909C209.463 360.181 212.046 362.453 207.308 364.46C202.57 366.473 159 385 159 385Z" fill="#EEA886"/>
<path d="M205.234 366C205.234 366 205.437 372.607 207 375.958C207 375.958 163.46 385.205 159 384.997L205.234 366Z" fill="#FFD255"/>
<path d="M161 449C160.317 449.499 138.552 465.578 128.199 468.987C123.016 469 118.194 469 114 469C114.571 468.874 127.126 465.997 161 449Z" fill="#597882"/>
<path d="M126 312.124C125.758 313.109 125.473 314.335 125.253 315.662C110.8 318.362 109 304 109 304C115.15 316.304 126 312.124 126 312.124Z" fill="#A77860"/>
<path d="M456.127 81.8323C456.127 81.8323 444.268 68.4507 442.765 68.2773C441.26 68.1114 440.606 68.8578 441.665 70.162C442.724 71.4587 452.765 83.4532 452.765 83.4532C452.765 83.4532 436.186 70.1922 434.988 69.7625C434.287 69.5137 432.94 70.8782 433.446 71.6321C433.951 72.386 449.66 86.5517 449.66 86.5517C449.66 86.5517 434.158 74.2029 433.05 74.1652C432.081 74.135 431.132 75.7107 432.221 76.7133C433.31 77.716 447.073 90.0573 447.073 90.0573C447.073 90.0573 435.246 81.8399 434.28 82.3978C433.689 82.7445 432.475 83.8679 435.591 85.8808C438.708 87.9012 445.574 93.4951 445.574 93.4951L456.127 81.8323Z" fill="#EEA886"/>
<path d="M467.452 99.541C467.452 99.541 463.816 94.8656 465.236 91.6738C466.443 88.9539 466.186 84.5558 466.109 83.2071C466.006 81.3939 467.632 75.662 465.49 75.8268C463.347 75.9917 462.385 85.1477 461.826 87.0358C461.266 88.9164 456.852 81.6036 455.046 80.9668C453.239 80.3374 442.153 89.0963 445.734 93.7267C449.314 98.3572 456.054 100.717 456.53 101.669C457.005 102.62 459.008 105.146 459.008 105.146L467.452 99.541Z" fill="#EEA886"/>
<path d="M545.678 0.153915C545.678 0.153915 561.707 -0.124664 566.615 13.0879C571.517 26.3004 567.498 36.3133 565.967 41.073C561.954 53.5055 561.568 58.0344 563.299 65.6037C564.822 72.3134 566.27 75.7916 568.056 82.0715C569.842 88.3435 566.712 87.6033 566.429 88.057C566.146 88.5027 504.895 100.688 504.895 100.688C504.895 100.688 507.082 85.0882 511.219 78.9993C514.256 74.5261 518.724 73.0695 515.59 59.6182C512.455 46.1749 510.43 39.9268 512.462 30.2402C514.814 19.0255 516.293 12.0134 526.992 4.80221C533.442 0.456398 540.625 -0.411201 545.678 0.153915Z" fill="#3C3F66"/>
<path d="M506.151 138C501.739 144.383 495.99 151.125 491.444 150.991C488.511 150.901 452.353 102.819 452.405 100.435C452.465 97.7368 466.092 94.2389 466.092 94.2389C466.092 94.2389 472.391 105.57 478.259 110.391C484.13 115.219 491.217 125.444 492.693 126.505C494.169 127.574 499.756 116.056 499.756 116.056C501.627 110.488 503.986 100.629 509.331 91.5406C514.678 82.4595 526.404 78.6626 526.404 78.6626C548.972 89.2311 512.964 126.879 512.964 126.879C512.964 126.879 508.254 135.078 506.151 138Z" fill="#DBDFF0"/>
<path d="M531.89 69.5494C531.89 69.5494 513.826 82.1397 507.385 112.742C507.385 112.742 524.67 80.1819 530.23 74.4138C530.23 74.4138 532.572 72.2527 531.89 69.5494Z" fill="#DBDFF0"/>
<path d="M503.266 120.531C503.266 120.531 502.368 191.766 501.873 208.193C501.378 224.613 523.319 169.046 523.319 169.046C523.319 169.046 512.644 134.013 503.266 120.531Z" fill="#DBDFF0"/>
<path d="M594 293.268C594 293.268 543.276 286.932 511.932 304.233C480.587 321.541 541.809 252 541.809 252C541.809 252 593.615 273.313 594 293.268Z" fill="#DBDFF0"/>
<path d="M482.42 446.826C482.42 446.826 479.628 453.815 475.875 455.428C472.122 457.042 463.557 464.625 460.161 465.132C456.764 465.632 448.625 466.138 448.105 470.358C447.586 474.585 448.398 478.441 464.807 476.469C481.215 474.498 496.804 467.279 496.804 467.279C496.804 467.279 500.372 450.978 495.181 442.815C489.989 434.657 482.42 446.826 482.42 446.826Z" fill="#4183BA"/>
<path d="M482.369 446.682L485.748 437L498 437.176L497.818 447.548C497.818 447.548 479.17 453.603 482.369 446.682Z" fill="#EEA886"/>
<path d="M585.426 428.733C585.426 428.733 584.143 436.19 582.28 438.42C580.418 440.656 577.604 451.381 573.817 454.753C570.03 458.132 560.76 465.728 563.498 469.64C566.237 473.559 585.895 468.899 593.075 457.045C600.263 445.184 602.677 443.869 601.842 440.601C601.001 437.339 594.565 424.73 594.745 423.214C594.924 421.698 585.426 428.733 585.426 428.733Z" fill="#4183BA"/>
<path d="M583 422.871C583.116 422.871 585.292 426.331 585.75 428.344C586.208 430.35 590.491 431.217 594 426.918C594 426.918 595.102 425.366 594.992 422.773C594.883 420.172 592.078 414 592.078 414L583 422.871Z" fill="#EEA886"/>
<path d="M537.689 253.397C537.024 256.359 532.877 268.747 528.235 282.508C526.903 286.458 525.53 290.518 524.186 294.495C521.26 303.175 518.476 311.488 516.56 317.482C515.517 320.741 514.731 323.31 514.321 324.877C511.608 335.228 514.213 351.579 514.921 365.223C515.632 378.86 499.838 445.672 499.838 445.672C496.339 447.233 481 442.71 481 442.71C483.625 437.904 488.378 354.499 487.073 349.162C485.769 343.831 485.079 329.034 486.559 323.282C486.862 322.101 487.026 320.534 487.088 318.656C487.322 311.371 486.009 299.294 485.301 286.064C484.408 269.416 491.547 228.18 492.531 224.5C492.621 224.154 492.765 223.685 492.946 223.098C494.743 217.326 500.498 200.954 500.498 200.954C511.687 197.826 520.082 197.356 526.32 198.73C534.578 200.546 539.059 205.58 541.237 211.912C546.441 227.034 538.552 249.551 537.689 253.397Z" fill="#292C47"/>
<path d="M598 421.799L582.69 428C580.925 418.74 539.485 353.882 536.806 346.68C534.126 339.47 531.368 325.57 531.448 320.487C531.463 319.576 531.422 318.049 531.324 316.061C530.952 308.347 529.77 293.797 527.923 282.458C527.58 280.345 527.213 278.342 526.823 276.512C524.735 266.727 524.876 233.401 525.163 213.81C525.289 205.095 525.444 199.094 525.444 199.094C525.444 199.094 525.641 198.942 526.009 198.673C530.282 195.551 557.669 176.547 566.826 194.861C569.242 199.702 570.785 204.881 571.692 210.267C574.454 226.778 576.378 247.889 573.665 264.745C571.339 279.164 566.549 295.441 563.227 310.281C561.414 318.374 559.787 327.13 561.628 330.438C566.805 339.761 571.886 347.661 582.136 380.434C585.465 391.097 598 421.799 598 421.799Z" fill="#292C47"/>
<path d="M562.42 166.566C564.723 176.444 576.456 225.781 576.105 228.697C575.974 229.795 562.199 231.87 549.549 233.892C528.507 237.245 501.537 228.953 492.374 223.202L492.376 223.195C492.582 222.473 505.72 176.376 506.72 171.054C507.727 165.687 506.004 145.487 505.634 139.789C505.495 137.677 504.642 134.647 503.639 131.385V131.377C501.937 125.852 499.806 119.643 499.984 116.064C500.119 113.343 500.835 110.802 501.978 108.246L501.98 108.239C503.279 105.337 505.123 102.405 507.296 99.1502C508.561 97.2408 509.893 95.3014 511.222 93.422C515.549 87.2803 519.863 81.7174 521.967 79.808C523.533 78.3947 524.996 77.3123 526.258 76.4929H526.271C528.124 75.2976 529.545 74.6812 530.225 74.4105H530.229C530.515 74.3053 530.667 74.2602 530.667 74.2602L549.011 71.6291C549.011 71.6291 550.955 72.3658 553.692 73.343C557.049 74.5533 561.613 76.117 565.26 77.1393H565.267C565.832 77.2972 566.37 77.4475 566.88 77.5753C566.88 77.5753 569.99 78.7857 573.23 82.5594C576.318 86.1602 579.551 92.0238 579.455 103.841C579.373 114.253 567.011 138.962 565.04 146.615C563.075 154.275 560.111 156.688 562.42 166.566Z" fill="#4183BA"/>
<path d="M526.274 76.4827L515.405 93.0229L505.373 108.29C505.398 108.208 506.086 105.887 507.3 99.1402C507.53 97.8598 507.779 96.4222 508.046 94.8049C508.124 94.3257 508.236 93.8539 508.376 93.3897C512.718 83.7981 525.785 76.7223 526.262 76.4902L526.274 76.4827Z" fill="#EDDAD3"/>
<path d="M552.979 73.6836C552.979 73.6836 552.8 52.0102 554.703 48.5542C556.606 45.0981 532.13 62.701 532.13 62.701C532.13 62.701 532.202 63.5535 532.226 64.1603C532.232 64.2831 532.234 64.383 532.235 64.4751C532.249 66.5104 532.223 66.8099 532.016 68.5379C531.99 68.7453 531.963 68.9834 531.931 69.2368C531.596 72.0477 530.791 75.0814 529.542 77.5851C526.791 83.1072 552.979 73.6836 552.979 73.6836Z" fill="#EEA886"/>
<path d="M508.42 93.2808H508.419C508.419 93.2808 507.835 94.4414 507.297 99.1436L511.223 93.4156C511.223 93.4156 518.227 83.7117 520.614 81.1959C523.001 78.6801 526.259 76.4938 526.259 76.4938C526.259 76.4938 512.684 82.7534 508.42 93.2808Z" fill="#DBDFF0"/>
<path d="M530.672 74.2514C530.672 74.2514 518.105 92.9191 522.231 94.6312C526.357 96.3433 548.898 92.8587 558.736 75.0886C558.736 75.0886 544.568 67.5386 530.672 74.2514Z" fill="#EEA886"/>
<path d="M505.654 140.101C505.631 139.838 505.616 139.696 505.617 139.668C505.621 139.682 505.628 139.717 505.636 139.788C505.644 139.859 505.652 139.959 505.654 140.101Z" fill="#2F4563"/>
<path d="M559.169 107.686C559.169 107.686 574.887 102.374 579.755 102.074C579.755 102.074 576.556 74.1906 560.375 76.7337C544.19 79.2693 559.169 107.686 559.169 107.686Z" fill="#EDDAD3"/>
<path d="M531.69 70.8592C531.69 70.8592 532.578 74.4541 552.995 68.5381L553.877 73.1654C553.877 73.1654 556.559 73.61 563.846 76.7225C563.846 76.7225 526.656 110.666 521.345 96.4828C516.034 82.307 530.236 74.4013 530.236 74.4013L531.69 70.8592Z" fill="#4183BA"/>
<path d="M530.228 74.4149L501.979 108.241C503.278 105.339 505.123 102.406 507.296 99.1508C508.561 97.2458 509.893 95.3032 511.221 93.4207C515.549 87.2854 519.863 81.7202 521.966 79.8077C523.533 78.3901 524.995 77.31 526.258 76.4925H526.27C528.123 75.3 529.544 74.6774 530.225 74.4149H530.228Z" fill="#DBDFF0"/>
<path d="M505.615 139.668C503.912 134.14 499.317 121.42 499.753 116.057C499.974 113.342 500.835 110.807 501.977 108.249L501.979 108.242C503.278 105.339 505.128 102.107 507.299 98.8439C508.565 96.9388 510.847 93.7212 512.176 91.8386C516.503 85.7034 519.865 81.6607 521.969 79.7481C523.535 78.3381 525.011 77.153 526.272 76.3355C528.126 75.143 529.544 74.678 530.225 74.4155H530.228C530.228 74.4155 500.619 100.299 505.615 139.668Z" fill="#DBDFF0"/>
<path d="M567.541 193C567.541 193 565.651 195.813 564.5 196.358C563.349 196.903 562 199.545 562 199.545L569.22 205C569.22 205 571.987 198.753 575.365 196.833C578.743 194.913 567.541 193 567.541 193Z" fill="#EEA886"/>
<path d="M581.197 93.5234C581.197 93.5234 575.012 74.8087 561.493 80.4171C548.491 85.8006 565.533 108.789 567.043 111.593C568.552 114.405 582.796 137.019 584.216 140.055C588.718 149.675 587.084 154.384 585.429 158.927C579.887 174.193 569.297 188.372 566.739 190.808C564.182 193.238 574.337 202.295 578.452 199.566C583.927 195.937 593.944 176.765 596.681 172.409C600.031 167.078 608.421 157.518 602.851 140.595C599.1 129.191 581.197 93.5234 581.197 93.5234Z" fill="#DBDFF0"/>
<path d="M559.267 194L576 207.74C576 207.74 562.388 227.311 556.146 218.9C549.904 210.482 559.267 194 559.267 194Z" fill="#DBCAC3"/>
<path d="M525.49 115.883L525.486 115.89C528.767 85.9794 552.998 68.2574 552.998 68.2574L553.853 72.7274C578.375 80.077 578.871 85.5573 579.754 102.081C580.092 108.42 578.189 116.84 575.756 125.893C574.77 129.572 573.694 133.349 572.653 137.133C569.564 148.342 566.724 159.611 567.103 168.483C567.931 187.743 618 273.225 618 273.225C617.721 291.113 572.756 316.019 572.756 316.019C575.211 292.462 521.106 139.583 525.49 115.883Z" fill="#DBDFF0"/>
<path d="M572.652 137.14C565.116 128.009 561.021 101.586 561.021 101.586C565.385 114.523 575.754 125.897 575.754 125.897C574.768 129.571 573.692 133.348 572.652 137.14Z" fill="#80828C"/>
<path d="M528 282.915C526.607 286.897 525.17 290.99 523.764 295C517.68 270.837 517 244 517 244C518.719 258.988 528 282.915 528 282.915Z" fill="#151624"/>
<path d="M533.046 8.36821C533.046 8.36821 515.187 19.6239 520.488 47.6077C525.791 75.5915 546.903 60.5865 549.199 59.0469C551.488 57.4994 558.774 40.1571 559.168 32.5469C559.54 25.3754 563.738 -3.31031 533.046 8.36821Z" fill="#EEA987"/>
<path d="M534.174 13.9807C536.027 13.4699 542.057 25.5929 545.36 28.6097C548.663 31.6345 554.702 39.1765 555.171 47.3489C555.647 55.5214 562.947 29.6313 560.721 19.9504C558.487 10.2696 555.537 -3.92854 533.814 6.94946C512.093 17.8275 517.345 37.9713 517.345 37.9713C517.345 37.9713 524.816 16.5825 534.174 13.9807Z" fill="#3C3F66"/>
<path d="M548.79 33.4778C549.418 30.1913 556.746 27.5122 556.56 32.4732C556.368 37.4264 552.258 43.0884 549.99 42.6912C547.722 42.294 548.219 36.5152 548.79 33.4778Z" fill="#EEA987"/>
<path d="M532.014 68.5359H532.05C544.849 68.5891 549.2 59.0427 549.2 59.0427C540.227 65.5892 533.149 64.3513 532.22 64.1538C532.228 64.2677 532.232 64.3892 532.234 64.4804C532.248 66.5081 532.221 66.8119 532.014 68.5359Z" fill="#A87860"/>
<path d="M221.366 201.376C221.366 201.376 217.356 203.499 215.608 201.485C214.119 199.777 211.564 199.227 210.593 198.876C209.291 198.408 205.838 195.478 205.231 197.112C204.616 198.751 210.69 202.216 211.813 203.198C212.944 204.176 206.341 205.233 205.289 206.377C204.234 207.517 206.598 218.349 211.046 217.102C215.492 215.851 219.137 212.514 219.962 212.451C220.785 212.384 223.283 211.148 223.283 211.148L221.366 201.376Z" fill="#EEA886"/>
<path d="M206.252 205.843C206.252 205.843 192.899 210.572 192.276 211.632C191.642 212.692 191.947 213.397 193.211 213.013C194.48 212.618 206.244 208.819 206.244 208.819C206.244 208.819 191.379 217.066 190.674 217.821C190.267 218.266 190.761 219.674 191.46 219.523C192.154 219.381 207.355 212.046 207.355 212.046C207.355 212.046 193.49 219.776 193.092 220.584C192.745 221.29 193.524 222.465 194.591 221.957C195.654 221.46 208.936 215.015 208.936 215.015C208.936 215.015 199.19 221.275 199.262 222.155C199.296 222.694 199.673 223.932 202.135 222.235C204.601 220.542 210.834 217.156 210.834 217.156L206.252 205.843Z" fill="#EEA886"/>
<defs>
<linearGradient id="paint0_linear_68_2488" x1="-0.000381505" y1="430.587" x2="599.747" y2="430.587" gradientUnits="userSpaceOnUse">
<stop stop-color="#FFDFBD"/>
<stop offset="0.251295" stop-color="#FFDFBD"/>
<stop offset="1" stop-color="#FFB587"/>
</linearGradient>
<linearGradient id="paint1_linear_68_2488" x1="223.319" y1="283.081" x2="207.332" y2="323.261" gradientUnits="userSpaceOnUse">
<stop stop-color="#FACE87"/>
<stop offset="1" stop-color="#FABA52"/>
</linearGradient>
<linearGradient id="paint2_linear_68_2488" x1="243.819" y1="359.099" x2="247.905" y2="343.784" gradientUnits="userSpaceOnUse">
<stop stop-color="#EB4747"/>
<stop offset="1" stop-color="#EB7947"/>
</linearGradient>
</defs>
</svg>
