<svg width="40" height="40" viewBox="0 0 40 40" fill="none" xmlns="http://www.w3.org/2000/svg">
	<path d="M0 5C0 2.23858 2.23858 0 5 0H35C37.7614 0 40 2.23858 40 5V20C40 31.0457 31.0457 40 20 40V40C8.95431 40 0 31.0457 0 20V5Z" fill="#FFFCFC"/>
	<path d="M29.735 29.7349C29.6932 29.8589 29.6338 29.9711 29.4451 29.9972H29.444C29.1959 30.1626 29.0363 30.1727 28.7121 30.0428C28.7058 30.0462 28.7006 30.0487 28.6933 30.0512C28.6224 30.0774 28.539 30.031 28.4556 30.0858C28.4848 30.2242 28.6245 30.2984 28.7454 30.3836C28.8122 30.4309 28.9216 30.4477 28.9237 30.5397C28.9258 30.5389 28.929 30.5389 28.931 30.538C29.0426 30.6401 29.1917 30.5456 29.3147 30.5869C29.3158 30.5869 29.3168 30.5869 29.3179 30.5878C29.3168 30.5861 29.3147 30.5844 29.3137 30.5827C29.6422 30.3997 29.6755 30.1187 29.6922 29.8327C29.7214 29.8049 29.7308 29.7703 29.735 29.7349Z" fill="#373737"/>
	<path d="M29.5224 23.6719C29.1763 23.594 28.8365 23.4929 28.5164 23.3209C28.442 23.2805 28.3819 23.235 28.2887 23.3088C27.9802 23.5556 27.6673 23.4737 27.366 23.2805C26.8935 22.977 26.568 22.5522 26.4039 22.0586C26.3842 22.3762 26.3564 22.6847 26.3232 22.9851C26.5949 23.1409 26.8236 23.3766 27.0334 23.6456C27.2952 23.9825 27.505 24.3628 27.6816 24.7603C27.7641 24.9464 27.8583 25.0071 28.0224 24.9848C28.052 24.9828 28.0815 24.9798 28.1102 24.9778C28.4043 24.912 28.6984 24.9019 28.9925 24.9798C29.3315 25.1032 29.3906 25.0698 29.5126 24.6875C29.5538 24.558 29.5987 24.4295 29.6417 24.3001C29.6731 24.1403 29.7036 23.9804 29.7349 23.8206C29.7161 23.678 29.6085 23.6922 29.5224 23.6719Z" fill="#373737"/>
	<path d="M29.8793 26.21C29.9588 26.258 30.0459 26.2507 30.132 26.2539C30.185 26.256 30.238 26.2643 30.2891 26.28C30.3213 26.2936 30.3544 26.3061 30.3847 26.3228C30.4121 26.3197 30.4386 26.3113 30.4604 26.281C30.7358 25.888 31.0718 25.8807 31.4409 26.0772C31.2109 25.6549 30.8267 25.4783 30.4358 25.3058C30.2352 25.218 30.0099 25.1971 29.8339 25.0435C29.743 25.4009 29.5376 25.6842 29.3086 25.957C29.4875 26.1044 29.7004 26.1107 29.8793 26.21Z" fill="#373737"/>
	<path d="M30.5931 27.1561C30.9232 26.9798 31.2406 26.7849 31.4014 26.4432C31.4216 26.403 31.4355 26.3629 31.4408 26.3228C31.4323 26.3384 31.4216 26.3541 31.4067 26.3707C31.231 26.4706 31.0404 26.5029 30.837 26.4863C30.6708 26.5499 30.4973 26.5186 30.3258 26.5225C30.3162 26.5245 30.3077 26.5254 30.2981 26.5274C30.2502 26.6557 30.2129 26.7889 30.0777 26.8672C30.0936 26.8907 30.1075 26.9171 30.099 26.9426C29.7976 27.8131 29.5101 28.6895 28.8615 29.4132C28.8423 29.4347 28.8189 29.4514 28.7944 29.467C28.7838 29.4709 28.7731 29.4739 28.7635 29.4758C28.7848 29.6139 28.6581 29.6756 28.575 29.751C28.4451 29.8695 28.3759 29.9635 28.6091 30.0389C28.6453 30.0506 28.6623 30.0859 28.6677 30.1221C28.8753 30.1583 29.083 30.2044 29.2736 30.0771C29.2726 30.0732 29.2704 30.0702 29.2694 30.0673C29.4824 29.5375 29.5377 28.9774 29.6357 28.4251C29.7348 27.8621 30.0574 27.444 30.5931 27.1561Z" fill="#373737"/>
	<path d="M29.9348 20.3092C29.9964 20.2542 30.0737 20.2152 30.1236 20.1463C30.1647 20.0893 30.1794 20.0264 30.1324 19.9644C30.0904 19.9095 30.0336 19.9235 29.9808 19.9435C29.8076 20.0094 29.6521 20.1103 29.4995 20.2142C29.4095 20.2752 29.3205 20.3391 29.2089 20.3551C29.1502 20.522 29.0133 20.5979 28.8538 20.6499C28.8206 20.8387 28.7286 20.9816 28.5427 21.0466C28.5574 21.1495 28.487 21.2204 28.441 21.3023C28.2806 21.5861 28.1182 21.8689 28.0497 22.1956C28.0047 22.4074 28.0311 22.6053 28.1593 22.7831C28.2913 22.965 28.3637 22.956 28.4586 22.7362C28.5701 22.4784 28.6181 22.1986 28.7071 21.9338C28.7423 21.8279 28.7443 21.688 28.8744 21.6431C28.8509 21.2914 29.159 20.8517 29.4926 20.7578C29.4907 20.7538 29.4887 20.7508 29.4868 20.7468C29.5719 20.534 29.7783 20.448 29.9348 20.3092Z" fill="#373737"/>
	<path d="M26.8005 25.4205C27.0752 25.3909 27.3399 25.4602 27.6026 25.5287C27.8984 25.6054 28.1931 25.6859 28.4558 25.7441C28.2112 25.586 27.9776 25.3835 27.8442 25.0959C27.8452 25.0838 27.8472 25.0727 27.8523 25.0616C27.6277 25.0108 27.4061 25.0829 27.1825 25.082C27.1303 25.0783 27.0772 25.0764 27.0301 25.0598C26.5277 25.1735 26.0394 25.3206 25.5622 25.4972C25.3225 26.0974 25.0247 26.6347 24.6698 27.1083C24.6528 27.1314 24.6347 27.1536 24.6177 27.1758C24.6508 27.1545 24.6869 27.1406 24.732 27.1443C24.733 27.1452 24.734 27.1462 24.735 27.1471C24.734 27.1453 24.733 27.1434 24.732 27.1416C25.0268 26.6569 25.3356 26.1834 25.869 25.881C25.871 25.8819 25.873 25.8829 25.875 25.8838C25.883 25.8265 25.9011 25.7811 25.9642 25.7904C26.1547 25.5009 26.4786 25.4547 26.8005 25.4205Z" fill="#373737"/>
	<path d="M25.897 16.1477C25.9646 16.3876 26.0236 16.6357 26.074 16.8921C26.0931 16.9863 26.1093 17.0834 26.1264 17.1795C26.3244 17.0742 26.5319 16.9845 26.7547 16.9195C26.8499 16.892 26.946 16.8756 27.046 16.8866C27.2896 16.9122 27.3972 17.0147 27.4201 17.2482C27.4286 17.3342 27.4267 17.4203 27.4258 17.5064C27.4248 17.6593 27.4648 17.7307 27.659 17.7243C28.0436 17.7114 28.4558 18.096 28.5005 18.4677C28.5262 18.6865 28.4015 18.7936 28.174 18.7322C27.9636 18.6755 27.7904 18.5555 27.6285 18.4136C27.4439 18.2525 27.4058 18.2571 27.2897 18.4622C27.1935 18.6315 27.0755 18.7872 26.9689 18.9492C27.0269 18.8723 27.0945 18.8055 27.1935 18.7698C27.2916 18.735 27.3877 18.7387 27.4629 18.8238C27.4696 18.8348 27.4734 18.8458 27.4743 18.8558C27.5562 18.7625 27.6561 18.8091 27.7504 18.8394C27.9017 18.887 28.0445 18.9575 28.1978 19.0014C28.6062 19.1186 29.0003 19.0985 29.3772 18.8897C29.4781 18.8339 29.5733 18.7542 29.7019 18.7652C29.719 18.6856 29.7694 18.6389 29.8561 18.6288C29.9284 18.3688 30.0941 18.1445 30.1426 17.8726C30.1978 17.564 30.1407 17.3132 29.8646 17.1255C29.7038 17.0166 29.5772 16.8701 29.4287 16.7456C28.807 16.2237 28.0769 15.9262 27.2811 15.7586C27.2106 15.744 27.1431 15.7238 27.0764 15.6991C26.927 15.6442 26.7756 15.657 26.6233 15.6863C26.5833 15.6945 26.5443 15.6955 26.5043 15.6863C26.5034 15.6863 26.5024 15.6854 26.5014 15.6845C26.4843 15.766 26.4053 15.7998 26.3406 15.8365C26.1816 15.9298 26.035 16.0351 25.897 16.1477Z" fill="#373737"/>
	<path d="M30.4895 20.1289C30.7295 20.3276 30.9765 20.5183 31.2214 20.7119C31.3873 20.7581 31.493 20.8906 31.6175 20.9959C31.9622 21.2869 32.0886 21.2799 32.3997 20.9417C32.4373 20.9016 32.4728 20.8585 32.5084 20.8173C32.8995 20.0767 33.1286 19.2729 33.3953 18.4832C33.5356 18.0667 33.6827 17.6513 33.8921 17.2629C33.9247 17.2017 33.9524 17.1285 33.9998 17.0773C33.9445 16.5755 33.8744 16.0888 33.7904 15.6152C33.7884 15.6312 33.7864 15.6483 33.7845 15.6644C33.7874 15.844 33.7934 16.0236 33.738 16.1982C33.7351 16.2474 33.7311 16.2956 33.7282 16.3447C33.7351 16.4491 33.74 16.5525 33.6827 16.6458C33.6047 16.8465 33.5257 17.0482 33.4477 17.2489C33.4595 17.3823 33.3489 17.4496 33.2906 17.5449C33.1899 17.6774 33.0812 17.8008 32.9291 17.8791C32.7612 17.9654 32.7474 18.156 32.6852 18.3076C32.6052 18.5012 32.5291 18.6427 32.3108 18.4521C32.2111 18.3658 32.1074 18.3959 32.0027 18.4591C31.8762 18.5364 31.7439 18.6036 31.6135 18.6759C31.497 18.6869 31.3785 18.7361 31.2698 18.6467C31.2678 18.6337 31.2678 18.6207 31.2698 18.6096C31.2649 18.6136 31.2599 18.6176 31.255 18.6207C31.0012 18.442 30.9458 18.1751 30.9389 17.8861C30.9281 17.8761 30.9162 17.87 30.9024 17.867C30.9172 17.7476 30.8737 17.6222 30.937 17.5068C30.9379 17.4787 30.932 17.4476 30.9419 17.4235C31.0989 17.0181 31.3834 16.6729 31.4743 16.2343C31.496 16.13 31.6155 16.0648 31.7222 16.0246C31.8239 15.9865 31.9227 15.9945 32.0076 16.0708C32.0995 16.1521 32.0817 16.2564 32.0511 16.3568C32.0205 16.4581 31.9286 16.5394 31.9434 16.6889C32.0837 16.5826 32.1261 16.4039 32.2842 16.3658C32.4303 16.3307 32.5884 16.2695 32.6931 16.4511C32.8827 16.5454 32.7484 16.7602 32.8521 16.8906C32.8985 16.9488 32.8886 17.0522 32.9736 17.0793C32.9894 17.0642 33.0062 17.0502 33.0279 17.0391C33.1148 17.0131 33.1988 17.004 33.2689 17.0693C33.3124 16.9458 33.3736 16.8284 33.4101 16.702C33.4506 16.5153 33.4526 16.3297 33.4052 16.144C33.2995 15.8329 33.1267 15.5831 32.8412 15.4055C32.3879 15.1235 31.9177 15.1877 31.5246 15.6232C31.4624 15.6925 31.415 15.7768 31.3142 15.7968C31.3034 15.7968 31.2935 15.7938 31.2846 15.7908C31.2856 15.7918 31.2856 15.7928 31.2866 15.7938C31.3735 15.9534 31.2668 16.0537 31.1602 16.1169C30.8451 16.3016 30.4974 16.3688 30.1616 16.3829C30.4431 16.701 30.7513 17.0492 30.7888 17.5499C30.7888 17.5509 30.7878 17.5529 30.7878 17.5539C30.8826 17.6312 30.8678 17.7647 30.9044 17.872C30.9034 18.0687 30.9735 18.2584 30.9705 18.4561C30.9695 18.5645 31.0229 18.6307 31.1286 18.6538C31.2115 18.6718 31.2856 18.708 31.334 18.7842C31.4456 18.8846 31.6135 18.9087 31.6916 19.0552C31.7558 19.0873 31.7874 19.1706 31.8723 19.1676C31.9967 18.993 32.1656 18.8705 32.3365 18.7491C32.4007 18.7039 32.4639 18.6166 32.5518 18.6949C32.6348 18.7682 32.5775 18.8505 32.541 18.9237C32.5212 18.9639 32.4876 18.998 32.461 19.0351C32.3118 19.1786 32.1834 19.3472 31.977 19.4194C31.9 19.4465 31.8921 19.5017 31.9138 19.5981C31.9701 19.8499 31.9474 20.1018 31.7824 20.3166C31.7172 20.4019 31.6224 20.4561 31.5157 20.4239C31.418 20.3938 31.4347 20.2845 31.4278 20.2062C31.4101 20.0105 31.4308 19.8178 31.5088 19.6352C31.4723 19.5509 31.3854 19.6011 31.3301 19.567C31.1463 19.568 30.9626 19.568 30.7789 19.569C30.7602 19.569 30.7414 19.57 30.7226 19.57C30.5676 19.6412 30.5369 19.8198 30.4253 19.9312C30.3246 20.0255 30.4342 20.0828 30.4895 20.1289Z" fill="#373737"/>
	<path d="M30.7699 28.5282C30.8219 28.4707 30.885 28.3947 30.984 28.4317C30.983 28.4258 30.983 28.42 30.982 28.4141C30.976 28.3118 31.043 28.2397 31.1061 28.1792C31.3802 27.9219 31.6623 27.6714 31.9145 27.3926C31.9355 27.3692 31.9665 27.3634 31.9985 27.3634C32.0065 27.2396 32.0846 27.1772 32.2026 27.1509C32.2286 26.9432 32.3497 26.799 32.5198 26.6869C32.5188 26.683 32.5178 26.6791 32.5168 26.6752C32.5178 26.5143 32.6098 26.3808 32.6579 26.2336C32.8069 25.7687 32.6919 25.3797 32.2957 25.0932C31.7634 24.7081 31.1491 24.4761 30.5428 24.2334C30.4827 24.209 30.4167 24.1983 30.3507 24.1925C30.2516 24.1837 30.1576 24.2003 30.1146 24.2997C30.0735 24.3943 30.1426 24.4557 30.2056 24.5102C30.3997 24.6769 30.6468 24.7481 30.8749 24.8524C30.987 24.904 31.1321 24.9206 31.1731 25.061C31.6273 25.0795 32.1196 25.5396 32.1826 26.0075C32.2677 26.6303 31.7854 27.569 31.2141 27.8956C31.2291 27.9677 31.1931 27.9969 31.1301 28.0028C31.1321 28.0233 31.1311 28.0428 31.1191 28.0554C30.7689 28.4229 30.4597 28.8294 30.0475 29.1384C30.0515 29.1452 30.0555 29.1511 30.0585 29.1589C30.0735 29.2154 30.0625 29.271 30.0315 29.3168C29.8564 29.5751 29.7794 29.8626 29.7354 30.1609C29.9295 29.5312 30.3277 29.0165 30.7699 28.5282Z" fill="#373737"/>
	<path d="M29.0651 25.7539C29.1019 25.7011 29.1343 25.645 29.1659 25.5879C29.3805 25.1936 29.3736 25.1714 29.0044 25.0762C28.7728 25.0318 28.5404 25.0509 28.3079 25.0657C28.2823 25.0709 28.2575 25.0688 28.2327 25.0614C28.2242 25.0561 28.2156 25.0498 28.2079 25.0435C28.1626 25.109 28.0891 25.1016 28.031 25.1354C28.0302 25.1365 28.0302 25.1376 28.0293 25.1376C28.1378 25.1291 28.184 25.2391 28.2387 25.3247C28.3643 25.5213 28.5198 25.6757 28.6839 25.8184C28.8284 25.9432 28.954 25.9157 29.0651 25.7539Z" fill="#373737"/>
	<path d="M27.5358 24.7252C27.1543 24.2236 26.7885 23.7155 26.1606 23.3832C26.1302 23.3675 26.0998 23.3527 26.0683 23.3379C25.9985 23.7488 25.9118 24.1431 25.8049 24.5179C25.7104 24.8511 25.5967 25.1676 25.4707 25.4702C25.9524 25.3147 26.4498 25.1935 26.9652 25.1102C27.0372 24.9464 27.2443 24.9927 27.3917 24.9704C27.6089 24.9381 27.6618 24.8909 27.5358 24.7252Z" fill="#373737"/>
	<path d="M30.1487 31.7112C29.9781 31.4482 29.8574 31.1588 29.8347 30.82C29.8347 30.8172 29.8347 30.8145 29.8347 30.8118C29.8347 30.8072 29.8347 30.8017 29.8347 30.7971C29.8357 30.7296 29.7584 30.6921 29.699 30.7287C29.6556 30.7561 29.6028 30.7707 29.5378 30.7707C29.518 30.767 29.4991 30.7624 29.4802 30.757C29.287 30.8255 29.1003 30.788 28.9183 30.7058C28.9061 30.7104 28.8938 30.714 28.8806 30.7168C28.5817 30.6401 28.4252 30.4392 28.3583 30.1606L27.967 30.3296C27.9698 30.3323 27.9707 30.3342 27.9736 30.3369C27.8802 30.4182 27.7737 30.4857 27.6624 30.5478C27.6332 30.5643 27.6162 30.5953 27.62 30.6282C27.6238 30.6666 27.62 30.7049 27.6153 30.7442C27.57 31.104 27.6417 31.2337 27.9707 31.4026C28.1678 31.504 28.3799 31.5697 28.5921 31.6245C28.9843 31.725 29.286 31.9441 29.5557 32.229C29.5755 32.25 29.5962 32.272 29.616 32.293C29.7952 32.1386 29.9686 31.9797 30.1365 31.8144C30.1657 31.787 30.1695 31.7441 30.1487 31.7112Z" fill="#373737"/>
	<path d="M30.0699 23.9894C30.0788 24.0054 30.0769 24.0183 30.063 24.0293C30.061 24.1748 30.0203 24.3104 29.9587 24.441C29.8843 24.6343 29.8098 24.8277 29.7354 25.022C30.2933 25.1137 30.8164 25.3001 31.2711 25.642C31.826 26.0607 31.8419 26.563 31.3148 27.0175C31.1252 27.181 30.9087 27.3136 30.7003 27.4521C30.322 27.7033 30.0917 28.0482 30.0272 28.4997C29.9786 28.8416 29.9349 29.1834 29.8882 29.5253C29.8664 29.5931 29.8634 29.6639 29.8604 29.7346C29.8743 29.7017 29.8972 29.6718 29.9369 29.6479C30.0272 29.4416 30.1185 29.2363 30.2784 29.0708C30.5742 28.6283 30.9534 28.2625 31.3396 27.9036C31.3783 27.8618 31.417 27.8189 31.4567 27.777C31.4488 27.6804 31.56 27.6534 31.5768 27.5727C31.5977 27.5239 31.6245 27.48 31.6771 27.4591C31.9064 27.191 32.095 26.8979 32.2112 26.563C32.4087 25.9949 32.2539 25.5633 31.7416 25.2533C31.6275 25.1845 31.5074 25.1247 31.3892 25.0619C31.3773 25.0579 31.3654 25.052 31.3525 25.042C30.9792 24.9224 30.6238 24.7659 30.3151 24.5167C30.193 24.418 30.1384 24.3034 30.188 24.1499C30.2277 24.0253 30.2972 23.9326 30.4054 23.8868L30.1205 23.7642C30.1225 23.8419 30.1106 23.9177 30.0699 23.9894Z" fill="#373737"/>
	<path d="M21.3546 29.9073C21.4623 29.8404 21.575 29.7853 21.6887 29.7292C21.743 29.7017 21.7893 29.6643 21.8336 29.623C21.9131 29.5443 22.0107 29.4912 22.1073 29.4381C22.2159 29.3751 22.3186 29.3033 22.4202 29.2296C22.5852 29.1155 22.7502 29.0004 22.9112 28.8813C22.8297 28.9256 22.7472 28.9679 22.6617 29.0082C22.5963 29.0397 22.5299 29.0692 22.4624 29.0977C22.4313 29.1273 22.3991 29.1558 22.3659 29.1833C22.2361 29.1764 22.224 29.3663 22.0851 29.3437C22.0821 29.3574 22.0811 29.3722 22.0801 29.386C22.0046 29.441 21.9282 29.4951 21.8527 29.5502C21.7964 29.5876 21.739 29.626 21.6827 29.6633C21.5166 29.7086 21.3667 29.7824 21.2319 29.8876C20.4763 30.1483 19.7226 30.4001 19.0193 30.8014C18.5313 31.0798 18.2456 31.5116 17.8803 31.8844C17.7274 32.1224 17.5735 32.3615 17.4205 32.5995C17.4054 32.6408 17.3873 32.6812 17.3672 32.7195C17.3974 32.6841 17.4276 32.6477 17.4588 32.6123C17.8491 32.0811 18.3995 31.7319 18.9378 31.368C18.974 31.3434 19.0173 31.3355 19.0606 31.3355C19.0737 31.2755 19.124 31.2401 19.1763 31.2067C19.6512 30.9047 20.1301 30.6096 20.6212 30.3342C20.7288 30.2742 20.8445 30.1778 20.9864 30.2693C20.9874 30.2693 20.9874 30.2693 20.9884 30.2693C20.9733 30.0184 21.2279 30.0234 21.3546 29.9073Z" fill="#373737"/>
	<path d="M15.9071 32.6795C15.9792 32.6279 16.1145 32.6042 16.0838 32.4721C16.0595 32.3678 15.9405 32.3472 15.8512 32.3224C15.5266 32.2295 15.3616 32.3534 15.2813 32.7373C15.2245 33.0119 15.2705 33.2957 15.2354 33.5724C15.3408 33.1739 15.5933 32.9025 15.9071 32.6795Z" fill="#373737"/>
	<path d="M14.7786 35.3835C14.7687 35.3718 14.7674 35.3565 14.774 35.3389C14.7214 34.9927 14.7313 34.6465 14.7733 34.3003C14.7746 34.1748 14.7766 34.0492 14.7779 33.9248C14.8068 33.8145 14.7904 33.6901 14.7996 33.5728C14.7871 33.6303 14.77 33.6842 14.7425 33.7288C14.6827 33.8955 14.6288 34.0703 14.5625 34.2288C14.399 34.6172 14.3385 35.0667 14.4154 35.5431C14.5448 35.6006 14.6755 35.6546 14.8088 35.7051C14.7865 35.603 14.772 35.4985 14.7786 35.3835Z" fill="#373737"/>
	<path d="M15.2943 34.2488C15.2849 34.3238 15.2864 34.3998 15.2734 34.4748C15.2289 34.7403 15.2828 35.0139 15.2375 35.2784C15.2368 35.2804 15.2361 35.2814 15.2354 35.2834C15.2404 35.2855 15.2454 35.2875 15.2512 35.2926C15.313 35.403 15.3165 35.557 15.3647 35.6786C15.3963 35.6877 15.4279 35.6958 15.4595 35.705C15.5264 35.5368 15.6155 35.3959 15.7391 35.2996C15.7376 35.2875 15.7355 35.2743 15.7319 35.2632C15.7642 35.0382 15.8167 34.8193 15.8935 34.6217C16.0028 34.3431 16.048 34.0644 16.0006 33.7503C15.9467 33.3966 15.9956 33.0541 16.0883 32.7197C15.553 32.9538 15.3783 33.5557 15.2943 34.2488Z" fill="#373737"/>
	<path d="M16.7921 33.2217C16.8004 33.2217 16.8069 33.2228 16.8152 33.2239C17.1133 32.7317 17.3588 32.1951 17.6865 31.7274C17.6727 31.6074 17.8231 31.573 17.789 31.443C17.7548 31.4452 17.7068 31.4308 17.6874 31.453C17.1835 32.0163 16.6315 32.5407 16.5188 33.4372C16.5133 33.4816 16.5142 33.5272 16.5161 33.5727C16.5595 33.5405 16.5955 33.4861 16.6509 33.4883C16.6232 33.3483 16.6887 33.2728 16.7921 33.2217Z" fill="#373737"/>
	<path d="M14.3357 8.31656C14.6593 8.07813 14.8647 7.77816 14.7959 7.36667C14.7223 6.92634 14.4568 6.6081 14.0402 6.4437C13.8474 6.36775 13.641 6.32064 13.4356 6.2793C13.2835 6.34179 13.1343 6.40621 12.9861 6.47254C12.9841 6.48793 12.9822 6.50139 12.9812 6.51869C13.4637 6.48504 13.9007 6.57061 14.2902 6.89942C14.1303 6.93499 13.9704 6.97056 13.7728 7.01383C13.953 7.10708 14.0867 7.17535 14.2562 7.26284C14.3328 7.22053 14.4084 7.17823 14.4849 7.13497C14.5256 7.22342 14.5973 7.31091 14.5983 7.39936C14.5992 7.5205 14.5789 7.66471 14.512 7.75989C14.2708 8.10216 14.0092 8.43001 13.7466 8.75594C13.7079 8.80401 13.6187 8.8117 13.5529 8.83765C13.5325 8.76555 13.4812 8.68479 13.4976 8.6223C13.5577 8.39155 13.6459 8.16754 13.7127 7.93776C13.7379 7.85219 13.7321 7.75701 13.7398 7.66664C13.6536 7.67144 13.5616 7.66087 13.4812 7.68587C13.2777 7.7474 13.1895 7.68106 13.2196 7.4657C13.2322 7.37244 13.2622 7.2811 13.2816 7.18784C13.3261 6.97441 13.268 6.85038 12.9899 6.71386C12.9144 6.67637 12.7662 6.7427 12.6712 6.79558C12.5239 6.87827 12.3873 6.98306 12.2585 7.09266C12.1955 7.14554 12.1277 7.22726 12.119 7.30225C12.0986 7.48012 12.0124 7.57818 11.8428 7.6128C11.7159 7.63875 11.6859 7.70029 11.6655 7.84065C11.6258 8.12428 11.5095 8.39636 11.4398 8.6771C11.4107 8.79247 11.3691 8.95687 11.4253 9.02802C11.4824 9.10012 11.6568 9.11743 11.7711 9.10109C12.0269 9.06455 12.2798 9.0011 12.5288 8.93091C12.7051 8.88092 12.8088 8.75305 12.8543 8.56942C12.8892 8.43001 12.9522 8.29637 13.0132 8.16562C13.0297 8.13004 13.082 8.10986 13.1178 8.08294C13.1382 8.13005 13.175 8.17619 13.176 8.2233C13.1808 8.45501 13.1634 8.68671 13.1779 8.91745C13.1876 9.0809 13.2661 9.228 13.4492 9.25972C13.6333 9.29145 13.8106 9.16358 13.8658 8.9588C13.9375 8.67998 14.1129 8.48097 14.3357 8.31656Z" fill="#373737"/>
	<path d="M13.8073 26.6143C13.4186 26.1004 13.0441 25.5778 12.6534 25.0648C12.5432 24.9203 12.3983 24.7997 12.2657 24.6715C12.1698 24.5796 12.0504 24.6121 12.0157 24.704C11.9096 24.9863 11.6974 25.1375 11.3975 25.2294C11.6535 25.3328 11.9147 25.4266 12.1647 25.5414C12.9176 25.886 13.3788 26.4746 13.6951 27.1809C13.741 27.2833 13.7889 27.3886 13.8542 27.4804C13.9726 27.647 14.1389 27.6412 14.2491 27.4699C14.3103 27.3752 14.3531 27.2775 14.3827 27.179C14.2776 27.0105 14.1776 26.8354 14.0848 26.6554C14.0838 26.6928 14.0817 26.7368 14.0828 26.7904C13.9562 26.711 13.8563 26.6794 13.8073 26.6143Z" fill="#373737"/>
	<path d="M10.8485 21.6606C10.4715 21.5927 10.1023 21.6266 9.85558 21.9652C9.78792 22.0585 9.74513 22.1679 9.69141 22.2698C9.8108 22.3075 9.9282 22.3754 10.0496 22.3801C10.9222 22.4122 11.7947 22.4348 12.6683 22.4555C12.8156 22.4593 12.9608 22.4668 13.1031 22.4848C13.0892 22.3612 13.0762 22.2368 13.0643 22.1113C12.731 22.0623 12.3987 22.0067 12.0694 21.9435C11.6584 21.8643 11.2595 21.7341 10.8485 21.6606Z" fill="#373737"/>
	<path d="M6.3678 18.0106C6.33357 18.0511 6.28724 18.0906 6.27415 18.1379C6.24294 18.2555 6.25402 18.3896 6.20166 18.4966C5.89555 19.1273 5.57131 19.7484 5.26519 20.3791C5.15745 20.6019 5.08193 20.8401 5.00238 21.0745C4.98929 21.113 5.0336 21.1699 5.05072 21.2182C5.08394 21.2047 5.13328 21.1998 5.14939 21.1748C5.42832 20.7552 5.70725 20.3357 5.97812 19.9114C6.22482 19.5247 6.45843 19.1293 6.70513 18.7425C6.74037 18.6866 6.81388 18.6529 6.86926 18.6095C6.88235 18.6239 6.89544 18.6384 6.90853 18.6529C6.36881 19.5131 5.82909 20.3743 5.28635 21.2394C5.39812 21.2818 5.51592 21.3107 5.61561 21.3676C5.93179 21.548 6.24999 21.7274 6.55106 21.9299C6.82394 22.1141 7.10791 22.3089 7.0485 22.6985C7.04548 22.7149 7.06058 22.7342 7.06662 22.7525C7.25995 23.3581 7.68488 23.7449 8.31624 23.9021C9.17113 24.1162 10.0421 24.2107 10.9282 24.1663C11.1538 24.1547 11.3804 24.1586 11.6532 24.1538C11.5536 24.4084 11.474 24.6109 11.3854 24.8375C11.6744 24.7922 11.8486 24.6938 11.9342 24.4585C12.0057 24.2628 12.2071 24.2145 12.3873 24.3312C12.4578 24.3765 12.5303 24.4277 12.5786 24.4923C12.8495 24.8539 13.1123 25.2214 13.3781 25.5859C13.5584 25.8328 13.7406 26.0777 13.9219 26.3227C13.9591 26.2764 13.9591 26.2523 13.9521 26.2301C13.8715 25.9861 13.79 25.7431 13.7084 25.5001C13.649 25.3352 13.5936 25.1674 13.5413 24.9947C13.5 24.8684 13.4577 24.7421 13.4164 24.6157C13.3459 24.3978 13.2311 24.1817 13.2875 23.9484C13.2684 23.851 13.2492 23.7526 13.2321 23.6533C13.0126 23.6918 12.7921 23.7265 12.5716 23.7603C11.7106 23.8915 10.8547 24.0921 9.97366 24.0255C9.46113 23.9869 8.94759 23.9368 8.44412 23.8432C8.19541 23.7969 7.9336 23.6822 7.73724 23.5288C7.31534 23.1981 7.17839 22.7207 7.14718 22.2153C7.13207 21.9752 7.26297 21.8113 7.50967 21.7746C7.69697 21.7466 7.88929 21.7534 8.0786 21.7409C8.45117 21.7167 8.82575 21.7032 9.1963 21.6579C9.44703 21.6271 9.68971 21.5287 9.94044 21.4998C10.1348 21.4776 10.2002 21.4014 10.2103 21.2259C10.2496 20.5614 10.4671 19.9558 10.8568 19.4003C11.3955 18.6307 11.6563 17.7868 11.5797 16.8514C11.5223 16.1416 11.0199 15.6507 10.2898 15.6613C9.8045 15.669 9.31613 15.6951 8.83582 15.7597C8.4985 15.805 8.17224 15.9275 7.79967 16.0258C7.95978 16.1792 8.07759 16.2862 8.18634 16.4C8.31422 16.5331 8.43909 16.5572 8.59617 16.4367C8.83482 16.2544 9.10869 16.2351 9.37855 16.3537C9.93036 16.5939 10.4006 16.9459 10.7994 17.3799C11.0078 17.6065 10.9172 17.8727 10.608 17.917C10.306 17.9604 9.99279 17.9595 9.68668 17.9411C9.37151 17.9218 9.06037 17.8486 8.7452 17.8206C8.65658 17.8129 8.48843 17.8736 8.48238 17.918C8.46929 18.0135 8.53474 18.1205 8.57703 18.2189C8.59012 18.2497 8.63644 18.2671 8.66262 18.2951C8.8046 18.4426 8.96672 18.5776 9.08151 18.7425C9.38964 19.1852 9.47422 19.65 9.12381 20.1139C9.02513 20.2451 8.9053 20.3647 8.77943 20.4727C8.35853 20.8362 7.90741 21.1584 7.3687 21.3455C7.14314 21.4236 7.04144 21.3483 7.07971 21.1314C7.17335 20.6 7.27707 20.0705 7.37977 19.5411C7.38682 19.5054 7.41603 19.4736 7.43516 19.4408C7.45933 19.4466 7.48248 19.4523 7.50665 19.4581C7.39589 20.0474 7.28613 20.6366 7.16832 21.2673C7.27808 21.2384 7.34051 21.2288 7.3969 21.2056C7.87922 21.007 8.30919 20.7253 8.68478 20.3801C8.86603 20.2133 9.04526 20.0175 9.14495 19.8015C9.33325 19.3926 9.16006 19.0232 8.88516 18.7001C8.7452 18.5352 8.57401 18.3954 8.42498 18.2382C8.32026 18.1273 8.2669 17.9787 8.36558 17.8601C8.43505 17.7762 8.58005 17.701 8.68678 17.7058C9.008 17.7222 9.3262 17.7974 9.64842 17.8158C9.96057 17.8331 10.2788 17.8254 10.5899 17.7936C10.7822 17.7733 10.8185 17.6287 10.7057 17.4705C10.6755 17.429 10.6483 17.3827 10.609 17.3519C10.3321 17.1301 10.0663 16.8928 9.76925 16.6971C9.38963 16.4473 8.98787 16.2457 8.54381 16.6064C8.43707 16.6922 8.30314 16.6614 8.19842 16.5707C8.09168 16.4781 7.99099 16.3798 7.88627 16.2853C7.68085 16.0991 7.57009 16.1107 7.40898 16.3422C7.36568 16.4049 7.33648 16.4772 7.29721 16.5428C7.07367 16.9112 6.84912 17.2796 6.62558 17.648C6.59939 17.6393 6.43527 17.9286 6.3678 18.0106Z" fill="#373737"/>
	<path d="M5.61947 23.6079C6.67752 24.0741 7.79003 24.298 8.9006 24.5391C9.39559 24.6468 9.88475 24.7932 10.3778 24.9127C10.6024 24.9676 10.83 25.0053 11.0576 25.0419C11.1013 25.0494 11.1781 25.0333 11.1918 25.0021C11.2715 24.8212 11.3367 24.6317 11.3969 24.4713C10.7784 24.4487 10.1609 24.4552 9.54827 24.396C8.98326 24.3421 8.40853 24.2657 7.89798 23.9664C7.39716 23.6725 7.06262 23.2096 7.01108 22.5637C6.99455 22.3613 6.92162 22.217 6.79617 22.119C6.43441 21.8359 6.06195 21.5678 5.68463 21.3095C5.41136 21.1221 5.29369 21.19 5.17408 21.4979C5.10114 21.6873 5.03987 21.8757 5 22.0663C5.01556 22.428 5.03793 22.7833 5.06613 23.1321C5.18186 23.3635 5.38218 23.5024 5.61947 23.6079Z" fill="#373737"/>
	<path d="M17.1709 7.98505C17.1684 7.89596 17.1718 7.80482 17.1599 7.71676C17.1506 7.64508 17.1084 7.57749 17.1067 7.50786C17.105 7.42799 17.1143 7.30614 17.154 7.27849C17.209 7.24162 17.3071 7.25084 17.3679 7.28668C17.4381 7.32764 17.4922 7.4157 17.5438 7.49148C17.619 7.60207 17.6951 7.62665 17.794 7.53039C17.7847 7.49865 17.7805 7.47202 17.7704 7.44949C17.5193 6.9078 17.2715 6.36303 17.012 5.82748C16.9477 5.69436 16.8488 5.5807 16.7541 5.4742C16.6966 5.40969 16.6146 5.39535 16.5893 5.52642C16.4709 6.13775 16.4692 6.7327 16.7634 7.28463C16.8218 7.3942 16.8691 7.51298 16.9393 7.66556C17.0331 7.86319 17.1008 7.94409 17.1709 7.98505Z" fill="#373737"/>
	<path d="M15.6623 6.43794C15.6767 6.98812 16.088 7.51051 16.5145 7.55858C16.0687 6.90158 16.0947 6.17194 16.2196 5.42627C15.7997 5.51494 15.6498 5.97537 15.6623 6.43794Z" fill="#373737"/>
	<path d="M18.5156 5.85293C18.7206 5.53412 18.6803 5.21846 18.4271 5C18.0674 5.023 17.7145 5.05226 17.3672 5.08885C17.7941 5.26759 18.1739 5.52785 18.5156 5.85293Z" fill="#373737"/>
	<path d="M10.0755 21.6318C10.0573 21.6457 10.0381 21.656 10.0188 21.6612C9.67124 21.7451 9.31657 21.8264 8.95786 21.861C8.53329 21.9016 8.10163 21.9051 7.673 21.9042C7.34773 21.9034 7.12783 21.9942 7.1329 22.1896C7.14607 22.7223 7.40447 23.4184 8.28098 23.581C9.16255 23.7444 10.0502 23.8283 10.95 23.7055C11.5114 23.6294 12.0738 23.5603 12.6351 23.4807C12.7912 23.4582 12.9472 23.434 13.1033 23.4089C13.0617 23.1849 13.0243 22.9575 12.9928 22.7258C12.9645 22.7232 12.9351 22.7206 12.9057 22.7197C12.0373 22.6894 11.1669 22.6799 10.2985 22.6592C10.0989 22.6548 9.89923 22.6471 9.70164 22.6306C9.41994 22.6073 9.30442 22.4672 9.42298 22.2666C9.56281 22.0314 9.76344 21.8385 10.0857 21.7702C10.1252 21.7615 10.1657 21.7555 10.2052 21.7503C10.0988 21.7546 10.0725 21.6958 10.0755 21.6318Z" fill="#373737"/>
	<path d="M14.0397 12.5919C14.2586 12.8905 14.4895 13.1862 14.6539 13.5153C14.8333 13.2754 15.0265 13.054 15.2355 12.8504C15.1939 12.8092 15.1513 12.7691 15.1117 12.726C14.858 12.4538 14.6143 12.1522 14.5965 11.7566C14.5667 11.0986 14.2616 10.5913 13.7712 10.1703C13.683 10.0949 13.6364 10.1027 13.5463 10.1752C13.4402 10.2604 13.3045 10.3544 13.1777 10.3612C12.7447 10.3847 12.3088 10.3955 11.8778 10.3661C11.0059 10.3074 10.0389 10.8489 9.70208 11.6577C9.58418 11.9407 9.51681 12.2452 9.44349 12.5449C9.27704 13.2215 8.93721 13.8217 8.61521 14.4308C8.53793 14.5767 8.47948 14.7314 8.41211 14.8822C8.42994 14.892 8.44876 14.9028 8.46659 14.9126C8.72618 14.5131 9.00161 14.1214 9.24138 13.7101C9.43458 13.3772 9.60103 13.0276 9.74766 12.6712C9.91312 12.2677 10.032 11.8447 10.1945 11.4393C10.2549 11.2876 10.3292 11.1133 10.5611 11.0349C10.5482 11.1397 10.5393 11.2053 10.5313 11.2719C10.5195 11.3669 10.4828 11.4668 10.4996 11.5559C10.6076 12.116 10.9831 12.4499 11.4864 12.6741C11.5915 12.7211 11.6836 12.7965 11.7827 12.8592C11.6836 12.916 11.5905 12.9914 11.4845 13.0247C10.7285 13.2646 10.1063 13.6974 9.61193 14.3055C9.51087 14.4298 9.39395 14.5787 9.44845 14.7853C9.48213 14.7686 9.50888 14.7628 9.52375 14.7461C9.61688 14.6404 9.70407 14.5307 9.79819 14.4259C10.0479 14.1478 10.3431 14.1429 10.571 14.4377C10.7652 14.6893 10.9277 14.9664 11.105 15.2347C11.1427 15.1662 11.1942 15.0653 11.2516 14.9684C11.639 14.3153 12.173 13.7904 12.7497 13.3028C12.8052 13.2558 12.8884 13.2411 12.9577 13.2117C12.9617 13.2186 12.9647 13.2254 12.9686 13.2313C13.1856 13.0413 13.4155 12.9512 13.5274 12.915C13.5175 12.9013 13.5066 12.8886 13.4967 12.8749C13.465 12.8327 13.4838 12.7525 13.4799 12.6898C13.4967 12.6849 13.5126 12.681 13.5294 12.6761C13.5671 12.7309 13.6027 12.7877 13.6424 12.8416C13.89 13.1784 14.1397 13.5143 14.3884 13.8511C14.3835 13.7875 14.3973 13.714 14.3696 13.6631C14.1625 13.2744 13.9436 12.8915 13.7355 12.5028C13.7028 12.442 13.7068 12.3627 13.6929 12.2922C13.7167 12.2815 13.7404 12.2717 13.7652 12.2609C13.8544 12.3725 13.9544 12.4773 14.0397 12.5919Z" fill="#373737"/>
	<path d="M33.8792 15.3986C33.7606 14.8014 33.6185 14.2276 33.4509 13.6784C32.8775 11.7976 32.0032 10.2135 30.8261 8.92504C29.649 7.63758 28.1602 6.66146 26.3597 5.99668C24.5582 5.33288 22.4304 5 19.9752 5C19.5008 5 19.0382 5.01371 18.5864 5.04014C18.7207 5.18994 18.7667 5.38771 18.7305 5.60604C18.7079 5.73723 18.6305 5.85961 18.5786 5.98591C18.4659 5.91934 18.3531 5.85374 18.2404 5.78716C18.2355 5.78423 18.2326 5.77737 18.2277 5.77248C17.9317 5.49149 17.5945 5.29078 17.2162 5.16742C17.026 5.1919 16.8398 5.21931 16.6546 5.24868C16.6546 5.2526 16.6536 5.25553 16.6536 5.26043C16.9163 5.35148 17.0721 5.54632 17.2015 5.77444C17.4955 6.29236 17.7984 6.80539 18.1003 7.32429C18.4962 7.22932 18.6227 6.86315 18.5776 6.56943C18.5609 6.46271 18.5501 6.35306 18.5482 6.24536C18.5452 6.10438 18.5648 5.97319 18.7579 6.0192C18.7579 5.93696 18.7432 5.86353 18.7618 5.79989C18.7805 5.73919 18.8334 5.68828 18.8706 5.63345C18.9177 5.67555 18.9863 5.70884 19.0079 5.76073C19.0647 5.90172 19.1 6.05053 19.1451 6.19543C19.2098 6.40691 19.2098 6.60566 19.0784 6.80245C18.852 7.14316 18.6295 7.48681 18.4257 7.84123C18.1591 8.30237 17.7416 8.55007 17.2584 8.71259C16.8085 8.86435 16.386 9.06114 16.0048 9.34898C15.8548 9.46255 15.6813 9.56339 15.5029 9.6192C15.1383 9.73473 14.8032 9.89333 14.5091 10.1371C14.4836 10.1577 14.4346 10.1489 14.3572 10.1587C14.4141 10.0451 14.4464 9.96187 14.4934 9.88844C14.6326 9.67011 14.6434 9.45961 14.4787 9.24911C14.4356 9.19429 14.3886 9.1375 14.366 9.07386C14.3474 9.021 14.3454 8.94854 14.369 8.90155C14.3797 8.88001 14.4699 8.89274 14.5238 8.89861C14.6601 8.91232 14.7992 8.95931 14.9296 8.93875C15.0766 8.91526 15.2178 8.84183 15.355 8.77525C15.8499 8.53832 16.3419 8.29551 16.8359 8.05466C16.8937 8.02627 16.9516 7.99592 17.0094 7.96655C16.9486 7.93228 16.8996 7.93424 16.8526 7.94305C16.6075 7.98711 16.3606 8.02235 16.1185 8.07914C15.45 8.23481 14.7924 8.42866 14.2131 8.80952C14.024 8.93386 13.7936 9.05036 13.7662 9.32646C13.7378 9.6192 13.7466 9.85515 14.0308 10.0823C14.4748 10.4367 14.7032 10.9507 14.7718 11.5264C14.7934 11.7066 14.8149 11.9082 14.909 12.0531C15.0433 12.2607 15.2001 12.4555 15.3638 12.6435C15.7558 12.2754 16.1978 11.9709 16.6908 11.731C17.5504 11.312 18.5531 11.1025 19.6988 11.1025C20.9877 11.1025 22.057 11.3374 22.9068 11.8074C23.7556 12.2783 24.4367 12.9323 24.9484 13.7694C25.3012 14.3471 25.5815 14.9972 25.7932 15.7158C25.9353 15.6022 26.0843 15.4965 26.247 15.4035C26.2999 15.3731 26.346 15.3154 26.4195 15.3506C26.4734 15.3349 26.4989 15.2576 26.5704 15.284C26.7459 15.2037 26.9213 15.2175 27.0958 15.284C27.5574 15.3516 27.9955 15.4896 28.4297 15.6619C29.1599 15.9527 29.7088 16.4834 30.2763 16.9935C30.3508 17.06 30.4105 17.1462 30.4096 17.2568C30.4948 17.4722 30.4801 17.6886 30.4086 17.904C30.3263 18.1811 30.2371 18.4542 30.0175 18.6598C30.0019 18.7548 29.9274 18.794 29.8529 18.8341C29.3501 19.2894 28.7698 19.3765 28.1377 19.1826C27.9034 19.1112 27.6731 19.0221 27.4712 18.8762C27.2977 18.885 27.184 18.9898 27.0978 19.1249C26.7694 19.635 26.4911 20.1695 26.3578 20.7658C26.3538 21.0203 26.348 21.271 26.3362 21.5157C26.4607 22.2167 27.6251 23.1204 27.6251 23.1204C27.6251 23.1204 28.0887 23.2154 28.319 23.0313C28.0661 22.8149 27.8701 22.5682 27.8936 22.2158C27.9279 21.6871 28.1886 21.2612 28.5131 20.8647C28.5924 20.7129 28.7002 20.5847 28.8306 20.474C28.9129 20.3663 29.0011 20.2645 29.1276 20.2058C29.3452 19.9737 29.6176 19.819 29.9067 19.7055C30.1234 19.6203 30.2988 19.5312 30.336 19.2766C30.3468 19.2071 30.3919 19.1415 30.4605 19.1024C30.4694 18.9721 30.6046 18.9085 30.6703 18.9007C30.9183 18.8684 30.9085 18.7127 30.9124 18.5316C30.9173 18.276 30.8673 18.0283 30.8428 17.7767C30.7291 17.2872 30.4605 16.8916 30.1018 16.549C30.0538 16.503 29.9607 16.4638 29.9989 16.3747C30.0273 16.3081 30.1106 16.3248 30.1724 16.316C30.4546 16.2748 30.736 16.2357 31.0104 16.1573C31.1868 16.1074 31.3289 16.0203 31.4005 15.8431C31.8268 15.0588 32.7227 14.9081 33.4303 15.6071C33.5607 15.7354 33.6842 15.8783 33.6704 16.0839C33.6655 16.1622 33.7146 16.172 33.7753 16.1701C33.7861 16.1104 33.7959 16.0506 33.8067 15.9909C33.8096 15.9488 33.8155 15.9077 33.8282 15.8666C33.8165 15.7021 33.8233 15.5425 33.8792 15.3986Z" fill="#F95437"/>
	</svg>
	