<svg width="116" height="37" viewBox="0 0 116 37" fill="none" xmlns="http://www.w3.org/2000/svg">
	<path d="M112.954 25.0054C112.925 25.0939 112.882 25.174 112.747 25.1927H112.747C112.57 25.3107 112.456 25.318 112.224 25.2252C112.22 25.2276 112.216 25.2294 112.211 25.2312C112.16 25.2499 112.101 25.2168 112.041 25.2559C112.062 25.3547 112.162 25.4077 112.248 25.4685C112.296 25.5023 112.374 25.5143 112.375 25.58C112.377 25.5794 112.379 25.5794 112.38 25.5788C112.46 25.6516 112.567 25.5842 112.654 25.6137C112.655 25.6137 112.656 25.6137 112.657 25.6143C112.656 25.6131 112.654 25.6119 112.654 25.6107C112.888 25.48 112.912 25.2794 112.924 25.0752C112.945 25.0554 112.951 25.0307 112.954 25.0054Z" fill="#373737"/>
	<path d="M112.804 20.6772C112.556 20.6216 112.314 20.5494 112.085 20.4266C112.032 20.3977 111.989 20.3652 111.923 20.4179C111.702 20.5941 111.479 20.5357 111.264 20.3977C110.927 20.1811 110.694 19.8778 110.577 19.5254C110.563 19.7521 110.543 19.9724 110.52 20.1869C110.713 20.2981 110.877 20.4663 111.027 20.6584C111.213 20.8989 111.363 21.1704 111.489 21.4542C111.548 21.5871 111.615 21.6304 111.733 21.6145C111.754 21.6131 111.775 21.6109 111.795 21.6095C112.005 21.5625 112.215 21.5553 112.425 21.6109C112.667 21.699 112.709 21.6752 112.796 21.4022C112.826 21.3098 112.858 21.2181 112.889 21.1256C112.911 21.0115 112.933 20.8974 112.955 20.7833C112.942 20.6815 112.865 20.6916 112.804 20.6772Z" fill="#373737"/>
	<path d="M113.058 22.489C113.115 22.5234 113.177 22.5181 113.238 22.5204C113.276 22.5219 113.314 22.5278 113.35 22.539C113.373 22.5487 113.397 22.5577 113.419 22.5696C113.438 22.5674 113.457 22.5614 113.473 22.5398C113.669 22.2592 113.909 22.254 114.173 22.3943C114.009 22.0928 113.734 21.9667 113.455 21.8436C113.312 21.7809 113.151 21.7659 113.025 21.6562C112.961 21.9115 112.814 22.1137 112.65 22.3085C112.778 22.4137 112.93 22.4181 113.058 22.489Z" fill="#373737"/>
	<path d="M113.567 23.1643C113.803 23.0384 114.029 22.8993 114.144 22.6553C114.159 22.6267 114.168 22.598 114.172 22.5693C114.166 22.5805 114.159 22.5917 114.148 22.6036C114.022 22.6749 113.886 22.698 113.741 22.6861C113.623 22.7315 113.499 22.7092 113.376 22.7119C113.369 22.7133 113.363 22.714 113.356 22.7154C113.322 22.807 113.296 22.9021 113.199 22.958C113.21 22.9748 113.22 22.9937 113.214 23.0119C112.999 23.6333 112.794 24.259 112.331 24.7757C112.317 24.791 112.3 24.8029 112.283 24.8141C112.275 24.8169 112.268 24.819 112.261 24.8204C112.276 24.919 112.186 24.963 112.126 25.0168C112.034 25.1014 111.984 25.1685 112.151 25.2224C112.176 25.2308 112.189 25.2559 112.192 25.2818C112.341 25.3077 112.489 25.3405 112.625 25.2496C112.624 25.2468 112.623 25.2447 112.622 25.2426C112.774 24.8644 112.814 24.4646 112.884 24.0703C112.954 23.6683 113.185 23.3698 113.567 23.1643Z" fill="#373737"/>
	<path d="M113.098 18.2761C113.142 18.2369 113.197 18.2091 113.232 18.1599C113.262 18.1192 113.272 18.0743 113.239 18.03C113.209 17.9908 113.168 18.0008 113.131 18.0151C113.007 18.0621 112.896 18.1342 112.787 18.2084C112.723 18.2519 112.659 18.2975 112.579 18.309C112.538 18.4281 112.44 18.4823 112.326 18.5194C112.302 18.6542 112.237 18.7562 112.104 18.8026C112.114 18.8761 112.064 18.9267 112.031 18.9852C111.917 19.1878 111.801 19.3897 111.752 19.6229C111.72 19.7742 111.739 19.9154 111.83 20.0424C111.924 20.1722 111.976 20.1658 112.044 20.0089C112.123 19.8248 112.158 19.6251 112.221 19.436C112.246 19.3604 112.248 19.2606 112.341 19.2285C112.324 18.9774 112.544 18.6635 112.782 18.5964C112.781 18.5936 112.779 18.5914 112.778 18.5886C112.839 18.4366 112.986 18.3753 113.098 18.2761Z" fill="#373737"/>
	<path d="M110.86 21.9254C111.056 21.9043 111.245 21.9538 111.433 22.0027C111.644 22.0575 111.854 22.1149 112.042 22.1565C111.867 22.0436 111.7 21.899 111.605 21.6937C111.606 21.6851 111.607 21.6771 111.611 21.6692C111.451 21.6329 111.292 21.6844 111.133 21.6838C111.096 21.6811 111.058 21.6798 111.024 21.6679C110.665 21.7491 110.317 21.8541 109.976 21.9802C109.805 22.4087 109.592 22.7923 109.339 23.1304C109.327 23.1469 109.314 23.1627 109.302 23.1786C109.325 23.1634 109.351 23.1535 109.383 23.1561C109.384 23.1568 109.385 23.1574 109.386 23.1581C109.385 23.1568 109.384 23.1555 109.383 23.1541C109.594 22.8082 109.814 22.4701 110.195 22.2542C110.197 22.2549 110.198 22.2555 110.199 22.2562C110.205 22.2153 110.218 22.1829 110.263 22.1895C110.399 21.9828 110.63 21.9498 110.86 21.9254Z" fill="#373737"/>
	<path d="M110.215 15.3054C110.263 15.4766 110.305 15.6538 110.341 15.8368C110.355 15.9041 110.366 15.9734 110.379 16.042C110.52 15.9669 110.668 15.9028 110.827 15.8564C110.895 15.8368 110.964 15.825 111.035 15.8329C111.209 15.8512 111.286 15.9244 111.302 16.091C111.308 16.1525 111.307 16.2139 111.306 16.2754C111.306 16.3845 111.334 16.4355 111.473 16.4309C111.747 16.4218 112.042 16.6963 112.074 16.9617C112.092 17.1179 112.003 17.1943 111.84 17.1505C111.69 17.11 111.567 17.0244 111.451 16.9231C111.319 16.8081 111.292 16.8113 111.209 16.9577C111.14 17.0786 111.056 17.1898 110.98 17.3055C111.022 17.2505 111.07 17.2028 111.14 17.1773C111.21 17.1525 111.279 17.1551 111.333 17.2159C111.338 17.2238 111.34 17.2316 111.341 17.2388C111.399 17.1721 111.471 17.2054 111.538 17.227C111.646 17.261 111.748 17.3113 111.857 17.3427C112.149 17.4264 112.43 17.412 112.699 17.263C112.772 17.2231 112.839 17.1662 112.931 17.1741C112.943 17.1172 112.979 17.0839 113.041 17.0767C113.093 16.8911 113.211 16.7309 113.246 16.5368C113.285 16.3165 113.245 16.1374 113.047 16.0035C112.933 15.9257 112.842 15.8211 112.736 15.7322C112.292 15.3597 111.771 15.1472 111.203 15.0276C111.153 15.0172 111.104 15.0028 111.057 14.9851C110.95 14.9459 110.842 14.9551 110.733 14.976C110.705 14.9819 110.677 14.9825 110.648 14.976C110.648 14.976 110.647 14.9753 110.646 14.9747C110.634 15.0328 110.578 15.057 110.532 15.0832C110.418 15.1498 110.313 15.225 110.215 15.3054Z" fill="#373737"/>
	<path d="M113.494 18.1478C113.665 18.2896 113.842 18.4258 114.016 18.564C114.135 18.597 114.21 18.6915 114.299 18.7668C114.545 18.9745 114.635 18.9695 114.858 18.7281C114.884 18.6994 114.91 18.6686 114.935 18.6392C115.214 18.1105 115.378 17.5367 115.568 16.9729C115.669 16.6755 115.774 16.3789 115.923 16.1017C115.946 16.058 115.966 16.0057 116 15.9692C115.96 15.6109 115.91 15.2635 115.85 14.9253C115.849 14.9368 115.848 14.949 115.846 14.9604C115.848 15.0887 115.853 15.2169 115.813 15.3416C115.811 15.3767 115.808 15.4111 115.806 15.4462C115.811 15.5207 115.814 15.5945 115.774 15.6611C115.718 15.8044 115.661 15.9484 115.606 16.0917C115.614 16.1869 115.535 16.2349 115.494 16.303C115.422 16.3976 115.344 16.4857 115.236 16.5416C115.116 16.6032 115.106 16.7393 115.061 16.8475C115.004 16.9858 114.95 17.0868 114.794 16.9506C114.723 16.889 114.649 16.9105 114.574 16.9557C114.484 17.0108 114.389 17.0588 114.296 17.1104C114.213 17.1183 114.128 17.1534 114.051 17.0896C114.05 17.0803 114.05 17.071 114.051 17.0631C114.047 17.066 114.044 17.0689 114.04 17.071C113.859 16.9435 113.82 16.7529 113.815 16.5466C113.807 16.5394 113.798 16.5351 113.789 16.533C113.799 16.4477 113.768 16.3582 113.813 16.2758C113.814 16.2557 113.81 16.2335 113.817 16.2163C113.929 15.9269 114.132 15.6804 114.197 15.3674C114.212 15.2929 114.298 15.2463 114.374 15.2176C114.447 15.1904 114.517 15.1961 114.578 15.2506C114.643 15.3086 114.631 15.3831 114.609 15.4548C114.587 15.5271 114.521 15.5852 114.532 15.6919C114.632 15.616 114.662 15.4884 114.775 15.4612C114.879 15.4361 114.992 15.3924 115.067 15.5221C115.202 15.5895 115.107 15.7428 115.181 15.8359C115.214 15.8775 115.207 15.9512 115.267 15.9706C115.279 15.9598 115.291 15.9498 115.306 15.9419C115.368 15.9233 115.428 15.9169 115.478 15.9634C115.509 15.8753 115.553 15.7915 115.579 15.7012C115.608 15.568 115.609 15.4354 115.575 15.3029C115.5 15.0808 115.377 14.9024 115.173 14.7756C114.849 14.5743 114.513 14.6201 114.233 14.9311C114.188 14.9805 114.155 15.0407 114.083 15.055C114.075 15.055 114.068 15.0529 114.062 15.0507C114.062 15.0514 114.062 15.0521 114.063 15.0529C114.125 15.1668 114.049 15.2384 113.973 15.2835C113.748 15.4154 113.5 15.4634 113.26 15.4734C113.461 15.7005 113.681 15.9491 113.708 16.3066C113.708 16.3073 113.707 16.3087 113.707 16.3095C113.775 16.3646 113.764 16.4599 113.79 16.5366C113.789 16.677 113.839 16.8124 113.837 16.9535C113.837 17.0309 113.875 17.0782 113.95 17.0946C114.009 17.1075 114.062 17.1333 114.097 17.1878C114.176 17.2594 114.296 17.2766 114.352 17.3812C114.398 17.4041 114.42 17.4636 114.481 17.4615C114.57 17.3368 114.69 17.2494 114.812 17.1627C114.858 17.1305 114.903 17.0681 114.966 17.124C115.025 17.1763 114.985 17.2351 114.958 17.2874C114.944 17.316 114.92 17.3404 114.901 17.3669C114.795 17.4693 114.703 17.5897 114.556 17.6413C114.501 17.6606 114.495 17.7 114.511 17.7688C114.551 17.9486 114.535 18.1284 114.417 18.2818C114.37 18.3427 114.303 18.3813 114.227 18.3584C114.157 18.3369 114.169 18.2588 114.164 18.203C114.151 18.0632 114.166 17.9257 114.222 17.7953C114.195 17.7351 114.133 17.7709 114.094 17.7466C113.963 17.7473 113.832 17.7473 113.7 17.748C113.687 17.748 113.674 17.7487 113.66 17.7487C113.55 17.7996 113.528 17.9271 113.448 18.0066C113.376 18.074 113.454 18.1148 113.494 18.1478Z" fill="#373737"/>
	<path d="M113.985 17.6761C114.105 17.6719 114.224 17.6855 114.342 17.6631C114.491 17.6696 114.477 17.5834 114.478 17.506C114.38 17.4978 114.301 17.4423 114.21 17.418C114.138 17.4003 114.063 17.3673 113.999 17.434C113.956 17.5226 113.952 17.6265 113.869 17.6985C113.906 17.6843 113.944 17.6761 113.985 17.6761Z" fill="#373737"/>
	<path d="M114.744 16.8902C114.83 16.9151 114.883 16.8908 114.907 16.814C114.98 16.5823 115.198 16.4895 115.391 16.3737C115.348 16.2988 115.217 16.3283 115.183 16.2412C115.024 16.208 115.044 16.0665 115.011 15.9667C114.989 15.902 114.973 15.8336 114.947 15.7689C114.783 15.7395 114.678 15.8112 114.619 15.9449C114.589 16.0115 114.561 16.0576 114.483 16C114.423 15.9564 114.312 15.9334 114.39 15.8252C114.411 15.7952 114.436 15.7651 114.446 15.7312C114.461 15.6845 114.527 15.6326 114.462 15.5872C114.399 15.543 114.339 15.5782 114.291 15.6237C114.264 15.6493 114.221 15.6806 114.222 15.7075C114.236 16.0102 113.937 16.1817 113.869 16.4486C113.869 16.5203 113.87 16.5926 113.87 16.6643C113.893 16.8204 113.91 16.9798 114.052 17.0892C114.054 17.0879 114.056 17.086 114.057 17.0847C114.197 17.0418 114.339 17.0034 114.463 16.9247C114.548 16.8729 114.646 16.8626 114.744 16.8902Z" fill="#373737"/>
	<path d="M113.694 24.1442C113.731 24.1031 113.776 24.0489 113.847 24.0753C113.846 24.0711 113.846 24.0669 113.845 24.0628C113.841 23.9897 113.889 23.9382 113.934 23.8951C114.129 23.7113 114.331 23.5325 114.511 23.3335C114.526 23.3168 114.548 23.3126 114.571 23.3126C114.577 23.2242 114.632 23.1797 114.717 23.1609C114.735 23.0127 114.822 22.9097 114.943 22.8296C114.942 22.8269 114.942 22.8241 114.941 22.8213C114.942 22.7065 115.007 22.6111 115.042 22.506C115.148 22.1741 115.066 21.8964 114.783 21.6918C114.403 21.417 113.964 21.2513 113.532 21.0781C113.489 21.0607 113.442 21.053 113.394 21.0488C113.324 21.0426 113.257 21.0544 113.226 21.1254C113.197 21.1929 113.246 21.2367 113.291 21.2757C113.429 21.3947 113.606 21.4455 113.769 21.5199C113.849 21.5568 113.952 21.5687 113.982 21.6689C114.306 21.6821 114.657 22.0106 114.702 22.3446C114.763 22.7893 114.419 23.4594 114.011 23.6926C114.022 23.7441 113.996 23.7649 113.951 23.7691C113.952 23.7837 113.952 23.7976 113.943 23.8067C113.693 24.069 113.472 24.3592 113.178 24.5798C113.181 24.5847 113.184 24.5889 113.186 24.5944C113.197 24.6348 113.189 24.6745 113.167 24.7072C113.042 24.8916 112.987 25.0969 112.955 25.3098C113.094 24.8603 113.378 24.4928 113.694 24.1442Z" fill="#373737"/>
	<path d="M112.477 22.1635C112.503 22.1257 112.526 22.0857 112.549 22.045C112.702 21.7634 112.697 21.7476 112.433 21.6796C112.268 21.6479 112.102 21.6615 111.936 21.6721C111.918 21.6759 111.9 21.6744 111.883 21.6691C111.876 21.6653 111.87 21.6608 111.865 21.6562C111.832 21.703 111.78 21.6978 111.739 21.7219C111.738 21.7227 111.738 21.7234 111.737 21.7234C111.815 21.7174 111.848 21.7959 111.887 21.857C111.976 21.9974 112.088 22.1076 112.205 22.2095C112.308 22.2986 112.397 22.279 112.477 22.1635Z" fill="#373737"/>
	<path d="M110.72 17.9418C110.739 17.8554 110.778 17.7756 110.824 17.6982C110.779 17.7509 110.727 17.8011 110.657 17.8431C110.607 17.9023 110.563 17.9632 110.52 18.0249C110.522 18.1179 110.523 18.2125 110.524 18.3072C110.528 18.2989 110.532 18.2907 110.536 18.2833C110.598 18.1689 110.66 18.0554 110.72 17.9418Z" fill="#373737"/>
	<path d="M111.385 21.4289C111.113 21.0708 110.852 20.7081 110.404 20.4709C110.382 20.4596 110.36 20.449 110.338 20.4385C110.288 20.7318 110.226 21.0133 110.15 21.2809C110.082 21.5188 110.001 21.7447 109.911 21.9608C110.255 21.8498 110.61 21.7632 110.978 21.7038C111.03 21.5868 111.177 21.6199 111.283 21.604C111.438 21.5809 111.475 21.5472 111.385 21.4289Z" fill="#373737"/>
	<path d="M113.251 26.4166C113.129 26.2288 113.043 26.0222 113.027 25.7803C113.027 25.7783 113.027 25.7764 113.027 25.7744C113.027 25.7712 113.027 25.7672 113.027 25.764C113.028 25.7157 112.972 25.689 112.93 25.7151C112.899 25.7346 112.861 25.7451 112.815 25.7451C112.801 25.7425 112.787 25.7392 112.774 25.7353C112.636 25.7842 112.503 25.7575 112.373 25.6988C112.364 25.702 112.355 25.7047 112.346 25.7066C112.132 25.6518 112.021 25.5084 111.973 25.3096L111.693 25.4302C111.695 25.4321 111.696 25.4334 111.698 25.4354C111.631 25.4934 111.555 25.5417 111.476 25.586C111.455 25.5977 111.443 25.6199 111.446 25.6434C111.448 25.6708 111.446 25.6981 111.442 25.7262C111.41 25.983 111.461 26.0756 111.696 26.1962C111.837 26.2686 111.988 26.3155 112.14 26.3547C112.42 26.4264 112.635 26.5828 112.828 26.7862C112.842 26.8012 112.857 26.8169 112.871 26.8319C112.999 26.7217 113.122 26.6083 113.242 26.4903C113.263 26.4707 113.266 26.4401 113.251 26.4166Z" fill="#373737"/>
	<path d="M113.194 20.904C113.2 20.9154 113.199 20.9246 113.189 20.9325C113.188 21.0363 113.158 21.1331 113.115 21.2263C113.061 21.3644 113.008 21.5024 112.955 21.6412C113.353 21.7067 113.727 21.8397 114.051 22.0838C114.448 22.3827 114.459 22.7413 114.083 23.0658C113.947 23.1825 113.793 23.2772 113.644 23.3761C113.374 23.5554 113.21 23.8016 113.163 24.124C113.129 24.368 113.098 24.6121 113.064 24.8562C113.049 24.9046 113.047 24.9551 113.044 25.0056C113.054 24.9821 113.071 24.9608 113.099 24.9437C113.163 24.7964 113.229 24.6498 113.343 24.5317C113.554 24.2158 113.825 23.9546 114.1 23.6984C114.128 23.6685 114.156 23.6379 114.184 23.6081C114.178 23.539 114.258 23.5198 114.27 23.4622C114.285 23.4273 114.304 23.396 114.341 23.3811C114.505 23.1896 114.64 22.9804 114.723 22.7413C114.864 22.3357 114.753 22.0276 114.387 21.8063C114.306 21.7572 114.22 21.7145 114.136 21.6697C114.127 21.6668 114.119 21.6625 114.11 21.6554C113.843 21.57 113.589 21.4583 113.369 21.2804C113.282 21.21 113.243 21.1281 113.278 21.0186C113.307 20.9296 113.356 20.8634 113.433 20.8307L113.23 20.7432C113.231 20.7987 113.223 20.8528 113.194 20.904Z" fill="#373737"/>
	<path d="M36.8396 10.3632C36.8396 10.8807 36.8252 11.3042 36.7971 11.6346C36.7683 11.965 36.7257 12.2237 36.6695 12.4101C36.6125 12.5972 36.5385 12.7266 36.4465 12.7982C36.3539 12.8706 36.2373 12.906 36.096 12.906C35.9821 12.906 35.8552 12.881 35.7132 12.8309C35.5712 12.7808 35.4121 12.7266 35.2351 12.6695C35.0574 12.6125 34.8633 12.5583 34.6506 12.5082C34.4379 12.4581 34.204 12.4331 33.9495 12.4331C33.6518 12.4331 33.3541 12.4943 33.057 12.616C32.7593 12.7384 32.4513 12.9283 32.1323 13.187C31.8133 13.4458 31.4806 13.7907 31.1335 14.2213C30.7864 14.6525 30.4139 15.1839 30.0174 15.8161V27.7973C30.0174 27.9412 29.9748 28.0664 29.8898 28.1742C29.8047 28.282 29.6593 28.3718 29.4542 28.4434C29.2484 28.5157 28.976 28.5693 28.6358 28.6048C28.2955 28.6402 27.8634 28.659 27.3393 28.659C26.8152 28.659 26.383 28.6409 26.0427 28.6048C25.7025 28.5686 25.4294 28.515 25.2243 28.4434C25.0185 28.3718 24.8738 28.282 24.7887 28.1742C24.7037 28.0664 24.6611 27.9412 24.6611 27.7973V8.57498C24.6611 8.4317 24.6961 8.30581 24.7675 8.19801C24.8381 8.0902 24.9657 8.00048 25.1502 7.92884C25.3341 7.8572 25.5714 7.80295 25.8623 7.76747C26.1525 7.732 26.5174 7.71392 26.9572 7.71392C27.4106 7.71392 27.7858 7.732 28.0836 7.76747C28.3813 7.80364 28.6111 7.8572 28.7744 7.92884C28.9369 8.00117 29.0542 8.0902 29.1249 8.19801C29.1956 8.30581 29.2312 8.4317 29.2312 8.57498V10.9669C29.7272 10.2484 30.1944 9.65583 30.6341 9.18913C31.0731 8.72243 31.4909 8.35241 31.8881 8.07907C32.2846 7.80642 32.6818 7.61585 33.0783 7.50804C33.4748 7.40024 33.872 7.34668 34.2685 7.34668C34.4523 7.34668 34.6513 7.35781 34.8639 7.37937C35.0766 7.40093 35.2961 7.4371 35.5225 7.48718C35.7489 7.53795 35.9478 7.59498 36.1179 7.65967C36.2881 7.72435 36.4115 7.79251 36.4897 7.86415C36.5673 7.93649 36.6242 8.01508 36.6599 8.10133C36.6949 8.18757 36.7271 8.30581 36.7552 8.45674C36.7834 8.60767 36.8046 8.83372 36.819 9.13557C36.8321 9.43674 36.8396 9.8464 36.8396 10.3632Z" fill="#373737"/>
	<path d="M69.7202 27.7966C69.7202 27.9405 69.6766 28.0657 69.5893 28.1735C69.5021 28.2813 69.3565 28.3711 69.1531 28.4427C68.9491 28.515 68.6698 28.5686 68.3138 28.6041C67.9579 28.6395 67.5182 28.6583 66.9955 28.6583C66.458 28.6583 66.0105 28.6402 65.6552 28.6041C65.2993 28.5679 65.0193 28.5143 64.816 28.4427C64.6119 28.3711 64.467 28.2813 64.3798 28.1735C64.2925 28.0657 64.2489 27.9405 64.2489 27.7966V16.8281C64.2489 15.8947 64.18 15.1616 64.0421 14.6302C63.9035 14.0989 63.7044 13.6426 63.4427 13.2621C63.181 12.8817 62.8433 12.5868 62.4289 12.3788C62.0145 12.1709 61.5312 12.0665 60.9797 12.0665C60.2825 12.0665 59.5776 12.3183 58.8656 12.8205C58.1536 13.3233 57.4121 14.0564 56.6425 15.0183V27.7973C56.6425 27.9412 56.5989 28.0664 56.5116 28.1742C56.4244 28.282 56.2752 28.3718 56.0649 28.4434C55.8538 28.5157 55.5745 28.5693 55.2256 28.6048C54.8767 28.6402 54.4334 28.659 53.8959 28.659C53.3585 28.659 52.9152 28.6409 52.5663 28.6048C52.2174 28.5686 51.9374 28.515 51.727 28.4434C51.5159 28.3718 51.3675 28.282 51.2803 28.1742C51.193 28.0664 51.1494 27.9412 51.1494 27.7973V8.57498C51.1494 8.4317 51.1853 8.30581 51.2585 8.19801C51.3309 8.0902 51.4618 8.00048 51.651 7.92884C51.8396 7.8572 52.083 7.80295 52.3813 7.76747C52.6789 7.732 53.0531 7.71392 53.5041 7.71392C53.9691 7.71392 54.3539 7.732 54.6593 7.76747C54.9646 7.80364 55.2003 7.8572 55.3677 7.92884C55.5344 8.00117 55.6547 8.0902 55.7272 8.19801C55.7997 8.30581 55.8363 8.4317 55.8363 8.57498V10.7944C56.9112 9.6454 58.0052 8.78294 59.1168 8.20844C60.2283 7.63393 61.387 7.34668 62.5935 7.34668C63.9154 7.34668 65.0312 7.56229 65.9395 7.99282C66.8477 8.42405 67.5815 9.00968 68.1408 9.74903C68.7001 10.4891 69.1032 11.3543 69.3508 12.3454C69.5978 13.3366 69.7216 14.5294 69.7216 15.9225V27.7966H69.7202Z" fill="#373737"/>
	<path d="M106.973 25.1289C107.05 25.0812 107.13 25.0418 107.211 25.0018C107.25 24.9822 107.283 24.9555 107.315 24.926C107.371 24.8698 107.441 24.8319 107.51 24.794C107.588 24.749 107.661 24.6977 107.733 24.6451C107.851 24.5636 107.969 24.4815 108.084 24.3965C108.026 24.4281 107.967 24.4583 107.906 24.4871C107.859 24.5095 107.812 24.5306 107.764 24.551C107.741 24.572 107.718 24.5924 107.695 24.6121C107.602 24.6072 107.593 24.7427 107.494 24.7265C107.492 24.7364 107.491 24.7469 107.491 24.7567C107.437 24.7961 107.382 24.8347 107.328 24.874C107.288 24.9007 107.247 24.9281 107.207 24.9548C107.088 24.9871 106.981 25.0397 106.885 25.1149C106.346 25.301 105.808 25.4808 105.305 25.7673C104.957 25.966 104.753 26.2743 104.492 26.5404C104.383 26.7104 104.273 26.881 104.164 27.051C104.153 27.0805 104.14 27.1093 104.126 27.1366C104.148 27.1114 104.169 27.0854 104.191 27.0601C104.47 26.6809 104.863 26.4316 105.247 26.1718C105.273 26.1542 105.304 26.1486 105.335 26.1486C105.344 26.1057 105.38 26.0805 105.418 26.0566C105.757 25.841 106.099 25.6303 106.449 25.4337C106.526 25.3909 106.609 25.322 106.71 25.3873C106.711 25.3873 106.711 25.3873 106.711 25.3873C106.7 25.2083 106.882 25.2118 106.973 25.1289Z" fill="#373737"/>
	<path d="M103.083 27.108C103.135 27.0712 103.231 27.0542 103.209 26.9599C103.192 26.8855 103.107 26.8707 103.043 26.8531C102.811 26.7867 102.694 26.8752 102.636 27.1493C102.596 27.3453 102.629 27.5479 102.604 27.7454C102.679 27.461 102.859 27.2672 103.083 27.108Z" fill="#373737"/>
	<path d="M102.278 29.0384C102.271 29.03 102.27 29.0191 102.275 29.0065C102.237 28.7594 102.244 28.5122 102.274 28.2651C102.275 28.1754 102.277 28.0858 102.278 27.997C102.298 27.9182 102.286 27.8294 102.293 27.7456C102.284 27.7867 102.272 27.8252 102.252 27.857C102.21 27.976 102.171 28.1008 102.124 28.2139C102.007 28.4913 101.964 28.8121 102.019 29.1523C102.111 29.1933 102.204 29.2319 102.3 29.2679C102.284 29.195 102.273 29.1205 102.278 29.0384Z" fill="#373737"/>
	<path d="M102.646 28.2284C102.639 28.2819 102.64 28.3362 102.631 28.3897C102.599 28.5792 102.637 28.7746 102.605 28.9634C102.605 28.9648 102.604 28.9656 102.604 28.967C102.607 28.9685 102.611 28.9699 102.615 28.9735C102.659 29.0524 102.661 29.1623 102.696 29.2491C102.718 29.2557 102.741 29.2614 102.764 29.268C102.811 29.1479 102.875 29.0473 102.963 28.9786C102.962 28.9699 102.961 28.9605 102.958 28.9525C102.981 28.7919 103.019 28.6357 103.073 28.4946C103.151 28.2957 103.184 28.0967 103.15 27.8724C103.111 27.62 103.146 27.3755 103.212 27.1367C102.83 27.3038 102.706 27.7335 102.646 28.2284Z" fill="#373737"/>
	<path d="M103.716 27.4948C103.722 27.4948 103.726 27.4956 103.732 27.4964C103.945 27.145 104.12 26.762 104.354 26.428C104.344 26.3424 104.452 26.3178 104.427 26.225C104.403 26.2266 104.369 26.2163 104.355 26.2321C103.995 26.6343 103.601 27.0086 103.521 27.6487C103.517 27.6804 103.517 27.7129 103.519 27.7455C103.55 27.7225 103.575 27.6836 103.615 27.6852C103.595 27.5852 103.642 27.5313 103.716 27.4948Z" fill="#373737"/>
	<path d="M101.666 8.68001C101.465 8.60026 101.29 8.53704 101.081 8.57655C101.386 8.74611 101.241 9.01122 101.211 9.2634C101.259 9.25047 101.288 9.2361 101.316 9.23682C101.397 9.23898 101.508 9.21742 101.552 9.26269C101.596 9.30939 101.596 9.43009 101.577 9.5084C101.535 9.68083 101.468 9.8468 101.413 10.0156C101.406 10.0358 101.406 10.0587 101.402 10.0868C101.701 9.90715 102.06 9.2828 101.984 9.01266C101.939 9.12546 101.908 9.20305 101.875 9.28855C101.804 9.19084 101.756 9.07732 101.672 9.02128C101.583 8.96237 101.461 8.95806 101.352 8.93004C101.37 8.83376 101.381 8.82442 101.666 8.68001Z" fill="#373737"/>
	<path d="M101.961 9.71471C102.192 9.54448 102.339 9.33033 102.29 9.03656C102.237 8.72219 102.047 8.495 101.75 8.37763C101.612 8.3234 101.465 8.28977 101.318 8.26025C101.21 8.30487 101.103 8.35086 100.997 8.39822C100.996 8.4092 100.995 8.41881 100.994 8.43116C101.338 8.40714 101.65 8.46823 101.928 8.70297C101.814 8.72837 101.7 8.75376 101.559 8.78465C101.688 8.85123 101.783 8.89996 101.904 8.96243C101.959 8.93222 102.013 8.90202 102.067 8.87114C102.097 8.93428 102.148 8.99675 102.148 9.05989C102.149 9.14638 102.135 9.24934 102.087 9.31729C101.915 9.56164 101.728 9.7957 101.54 10.0284C101.513 10.0627 101.449 10.0682 101.402 10.0867C101.388 10.0352 101.351 9.97759 101.363 9.93298C101.406 9.76824 101.468 9.60832 101.516 9.44427C101.534 9.38318 101.53 9.31523 101.536 9.25071C101.474 9.25414 101.408 9.24659 101.351 9.26444C101.206 9.30837 101.143 9.261 101.164 9.10725C101.173 9.04067 101.195 8.97547 101.208 8.90889C101.24 8.75651 101.199 8.66797 101 8.5705C100.946 8.54373 100.84 8.59109 100.773 8.62884C100.668 8.68787 100.57 8.76269 100.478 8.84094C100.433 8.87869 100.385 8.93703 100.378 8.99057C100.364 9.11755 100.302 9.18756 100.181 9.21227C100.091 9.2308 100.069 9.27473 100.055 9.37494C100.026 9.57743 99.9433 9.77168 99.8935 9.9721C99.8727 10.0545 99.843 10.1718 99.8831 10.2226C99.9239 10.2741 100.048 10.2865 100.13 10.2748C100.313 10.2487 100.493 10.2034 100.671 10.1533C100.797 10.1176 100.871 10.0263 100.903 9.89523C100.928 9.7957 100.973 9.70029 101.017 9.60694C101.029 9.58155 101.066 9.56713 101.092 9.54791C101.106 9.58155 101.132 9.61449 101.133 9.64813C101.136 9.81354 101.124 9.97896 101.134 10.1437C101.141 10.2604 101.197 10.3654 101.328 10.388C101.459 10.4107 101.586 10.3194 101.625 10.1732C101.677 9.97416 101.802 9.83208 101.961 9.71471Z" fill="#373737"/>
	<path d="M104.43 9.34022C104.371 9.26637 104.314 9.20818 104.264 9.12986C104.217 9.05377 104.175 8.95642 104.132 8.86914C104.106 9.12874 104.173 9.46667 104.228 9.47338C104.305 9.48233 104.389 9.49464 104.43 9.34022Z" fill="#373737"/>
	<path d="M101.584 22.7777C101.306 22.4108 101.039 22.0377 100.76 21.6715C100.681 21.5683 100.578 21.4822 100.483 21.3907C100.415 21.3251 100.329 21.3483 100.305 21.4139C100.229 21.6155 100.077 21.7234 99.8633 21.789C100.046 21.8628 100.233 21.9298 100.411 22.0117C100.949 22.2577 101.278 22.6779 101.504 23.1822C101.536 23.2553 101.571 23.3305 101.617 23.3961C101.702 23.5149 101.82 23.5108 101.899 23.3885C101.943 23.3209 101.973 23.2512 101.995 23.1808C101.919 23.0606 101.848 22.9355 101.782 22.8071C101.781 22.8337 101.78 22.8652 101.78 22.9034C101.69 22.8467 101.619 22.8242 101.584 22.7777Z" fill="#373737"/>
	<path d="M104.628 9.16653C104.587 9.19005 104.535 9.22901 104.524 9.27164C104.471 9.48406 104.295 9.53257 104.115 9.52008C104.048 9.51567 103.982 9.50244 103.916 9.49362C103.887 9.54801 103.868 9.62813 103.824 9.65018C103.341 9.89935 102.855 10.1448 102.363 10.3764C102.257 10.4264 102.127 10.4183 101.995 10.4389C102.106 10.5866 102.198 10.7571 102.075 11.0004C102.44 10.7784 102.827 10.7182 103.124 10.4484C103.382 10.2147 103.71 10.1228 104.019 10.0045C104.322 9.88833 104.538 9.68252 104.705 9.40321C104.8 9.24518 104.946 9.10259 104.984 8.93133C105.032 8.71817 105.099 8.47635 104.938 8.26025C104.943 8.34184 104.945 8.42416 104.954 8.50575C104.989 8.81813 104.891 9.01438 104.628 9.16653Z" fill="#373737"/>
	<path d="M99.4716 19.2412C99.2024 19.1928 98.9389 19.217 98.7627 19.4587C98.7144 19.5253 98.6839 19.6034 98.6455 19.6761C98.7307 19.7031 98.8146 19.7515 98.9012 19.7549C99.5242 19.7778 100.147 19.7939 100.771 19.8088C100.876 19.8114 100.98 19.8168 101.081 19.8296C101.071 19.7414 101.062 19.6526 101.053 19.563C100.816 19.528 100.578 19.4883 100.343 19.4432C100.05 19.3866 99.765 19.2937 99.4716 19.2412Z" fill="#373737"/>
	<path d="M96.2734 16.6353C96.2489 16.6642 96.2159 16.6925 96.2065 16.7262C96.1842 16.8102 96.1921 16.9059 96.1548 16.9823C95.9362 17.4326 95.7047 17.876 95.4862 18.3263C95.4093 18.4853 95.3554 18.6554 95.2986 18.8227C95.2892 18.8503 95.3209 18.8909 95.3331 18.9253C95.3568 18.9157 95.392 18.9122 95.4035 18.8943C95.6027 18.5948 95.8018 18.2953 95.9952 17.9924C96.1713 17.7163 96.3381 17.434 96.5142 17.1579C96.5394 17.118 96.5918 17.0939 96.6314 17.0629C96.6407 17.0732 96.6501 17.0835 96.6594 17.0939C96.2741 17.708 95.8888 18.3229 95.5013 18.9404C95.5811 18.9707 95.6652 18.9914 95.7364 19.032C95.9621 19.1608 96.1893 19.2888 96.4042 19.4334C96.599 19.5649 96.8018 19.704 96.7593 19.9822C96.7572 19.9939 96.768 20.0076 96.7723 20.0207C96.9103 20.4531 97.2137 20.7292 97.6644 20.8414C98.2747 20.9943 98.8966 21.0617 99.5292 21.0301C99.6902 21.0218 99.852 21.0245 100.047 21.0211C99.9756 21.2029 99.9188 21.3475 99.8556 21.5093C100.062 21.4769 100.186 21.4067 100.247 21.2387C100.298 21.0989 100.442 21.0645 100.571 21.1478C100.621 21.1801 100.673 21.2166 100.707 21.2628C100.901 21.521 101.088 21.7833 101.278 22.0435C101.407 22.2198 101.537 22.3947 101.666 22.5696C101.693 22.5365 101.693 22.5193 101.688 22.5035C101.63 22.3293 101.572 22.1558 101.514 21.9823C101.472 21.8645 101.432 21.7447 101.395 21.6215C101.365 21.5313 101.335 21.4411 101.306 21.3509C101.255 21.1953 101.173 21.0411 101.214 20.8745C101.2 20.8049 101.186 20.7347 101.174 20.6638C101.017 20.6913 100.86 20.7161 100.702 20.7402C100.088 20.8338 99.4767 20.977 98.8477 20.9295C98.4818 20.902 98.1152 20.8662 97.7557 20.7994C97.5781 20.7664 97.3912 20.6844 97.2511 20.575C96.9498 20.3388 96.8521 19.998 96.8298 19.6372C96.819 19.4658 96.9125 19.3487 97.0886 19.3226C97.2223 19.3026 97.3596 19.3074 97.4948 19.2985C97.7607 19.2813 98.0282 19.2716 98.2927 19.2393C98.4717 19.2172 98.645 19.147 98.824 19.1263C98.9627 19.1105 99.0094 19.0561 99.0166 18.9308C99.0447 18.4564 99.1999 18.024 99.4781 17.6275C99.8627 17.078 100.049 16.4756 99.9943 15.8077C99.9533 15.301 99.5946 14.9506 99.0734 14.9581C98.7269 14.9636 98.3783 14.9822 98.0354 15.0284C97.7945 15.0607 97.5616 15.1482 97.2956 15.2184C97.4099 15.3279 97.494 15.4043 97.5717 15.4855C97.663 15.5805 97.7521 15.5978 97.8643 15.5117C98.0346 15.3816 98.2302 15.3678 98.4228 15.4525C98.8168 15.6239 99.1525 15.8752 99.4372 16.185C99.586 16.3468 99.5213 16.5369 99.3006 16.5685C99.0849 16.5995 98.8613 16.5988 98.6428 16.5858C98.4178 16.572 98.1957 16.5197 97.9707 16.4997C97.9074 16.4942 97.7873 16.5376 97.783 16.5692C97.7737 16.6374 97.8204 16.7138 97.8506 16.784C97.8599 16.8061 97.893 16.8185 97.9117 16.8384C98.0131 16.9438 98.1288 17.0402 98.2108 17.1579C98.4307 17.4739 98.4911 17.8058 98.241 18.137C98.1705 18.2306 98.085 18.316 97.9951 18.3931C97.6946 18.6526 97.3725 18.8826 96.9879 19.0162C96.8269 19.0719 96.7543 19.0182 96.7816 18.8633C96.8485 18.484 96.9225 18.106 96.9959 17.728C97.0009 17.7025 97.0217 17.6798 97.0354 17.6564C97.0526 17.6605 97.0692 17.6646 97.0864 17.6688C97.0074 18.0895 96.929 18.5101 96.8449 18.9604C96.9232 18.9398 96.9678 18.9329 97.0081 18.9163C97.3524 18.7745 97.6594 18.5735 97.9275 18.327C98.0569 18.2079 98.1849 18.0681 98.2561 17.9139C98.3905 17.622 98.2668 17.3583 98.0706 17.1276C97.9707 17.0099 97.8484 16.91 97.7421 16.7978C97.6673 16.7186 97.6292 16.6126 97.6996 16.5279C97.7492 16.468 97.8528 16.4143 97.929 16.4178C98.1583 16.4295 98.3854 16.4832 98.6155 16.4962C98.8383 16.5086 99.0655 16.5031 99.2876 16.4804C99.4249 16.466 99.4508 16.3627 99.3703 16.2498C99.3487 16.2202 99.3293 16.1871 99.3013 16.1651C99.1036 16.0067 98.9138 15.8374 98.7018 15.6976C98.4307 15.5193 98.1439 15.3754 97.8269 15.6329C97.7507 15.6941 97.6551 15.6721 97.5803 15.6074C97.5041 15.5413 97.4322 15.4711 97.3575 15.4036C97.2108 15.2707 97.1317 15.279 97.0167 15.4442C96.9858 15.489 96.9649 15.5406 96.9369 15.5874C96.7773 15.8504 96.617 16.1134 96.4574 16.3764C96.4387 16.3703 96.3215 16.5768 96.2734 16.6353Z" fill="#373737"/>
	<path d="M96.588 18.003C96.5633 17.9974 96.5394 17.9917 96.5146 17.9861C96.5457 17.796 96.5768 17.6066 96.6111 17.394C96.694 17.4586 96.7474 17.5 96.8191 17.5561C96.7522 17.6971 96.7187 17.8704 96.588 18.003Z" fill="#373737"/>
	<path d="M97.2985 16.8259C97.3184 16.8018 97.3692 16.7975 97.4061 16.7847C97.4134 16.8157 97.434 16.8505 97.4255 16.8778C97.3789 17.0297 97.3269 17.1806 97.2737 17.3305C97.2652 17.3545 97.2374 17.3727 97.2186 17.3936C97.2083 17.3888 97.1974 17.384 97.1872 17.3786C97.2392 17.225 97.2912 17.0709 97.3463 16.9083C97.2319 16.9543 97.2549 17.0923 97.123 17.0977C97.1696 16.9987 97.2289 16.9088 97.2985 16.8259Z" fill="#373737"/>
	<path d="M96.9734 17.3933C96.9087 17.3471 96.8521 17.2843 96.8198 17.2182C96.8117 17.205 96.9209 17.1554 97.03 17.0894C97.0745 17.1786 97.1311 17.2413 97.123 17.3041C97.123 17.3372 96.9855 17.3999 96.9734 17.3933Z" fill="#373737"/>
	<path d="M96.958 16.486C96.9893 16.4661 97.093 16.5034 97.1086 16.5394C97.1701 16.6809 97.0339 16.995 96.8917 17.0894C96.8712 16.9565 96.8483 16.8163 96.8193 16.6288C96.8374 16.6077 96.888 16.5295 96.958 16.486Z" fill="#373737"/>
	<path d="M95.7391 20.6311C96.4945 20.9639 97.2887 21.1238 98.0816 21.2959C98.435 21.3728 98.7842 21.4773 99.1362 21.5626C99.2966 21.6018 99.459 21.6287 99.6215 21.6549C99.6527 21.6602 99.7076 21.6487 99.7173 21.6264C99.7742 21.4973 99.8208 21.362 99.8638 21.2475C99.4222 21.2314 98.9814 21.236 98.544 21.1937C98.1406 21.1553 97.7303 21.1007 97.3658 20.887C97.0083 20.6772 96.7694 20.3467 96.7326 19.8856C96.7208 19.7411 96.6688 19.6381 96.5792 19.5682C96.3209 19.366 96.055 19.1747 95.7856 18.9902C95.5906 18.8565 95.5065 18.9049 95.4212 19.1247C95.3691 19.26 95.3253 19.3945 95.2969 19.5305C95.308 19.7888 95.324 20.0424 95.3441 20.2914C95.4267 20.4566 95.5697 20.5558 95.7391 20.6311Z" fill="#373737"/>
	<path d="M103.986 9.47765C103.984 9.41405 103.987 9.34898 103.978 9.28611C103.972 9.23494 103.941 9.18669 103.94 9.13698C103.939 9.07995 103.946 8.99296 103.974 8.97322C104.013 8.9469 104.083 8.95348 104.127 8.97907C104.177 9.00831 104.215 9.07118 104.252 9.12528C104.306 9.20423 104.36 9.22178 104.431 9.15306C104.424 9.1304 104.421 9.11139 104.414 9.09531C104.235 8.70858 104.058 8.31966 103.873 7.93731C103.827 7.84227 103.756 7.76113 103.689 7.6851C103.648 7.63904 103.589 7.62881 103.571 7.72238C103.486 8.15882 103.485 8.58357 103.695 8.97761C103.737 9.05583 103.771 9.14063 103.821 9.24956C103.888 9.39065 103.936 9.44841 103.986 9.47765Z" fill="#373737"/>
	<path d="M102.909 8.37314C102.919 8.76592 103.213 9.13887 103.517 9.17319C103.199 8.70414 103.217 8.18323 103.307 7.65088C103.007 7.71418 102.9 8.0429 102.909 8.37314Z" fill="#373737"/>
	<path d="M104.946 7.9556C105.092 7.728 105.063 7.50264 104.883 7.34668C104.626 7.3631 104.374 7.38399 104.126 7.41011C104.431 7.53771 104.702 7.72353 104.946 7.9556Z" fill="#373737"/>
	<path d="M100.887 11.9111C100.83 11.8466 100.835 11.8075 100.92 11.7684C100.964 11.7485 100.989 11.6971 101.023 11.6594C100.972 11.6415 100.918 11.6045 100.869 11.6093C100.604 11.6367 100.339 11.6649 100.077 11.7122C99.8727 11.7492 99.8202 11.8576 99.8968 12.0414C100.051 12.4083 100.369 12.577 100.756 12.6586C100.822 12.6724 100.89 12.6758 100.954 12.6923C101.174 12.7485 101.211 12.8102 101.16 13.016C101.153 13.0441 101.156 13.075 101.154 13.1312C101.343 12.9693 101.343 12.7732 101.157 12.6751C101.04 12.6134 100.899 12.5846 100.764 12.5633C100.399 12.5043 100.133 12.3322 99.9786 12.0105C99.9224 11.8926 99.972 11.8219 100.084 11.8007C100.312 11.7581 100.542 11.7328 100.736 11.7053C100.761 11.8007 100.76 11.8926 100.805 11.9543C100.945 12.1456 101.101 12.3274 101.253 12.5098C101.275 12.5359 101.317 12.5469 101.349 12.5647C101.361 12.553 101.374 12.5414 101.386 12.529C101.289 12.4069 101.194 12.2842 101.096 12.1628C101.029 12.0777 100.959 11.9934 100.887 11.9111Z" fill="#373737"/>
	<path d="M98.9202 19.2207C98.9072 19.2306 98.8935 19.238 98.8797 19.2417C98.6316 19.3016 98.3784 19.3596 98.1223 19.3843C97.8192 19.4133 97.511 19.4158 97.205 19.4152C96.9728 19.4146 96.8158 19.4794 96.8194 19.6189C96.8288 19.9992 97.0133 20.4962 97.639 20.6123C98.2684 20.7289 98.9021 20.7888 99.5445 20.7012C99.9453 20.6468 100.347 20.5974 100.748 20.5406C100.859 20.5246 100.97 20.5073 101.082 20.4894C101.052 20.3295 101.025 20.1671 101.003 20.0017C100.983 19.9998 100.962 19.998 100.941 19.9974C100.321 19.9757 99.6993 19.969 99.0794 19.9541C98.9369 19.9511 98.7943 19.9455 98.6533 19.9338C98.4522 19.9171 98.3697 19.8171 98.4543 19.6739C98.5542 19.5059 98.6974 19.3683 98.9274 19.3195C98.9557 19.3133 98.9846 19.309 99.0128 19.3053C98.9369 19.3084 98.918 19.2664 98.9202 19.2207Z" fill="#373737"/>
	<path d="M100.887 11.9111C100.83 11.8466 100.835 11.8075 100.92 11.7684C100.964 11.7485 100.989 11.6971 101.023 11.6594C100.972 11.6415 100.918 11.6045 100.869 11.6093C100.604 11.6367 100.339 11.6649 100.077 11.7122C99.8727 11.7492 99.8202 11.8576 99.8968 12.0414C100.051 12.4083 100.369 12.577 100.756 12.6586C100.822 12.6724 100.89 12.6758 100.954 12.6923C101.174 12.7485 101.211 12.8102 101.16 13.016C101.153 13.0441 101.156 13.075 101.154 13.1312C101.343 12.9693 101.343 12.7732 101.157 12.6751C101.04 12.6134 100.899 12.5846 100.764 12.5633C100.399 12.5043 100.133 12.3322 99.9786 12.0105C99.9224 11.8926 99.972 11.8219 100.084 11.8007C100.312 11.7581 100.542 11.7328 100.736 11.7053C100.761 11.8007 100.76 11.8926 100.805 11.9543C100.945 12.1456 101.101 12.3274 101.253 12.5098C101.275 12.5359 101.317 12.5469 101.349 12.5647C101.361 12.553 101.374 12.5414 101.386 12.529C101.289 12.4069 101.194 12.2842 101.096 12.1628C101.029 12.0777 100.959 11.9934 100.887 11.9111Z" fill="#373737"/>
	<path d="M101.75 12.7667C101.906 12.98 102.071 13.1911 102.189 13.426C102.317 13.2547 102.455 13.0967 102.604 12.9513C102.574 12.9219 102.544 12.8933 102.515 12.8625C102.334 12.6682 102.16 12.4528 102.148 12.1704C102.126 11.7006 101.909 11.3385 101.558 11.0379C101.495 10.9841 101.462 10.9897 101.398 11.0414C101.322 11.1022 101.225 11.1693 101.135 11.1742C100.826 11.191 100.514 11.1987 100.207 11.1777C99.5842 11.1358 98.8939 11.5224 98.6534 12.0998C98.5692 12.3018 98.5211 12.5193 98.4687 12.7332C98.3499 13.2162 98.1073 13.6448 97.8774 14.0796C97.8222 14.1838 97.7805 14.2942 97.7324 14.4019C97.7452 14.4089 97.7586 14.4166 97.7713 14.4235C97.9566 14.1383 98.1533 13.8587 98.3245 13.5651C98.4624 13.3274 98.5812 13.0778 98.6859 12.8234C98.804 12.5353 98.8889 12.2333 99.0049 11.9439C99.0481 11.8356 99.1011 11.7111 99.2666 11.6552C99.2574 11.73 99.2511 11.7768 99.2454 11.8244C99.2369 11.8922 99.2107 11.9635 99.2228 12.0271C99.2999 12.427 99.5679 12.6654 99.9273 12.8255C100.002 12.859 100.068 12.9128 100.139 12.9576C100.068 12.9981 100.002 13.052 99.9259 13.0757C99.3862 13.247 98.942 13.556 98.589 13.9901C98.5169 14.0789 98.4334 14.1852 98.4723 14.3327C98.4963 14.3208 98.5154 14.3166 98.526 14.3047C98.5925 14.2292 98.6548 14.1509 98.722 14.0761C98.9002 13.8776 99.111 13.8741 99.2737 14.0845C99.4123 14.2642 99.5283 14.462 99.6549 14.6535C99.6818 14.6046 99.7186 14.5326 99.7596 14.4634C100.036 13.9971 100.417 13.6224 100.829 13.2743C100.869 13.2407 100.928 13.2302 100.978 13.2092C100.98 13.2141 100.983 13.219 100.985 13.2232C101.14 13.0876 101.304 13.0233 101.384 12.9974C101.377 12.9876 101.37 12.9786 101.362 12.9688C101.34 12.9387 101.353 12.8814 101.35 12.8366C101.362 12.8331 101.374 12.8303 101.386 12.8269C101.413 12.866 101.438 12.9065 101.466 12.945C101.643 13.1855 101.822 13.4253 101.999 13.6657C101.996 13.6203 102.005 13.5679 101.986 13.5315C101.838 13.254 101.681 12.9806 101.533 12.7031C101.51 12.6598 101.512 12.6031 101.502 12.5528C101.519 12.5451 101.536 12.5381 101.554 12.5304C101.618 12.6101 101.689 12.6849 101.75 12.7667Z" fill="#373737"/>
	<path d="M101.348 12.5647C101.316 12.5469 101.273 12.5352 101.252 12.5098C101.099 12.3274 100.944 12.1463 100.804 11.9543C100.759 11.8926 100.76 11.8007 100.736 11.7053C100.542 11.7328 100.311 11.7581 100.084 11.8007C99.9719 11.8219 99.9223 11.8926 99.9785 12.0105C100.132 12.3329 100.399 12.5043 100.763 12.5633C100.898 12.5853 101.04 12.6134 101.156 12.6751C101.341 12.7739 101.341 12.97 101.153 13.1312C101.155 13.075 101.152 13.0448 101.159 13.016C101.21 12.8102 101.173 12.7485 100.953 12.6923C100.889 12.6758 100.82 12.6731 100.755 12.6586C100.369 12.577 100.051 12.4083 99.8968 12.0414C99.8202 11.8576 99.8727 11.7492 100.077 11.7122C100.338 11.6649 100.604 11.6367 100.868 11.6093C100.917 11.6045 100.971 11.6415 101.022 11.6594C100.988 11.6964 100.962 11.7485 100.919 11.7684C100.834 11.8075 100.828 11.8466 100.886 11.9111C100.959 11.9934 101.028 12.0777 101.097 12.1628C101.194 12.2842 101.289 12.4069 101.386 12.529C101.372 12.5407 101.36 12.5523 101.348 12.5647Z" fill="#373737"/>
	<path d="M101.094 13.1124C101.09 13.1188 101.086 13.1252 101.081 13.1316L101.386 12.84C101.383 12.8352 101.381 12.8312 101.379 12.8271C101.319 12.8568 101.199 12.9305 101.084 13.0859C101.088 13.0948 101.091 13.1036 101.094 13.1124Z" fill="#373737"/>
	<path d="M82.2781 17.6978C81.244 17.6978 80.4363 17.411 79.854 16.8374C79.2718 16.2639 78.9807 15.4836 78.9807 14.4961C78.9807 14.0462 79.0462 13.6139 79.1773 13.2006C79.3084 12.7866 79.5086 12.4239 79.7779 12.1118C80.0472 11.7997 80.3855 11.553 80.7936 11.3716C81.201 11.1903 81.674 11.0996 82.2132 11.0996C83.2755 11.0996 84.0988 11.3899 84.681 11.9705C84.8742 12.1631 85.0342 12.3817 85.1632 12.6249L86.836 7.84836L85.5981 7.72358C85.1174 7.59284 84.5972 7.49162 84.0368 7.41852C83.4764 7.34612 82.8899 7.30957 82.2788 7.30957C81.0847 7.30957 79.9929 7.47264 79.0032 7.79949C78.0129 8.12634 77.1614 8.59799 76.448 9.21514C75.7347 9.83229 75.1779 10.5872 74.7775 11.4799C74.3771 12.3726 74.1769 13.3855 74.1769 14.5178C74.1769 15.5778 74.3299 16.4635 74.6358 17.1748C74.9417 17.8862 75.3491 18.4963 75.8588 19.0045C75.2328 19.571 74.7232 20.2057 74.3299 20.9101C73.9366 21.6144 73.7399 22.3946 73.7399 23.2514C73.7399 23.9339 73.9112 24.5616 74.253 25.1352C74.5949 25.7088 75.0792 26.1621 75.7051 26.496C75.254 26.8299 74.8536 27.1785 74.504 27.5412C74.1544 27.9046 73.8597 28.2856 73.6194 28.6849C73.379 29.0841 73.1971 29.5016 73.0731 29.9374C72.949 30.3732 72.8877 30.8301 72.8877 31.3095C72.8877 32.0792 73.059 32.787 73.4008 33.433C73.7427 34.0789 74.289 34.6342 75.039 35.0989C75.5669 35.4257 76.1566 35.7026 76.8939 35.929L78.4739 31.5759C78.2878 31.299 78.1947 30.9777 78.1947 30.6129C78.1947 30.3803 78.2166 30.1553 78.2603 29.9381C78.304 29.7202 78.3949 29.4953 78.5331 29.2634C78.6712 29.0307 78.8531 28.7875 79.0794 28.5337C79.2605 28.3299 79.4917 28.119 79.7715 27.9004L81.6755 23.9104L80.6521 23.8398C79.9825 23.811 79.4616 23.662 79.0908 23.3935C78.7194 23.125 78.5225 22.7165 78.5225 22.2948C78.5225 21.9757 78.5916 21.6846 78.7297 21.4239C78.8679 21.1624 79.0244 20.9375 79.1992 20.7491C79.5051 20.9522 79.9414 21.1301 80.5096 21.2826C80.9945 21.4126 81.5013 21.4871 82.0293 21.5061L83.7344 17.5408C83.3933 17.642 82.7038 17.6978 82.2781 17.6978Z" fill="#373737"/>
	<path d="M20.3139 20.2679C20.3139 21.2639 20.176 22.1663 19.9017 22.975C19.6268 23.7837 19.2475 24.4981 18.7633 25.1188C18.2791 25.7395 17.7011 26.2742 17.0286 26.7215C16.3569 27.1696 15.6159 27.5372 14.8063 27.8259C13.9967 28.1146 13.1332 28.3278 12.2159 28.4648C11.2979 28.6025 10.2755 28.6703 9.14828 28.6703H1.69125C1.21403 28.6703 0.813087 28.5298 0.487712 28.2481C0.162338 27.9664 0 27.5086 0 26.8732V2.4455C0 1.81013 0.162338 1.3516 0.487712 1.07062C0.813087 0.788929 1.21403 0.648438 1.69125 0.648438H8.73684C10.4568 0.648438 11.9129 0.793124 13.1053 1.0818C14.2976 1.37048 15.3017 1.80733 16.119 2.39168C16.9356 2.97672 17.5604 3.71623 17.9943 4.61161C18.4281 5.507 18.6443 6.56035 18.6443 7.77307C18.6443 8.45177 18.5576 9.09063 18.384 9.68965C18.2105 10.2887 17.9579 10.8339 17.6255 11.3245C17.2931 11.8152 16.8845 12.2486 16.4003 12.6239C15.9161 12.9993 15.3633 13.3026 14.7419 13.5333C15.5368 13.678 16.2701 13.9303 16.9426 14.291C17.6143 14.6524 18.2 15.1179 18.6989 15.6875C19.1978 16.2579 19.5911 16.9254 19.8808 17.6908C20.169 18.4562 20.3139 19.3152 20.3139 20.2679ZM12.9422 8.46575C12.9422 7.90238 12.8555 7.39772 12.6819 6.94968C12.5084 6.50233 12.2481 6.13048 11.9017 5.83412C11.5547 5.53845 11.1173 5.31128 10.5904 5.15192C10.0628 4.99325 9.3582 4.91357 8.47654 4.91357H5.59295V12.1899H8.77952C9.60311 12.1899 10.2609 12.0927 10.7521 11.8977C11.2433 11.7027 11.6519 11.4357 11.9766 11.0967C12.302 10.7577 12.5434 10.3607 12.7029 9.90563C12.8632 9.4506 12.9422 8.97111 12.9422 8.46575ZM14.3949 20.4629C14.3949 19.8136 14.2864 19.232 14.0695 18.7197C13.8526 18.2073 13.5349 17.7775 13.1158 17.4315C12.6966 17.0848 12.162 16.8178 11.5113 16.6304C10.8612 16.4431 10.0152 16.3488 8.97475 16.3488H5.59295V24.3185H9.71226C10.5072 24.3185 11.1754 24.2353 11.7177 24.0696C12.26 23.904 12.7295 23.6579 13.1269 23.3336C13.5244 23.0086 13.8351 22.6046 14.059 22.1209C14.2829 21.6358 14.3949 21.0836 14.3949 20.4629Z" fill="#F95437"/>
	<path d="M116 14.8096C115.915 14.3833 115.814 13.9737 115.694 13.5815C115.285 12.2388 114.661 11.1079 113.82 10.188C112.98 9.26887 111.917 8.57199 110.632 8.09739C109.346 7.62349 107.826 7.38584 106.074 7.38584C105.735 7.38584 105.405 7.39562 105.082 7.4145C105.178 7.52144 105.211 7.66263 105.185 7.8185C105.169 7.91216 105.114 7.99954 105.076 8.0897C104.996 8.04217 104.916 7.99534 104.835 7.94781C104.832 7.94571 104.829 7.94082 104.826 7.93733C104.615 7.73672 104.374 7.59343 104.104 7.50536C103.968 7.52284 103.835 7.54241 103.703 7.56338C103.703 7.56617 103.702 7.56827 103.702 7.57176C103.89 7.63677 104.001 7.77586 104.093 7.93872C104.303 8.30848 104.52 8.67474 104.735 9.0452C105.018 8.9774 105.108 8.71598 105.076 8.50629C105.064 8.4301 105.056 8.35182 105.055 8.27493C105.053 8.17428 105.067 8.08062 105.205 8.11347C105.205 8.05475 105.194 8.00233 105.207 7.9569C105.221 7.91356 105.258 7.87721 105.285 7.83807C105.319 7.86813 105.368 7.8919 105.383 7.92894C105.424 8.02959 105.449 8.13583 105.481 8.23928C105.527 8.39026 105.527 8.53215 105.433 8.67265C105.272 8.91589 105.113 9.16123 104.967 9.41426C104.777 9.74347 104.479 9.92031 104.134 10.0363C103.813 10.1447 103.511 10.2852 103.239 10.4907C103.132 10.5718 103.008 10.6437 102.881 10.6836C102.62 10.7661 102.381 10.8793 102.171 11.0533C102.153 11.068 102.118 11.0617 102.063 11.0687C102.103 10.9876 102.126 10.9282 102.16 10.8758C102.259 10.7199 102.267 10.5697 102.15 10.4194C102.119 10.3802 102.085 10.3397 102.069 10.2943C102.056 10.2565 102.054 10.2048 102.071 10.1712C102.079 10.1559 102.143 10.165 102.182 10.1691C102.279 10.1789 102.378 10.2125 102.471 10.1978C102.576 10.181 102.677 10.1286 102.775 10.0811C103.128 9.91192 103.48 9.73858 103.832 9.56663C103.874 9.54636 103.915 9.52469 103.956 9.50373C103.913 9.47926 103.878 9.48066 103.844 9.48695C103.669 9.5184 103.493 9.54357 103.32 9.58411C102.843 9.69524 102.373 9.83364 101.96 10.1055C101.825 10.1943 101.66 10.2775 101.641 10.4746C101.621 10.6836 101.627 10.852 101.83 11.0142C102.147 11.2672 102.31 11.6342 102.359 12.0452C102.374 12.1738 102.39 12.3178 102.457 12.4212C102.553 12.5694 102.665 12.7085 102.781 12.8427C103.061 12.5799 103.377 12.3625 103.729 12.1913C104.342 11.8921 105.058 11.7425 105.876 11.7425C106.796 11.7425 107.56 11.9103 108.166 12.2458C108.772 12.582 109.259 13.0489 109.624 13.6465C109.876 14.0589 110.076 14.523 110.227 15.0361C110.329 14.955 110.435 14.8795 110.551 14.8131C110.589 14.7915 110.622 14.7502 110.674 14.7754C110.713 14.7642 110.731 14.709 110.782 14.7278C110.907 14.6705 111.033 14.6803 111.157 14.7278C111.487 14.7761 111.799 14.8746 112.109 14.9976C112.631 15.2052 113.023 15.5841 113.428 15.9483C113.481 15.9958 113.524 16.0573 113.523 16.1363C113.584 16.2901 113.573 16.4445 113.522 16.5983C113.463 16.7961 113.4 16.9911 113.243 17.1379C113.232 17.2057 113.179 17.2337 113.125 17.2623C112.767 17.5873 112.352 17.6496 111.901 17.5112C111.734 17.4601 111.569 17.3965 111.425 17.2924C111.301 17.2987 111.22 17.3735 111.159 17.4699C110.924 17.8341 110.725 18.2157 110.63 18.6414C110.627 18.8231 110.623 19.0021 110.615 19.1768C110.704 19.6773 111.535 20.3224 111.535 20.3224C111.535 20.3224 111.866 20.3902 112.03 20.2588C111.85 20.1043 111.71 19.9282 111.727 19.6766C111.751 19.2991 111.937 18.9951 112.169 18.712C112.226 18.6037 112.303 18.5121 112.396 18.4331C112.454 18.3562 112.517 18.2835 112.608 18.2416C112.763 18.0759 112.958 17.9655 113.164 17.8844C113.319 17.8236 113.444 17.76 113.47 17.5783C113.478 17.5286 113.51 17.4818 113.559 17.4538C113.566 17.3609 113.662 17.3154 113.709 17.3099C113.886 17.2868 113.879 17.1756 113.882 17.0463C113.885 16.8639 113.85 16.6871 113.832 16.5074C113.751 16.1579 113.559 15.8756 113.303 15.6309C113.269 15.5981 113.202 15.5701 113.23 15.5065C113.25 15.459 113.31 15.4709 113.354 15.4646C113.555 15.4352 113.756 15.4072 113.952 15.3513C114.078 15.3157 114.179 15.2535 114.23 15.127C114.535 14.5671 115.174 14.4594 115.68 14.9585C115.773 15.0501 115.861 15.1521 115.851 15.2989C115.847 15.3548 115.882 15.3618 115.926 15.3604C115.934 15.3178 115.941 15.2751 115.948 15.2325C115.95 15.2025 115.954 15.1731 115.964 15.1437C115.955 15.0263 115.96 14.9124 116 14.8096Z" fill="#F95437"/>
	<path d="M41.394 27.9999C40.3521 27.8699 39.3095 27.7406 38.2676 27.6085C37.472 27.5079 36.9276 27.0493 36.7681 26.3497C36.6127 25.6696 36.9612 24.7176 37.5364 24.3695C37.7407 24.2458 38.0052 24.1884 38.2473 24.1717C38.4208 24.1591 38.5286 24.1178 38.5853 23.9697C38.6545 23.7893 38.7182 23.6041 38.7602 23.4161C38.8736 22.9135 39.2325 22.6095 39.744 22.6689C41.2799 22.8471 42.8137 23.0393 44.3461 23.2455C44.8471 23.3133 45.1207 23.6796 45.1186 24.1856C45.1179 24.3024 45.1019 24.4191 45.1088 24.5351C45.1263 24.8168 45.1711 25.0244 45.542 25.1006C46.0724 25.2096 46.3033 25.6619 46.4292 26.1561C46.7028 27.2318 46.1899 28.1789 45.2145 28.3753C45.0004 28.4186 44.7688 28.4151 44.5498 28.39C43.4974 28.2677 42.4464 28.1313 41.394 27.9999Z" fill="#F95437"/>
	<path d="M39.8518 22.0384C40.3885 19.8171 40.9182 17.6265 41.4521 15.4163C42.4576 15.5422 43.4638 15.668 44.4833 15.7952C44.4532 18.0633 44.4231 20.3252 44.393 22.606C42.8851 22.4172 41.3954 22.2313 39.8518 22.0384Z" fill="#F95437"/>
	<path d="M42.3365 7.50536C42.6878 7.35578 42.9964 7.22437 43.3259 7.08388C43.1209 6.78542 43.0348 6.43593 43.1923 6.09064C43.2798 5.89912 43.4407 5.71599 43.6149 5.59507C43.9977 5.33086 44.5533 5.435 44.8569 5.78589C45.2306 6.21785 45.1865 6.69735 44.7044 7.28518C45.2187 7.5487 45.6127 7.93243 45.887 8.44059C46.5965 9.75675 46.1424 11.5419 44.8842 12.3213C44.7632 12.3961 44.5924 12.4408 44.4525 12.4261C43.7374 12.352 43.0237 12.2612 42.312 12.1591C42.1798 12.1403 42.0293 12.0711 41.9363 11.9767C41.0014 11.0331 40.8692 9.42824 41.6361 8.30848C42.0027 8.71528 42.3673 9.11649 42.7277 9.5219C42.8984 9.71342 43.102 9.80498 43.3511 9.72041C43.7115 9.59878 43.8143 9.17381 43.5492 8.86486C43.1706 8.42381 42.7759 7.99604 42.3365 7.50536Z" fill="#F95437"/>
	<path d="M40.0484 14.0093C42.1028 14.2658 44.1369 14.5203 46.1703 14.7747C46.1431 15.2164 45.7799 15.5163 45.309 15.4646C44.6519 15.3933 43.9963 15.3038 43.3399 15.2213C42.4814 15.1137 41.6214 15.0109 40.7635 14.897C40.2779 14.8334 40.033 14.5314 40.0484 14.0093Z" fill="#F95437"/>
	<path d="M45.6742 14.1854C44.0117 13.9778 42.3666 13.7717 40.7208 13.5662C40.6509 13.1922 40.9944 12.8176 41.4031 12.8497C41.7802 12.8791 42.1546 12.9378 42.5303 12.9846C43.3679 13.0888 44.2062 13.1915 45.0431 13.2998C45.5154 13.3614 45.7379 13.6668 45.6742 14.1854Z" fill="#F95437"/>
	<path d="M92.2867 11.4363C92.4455 11.1043 92.5253 10.592 92.5253 9.8986C92.5253 9.1479 92.4497 8.61389 92.2979 8.29586C92.146 7.97852 91.9473 7.81916 91.7017 7.81916H86.8519L85.1347 12.6931C85.3929 13.1817 85.5231 13.773 85.5231 14.4678C85.5231 14.9011 85.4545 15.3163 85.3174 15.7127C85.1795 16.1097 84.9773 16.4599 84.71 16.7632C84.4427 17.0666 84.1061 17.3049 83.7017 17.4776C83.6086 17.5174 83.5121 17.5517 83.4113 17.5824L82.023 21.5218C82.1126 21.5253 82.2022 21.5274 82.2924 21.5274C83.5064 21.5274 84.6085 21.3722 85.5986 21.0619C86.5888 20.7515 87.434 20.2965 88.1352 19.6975C88.8363 19.0985 89.3744 18.3625 89.7501 17.4887C90.1259 16.6157 90.3141 15.6155 90.3141 14.4895C90.3141 14.0128 90.2456 13.5549 90.1084 13.1146C89.9706 12.6742 89.7431 12.2807 89.4255 11.934H91.7017C91.9326 11.9347 92.1278 11.7691 92.2867 11.4363Z" fill="#F95437"/>
	<path d="M79.975 27.7826L83.8557 27.8909C84.7661 27.9203 85.4819 28.1076 86.0018 28.4543C86.5224 28.801 86.782 29.2986 86.782 29.9487C86.782 30.324 86.7092 30.6812 86.5651 31.0209C86.4202 31.3599 86.1746 31.6668 85.8283 31.9414C85.4812 32.2154 85.0264 32.4356 84.4624 32.602C83.8984 32.7676 83.205 32.8508 82.3814 32.8508C81.0512 32.8508 80.0219 32.6628 79.2921 32.2874C78.9296 32.1008 78.6258 32.066 78.4438 31.7934L77.1515 35.9288C77.4594 36.0231 77.5827 36.108 77.9269 36.1849C79.0899 36.4449 80.4956 36.5749 82.1435 36.5749C83.8347 36.5749 85.3119 36.3946 86.577 36.0332C87.8414 35.6726 88.8931 35.1812 89.7314 34.5605C90.5697 33.9398 91.198 33.2073 91.6171 32.3622C92.0363 31.5179 92.2455 30.619 92.2455 29.6663C92.2455 28.8003 92.0902 28.0279 91.7795 27.3492C91.4688 26.6705 91.021 26.0896 90.4353 25.606C89.8496 25.1223 89.1268 24.7469 88.2675 24.4799C87.4076 24.2129 86.4279 24.0577 85.3301 24.0144L81.2869 24.0394L80.6408 27.3995C80.7087 27.347 79.9016 27.8364 79.975 27.7826Z" fill="#F95437"/>
	<path d="M20.3686 20.2679C20.3686 21.2639 20.2307 22.1663 19.9564 22.975C19.6814 23.7837 19.3022 24.4981 18.818 25.1188C18.3338 25.7395 17.7558 26.2742 17.0833 26.7215C16.4116 27.1696 15.6706 27.5372 14.861 27.8259C14.0514 28.1146 13.1879 28.3278 12.2706 28.4648C11.3525 28.6025 10.3302 28.6703 9.20297 28.6703H1.74594C1.26872 28.6703 0.867775 28.5298 0.5424 28.2481C0.217025 27.9664 0.0546875 27.5086 0.0546875 26.8732V2.4455C0.0546875 1.81013 0.217025 1.3516 0.5424 1.07062C0.867775 0.788929 1.26872 0.648438 1.74594 0.648438H8.79153C10.5115 0.648438 11.9676 0.793124 13.1599 1.0818C14.3523 1.37048 15.3564 1.80733 16.1737 2.39168C16.9903 2.97672 17.6151 3.71623 18.049 4.61161C18.4828 5.507 18.699 6.56035 18.699 7.77307C18.699 8.45177 18.6122 9.09063 18.4387 9.68965C18.2652 10.2887 18.0126 10.8339 17.6802 11.3245C17.3478 11.8152 16.9392 12.2486 16.455 12.6239C15.9708 12.9993 15.418 13.3026 14.7966 13.5333C15.5915 13.678 16.3248 13.9303 16.9973 14.291C17.669 14.6524 18.2547 15.1179 18.7536 15.6875C19.2525 16.2579 19.6458 16.9254 19.9354 17.6908C20.2237 18.4562 20.3686 19.3152 20.3686 20.2679ZM12.9969 8.46575C12.9969 7.90238 12.9101 7.39772 12.7366 6.94968C12.5631 6.50233 12.3028 6.13048 11.9564 5.83412C11.6093 5.53845 11.172 5.31128 10.6451 5.15192C10.1175 4.99325 9.41289 4.91357 8.53123 4.91357H5.64764V12.1899H8.83421C9.65779 12.1899 10.3155 12.0927 10.8068 11.8977C11.298 11.7027 11.7066 11.4357 12.0313 11.0967C12.3567 10.7577 12.5981 10.3607 12.7576 9.90563C12.9178 9.4506 12.9969 8.97111 12.9969 8.46575ZM14.4495 20.4629C14.4495 19.8136 14.3411 19.232 14.1242 18.7197C13.9073 18.2073 13.5896 17.7775 13.1704 17.4315C12.7513 17.0848 12.2167 16.8178 11.566 16.6305C10.9159 16.4431 10.0699 16.3488 9.02944 16.3488H5.64764V24.3185H9.76695C10.5618 24.3185 11.2301 24.2353 11.7724 24.0696C12.3147 23.904 12.7842 23.6579 13.1816 23.3336C13.5791 23.0086 13.8898 22.6046 14.1137 22.1209C14.3376 21.6358 14.4495 21.0836 14.4495 20.4629Z" fill="#373737"/>
	<path d="M92.2916 11.4929C92.4505 11.1609 92.5302 10.6486 92.5302 9.95521C92.5302 9.20451 92.4547 8.6705 92.3028 8.35247C92.151 8.03514 91.9523 7.87577 91.7066 7.87577H86.8568L85.1397 12.7497C85.3979 13.2383 85.528 13.8296 85.528 14.5244C85.528 14.9578 85.4595 15.3729 85.3223 15.7693C85.1845 16.1663 84.9822 16.5165 84.7149 16.8198C84.4476 17.1232 84.1111 17.3615 83.7066 17.5342C83.6136 17.574 83.517 17.6083 83.4162 17.639L82.0624 21.5798C82.152 21.5833 82.2071 21.584 82.2974 21.584C83.5114 21.584 84.6135 21.4288 85.6036 21.1185C86.5937 20.8082 87.439 20.3531 88.1401 19.7541C88.8413 19.1551 89.3793 18.4191 89.7551 17.5454C90.1309 16.6723 90.3191 15.6721 90.3191 14.5461C90.3191 14.0694 90.2505 13.6115 90.1134 13.1712C89.9755 12.7308 89.7481 12.3373 89.4304 11.9906H91.7066C91.9376 11.9913 92.1328 11.8257 92.2916 11.4929Z" fill="#373737"/>
	<path d="M80.0013 27.8057L83.882 27.914C84.7923 27.9434 85.5082 28.1307 86.0281 28.4774C86.5487 28.8241 86.8083 29.3218 86.8083 29.9718C86.8083 30.3472 86.7355 30.7043 86.5913 31.044C86.4465 31.383 86.2009 31.6899 85.8545 31.9646C85.5075 32.2386 85.0527 32.4588 84.4887 32.6251C83.9247 32.7908 83.2313 32.8739 82.4077 32.8739C81.0775 32.8739 80.0482 32.6859 79.3184 32.3106C78.9559 32.1239 78.6277 31.8306 78.4458 31.558L77.5412 33.755L76.8932 35.9288C77.201 36.0231 77.6089 36.1312 77.9532 36.2081C79.1161 36.4681 80.5219 36.5981 82.1698 36.5981C83.861 36.5981 85.3381 36.4177 86.6033 36.0564C87.8677 35.6957 88.9194 35.2043 89.7576 34.5836C90.5959 33.963 91.2243 33.2304 91.6434 32.3854C92.0625 31.541 92.2718 30.6421 92.2718 29.6894C92.2718 28.8234 92.1164 28.051 91.8057 27.3723C91.4951 26.6936 91.0472 26.1128 90.4616 25.6291C89.8759 25.1454 89.1531 24.7701 88.2938 24.5031C87.4338 24.236 86.4542 24.0809 85.3563 24.0375L81.1578 23.9102L79.3731 28.1949C79.4409 28.1425 79.9278 27.8595 80.0013 27.8057Z" fill="#373737"/>
	<path d="M87.1019 7.88574L88.3942 8.27344L86.1973 13.4427L85.2926 13.055L84.6465 11.8919L86.4557 7.88574H87.1019Z" fill="#373737"/>
	<path d="M83.613 17.5776L82.9668 17.7069L81.416 21.4546L82.1914 21.5838L83.613 17.5776Z" fill="#373737"/>
	</svg>
	